<?xml version="1.0" encoding="utf-8" standalone="no"?>
<!DOCTYPE svg PUBLIC "-//W3C//DTD SVG 1.1//EN"
  "http://www.w3.org/Graphics/SVG/1.1/DTD/svg11.dtd">
<svg xmlns:xlink="http://www.w3.org/1999/xlink" width="563.134431pt" height="275.139531pt" viewBox="0 0 563.134431 275.139531" xmlns="http://www.w3.org/2000/svg" version="1.1">
 <metadata>
  <rdf:RDF xmlns:dc="http://purl.org/dc/elements/1.1/" xmlns:cc="http://creativecommons.org/ns#" xmlns:rdf="http://www.w3.org/1999/02/22-rdf-syntax-ns#">
   <cc:Work>
    <dc:type rdf:resource="http://purl.org/dc/dcmitype/StillImage"/>
    <dc:date>2026-01-20T03:33:29.439702</dc:date>
    <dc:format>image/svg+xml</dc:format>
    <dc:creator>
     <cc:Agent>
      <dc:title>Matplotlib v3.10.3, https://matplotlib.org/</dc:title>
     </cc:Agent>
    </dc:creator>
   </cc:Work>
  </rdf:RDF>
 </metadata>
 <defs>
  <style type="text/css">*{stroke-linejoin: round; stroke-linecap: butt}</style>
 </defs>
 <g id="figure_1">
  <g id="patch_1">
   <path d="M 0 275.139531 
L 563.134431 275.139531 
L 563.134431 0 
L 0 0 
L 0 275.139531 
z
" style="fill: none"/>
  </g>
  <g id="axes_1">
   <g id="patch_2">
    <path d="M 46.012031 234.984375 
L 552.574431 234.984375 
L 552.574431 21.864375 
L 46.012031 21.864375 
L 46.012031 234.984375 
z
" style="fill: none"/>
   </g>
   <g id="line2d_1">
    <path d="M 46.012031 230.115018 
L 55.646351 228.776121 
L 64.773602 227.287715 
L 73.900852 225.5781 
L 83.028103 223.646608 
L 92.662422 221.374298 
L 102.803812 218.741573 
L 113.452271 215.744823 
L 126.129007 211.934594 
L 145.397647 205.868595 
L 164.666287 199.866227 
L 176.328885 196.464161 
L 185.963205 193.874259 
L 194.583386 191.771677 
L 202.696497 190.008281 
L 210.809609 188.477016 
L 218.415651 187.268267 
L 226.021693 186.290019 
L 233.627735 185.54892 
L 240.726707 185.073523 
L 248.33275 184.794737 
L 255.938792 184.749651 
L 263.544834 184.929959 
L 271.150876 185.324303 
L 279.263987 185.965084 
L 287.884168 186.873386 
L 297.011419 188.062192 
L 307.152808 189.61774 
L 318.308336 191.560669 
L 331.492143 194.089261 
L 349.746643 197.839495 
L 391.833409 206.562163 
L 409.073771 209.861105 
L 424.792925 212.643826 
L 440.005009 215.111415 
L 455.217093 217.351875 
L 470.429177 219.369728 
L 486.148331 221.232795 
L 502.881623 222.986331 
L 520.121985 224.567691 
L 538.376486 226.018303 
L 552.574431 227.003261 
L 552.574431 227.003261 
" clip-path="url(#p875e53e0c5)" style="fill: none; stroke-dasharray: 4.44,1.92; stroke-dashoffset: 0; stroke: #616161; stroke-width: 1.2"/>
   </g>
   <g id="line2d_2">
    <path d="M 46.012031 221.838923 
L 50.575656 219.411487 
L 55.139282 216.733245 
L 60.209976 213.47867 
L 65.280671 209.957342 
L 70.858435 205.82091 
L 77.957408 200.255724 
L 91.141214 189.536833 
L 99.761395 182.693542 
L 105.846229 178.136704 
L 110.916923 174.59003 
L 115.987618 171.320406 
L 120.551243 168.645967 
L 125.114868 166.248196 
L 129.171424 164.362125 
L 133.22798 162.714875 
L 137.284536 161.31073 
L 141.341091 160.150971 
L 145.397647 159.234166 
L 149.454203 158.556504 
L 153.510759 158.112128 
L 157.567315 157.893474 
L 161.62387 157.891579 
L 165.680426 158.096371 
L 170.244051 158.560177 
L 174.807676 159.255184 
L 179.371302 160.164138 
L 184.441996 161.403443 
L 190.019761 163.016985 
L 195.597525 164.860698 
L 201.682358 167.095891 
L 208.781331 169.944401 
L 217.401512 173.663575 
L 229.06411 178.969492 
L 255.431722 191.05115 
L 266.080181 195.639584 
L 275.714501 199.548566 
L 284.841751 203.009677 
L 293.461932 206.048269 
L 302.082113 208.858257 
L 310.702294 211.441635 
L 319.829545 213.938943 
L 328.956795 216.20655 
L 338.591115 218.372073 
L 348.732504 220.423971 
L 359.380963 222.354006 
L 370.536492 224.153984 
L 382.199089 225.8137 
L 394.368757 227.321303 
L 407.045493 228.665527 
L 420.2293 229.838089 
L 433.920175 230.835164 
L 448.62519 231.684127 
L 464.851413 232.393726 
L 483.612983 232.982862 
L 508.459387 233.522274 
L 547.503736 234.125854 
L 552.574431 234.189545 
L 552.574431 234.189545 
" clip-path="url(#p875e53e0c5)" style="fill: none; stroke-dasharray: 4.44,1.92; stroke-dashoffset: 0; stroke: #8d6e63; stroke-width: 1.2"/>
   </g>
   <g id="line2d_3">
    <path d="M 46.012031 184.794089 
L 48.040309 174.753326 
L 50.575656 160.869727 
L 53.618073 142.660766 
L 64.266532 77.109343 
L 66.29481 66.534866 
L 68.323088 57.170469 
L 69.844296 51.044631 
L 71.365505 45.746635 
L 72.886713 41.309926 
L 74.407922 37.750156 
L 75.42206 35.864118 
L 76.436199 34.363111 
L 77.450338 33.239821 
L 78.464477 32.484279 
L 79.478616 32.084154 
L 80.492755 32.025051 
L 81.506894 32.290833 
L 82.521033 32.863945 
L 83.535172 33.725733 
L 84.549311 34.856758 
L 86.070519 37.014452 
L 87.591728 39.665139 
L 89.112936 42.741682 
L 91.141214 47.394593 
L 93.676561 53.896296 
L 96.718978 62.380184 
L 102.296742 78.793941 
L 108.381576 96.502406 
L 112.438132 107.61274 
L 115.987618 116.697166 
L 119.537104 125.137652 
L 123.086591 132.950126 
L 126.636077 140.197825 
L 130.185563 146.971837 
L 134.242119 154.257467 
L 138.805744 162.015277 
L 143.876439 170.208655 
L 148.947134 177.984247 
L 153.510759 184.590789 
L 157.567315 190.110057 
L 161.62387 195.262236 
L 165.173357 199.447499 
L 168.722843 203.315032 
L 172.272329 206.851897 
L 175.821815 210.049603 
L 179.371302 212.907617 
L 182.920788 215.436974 
L 186.470274 217.662087 
L 190.019761 219.619612 
L 194.076316 221.586735 
L 198.639942 223.538207 
L 204.217706 225.662914 
L 210.302539 227.745427 
L 215.880303 229.439992 
L 220.950998 230.753813 
L 225.514623 231.711665 
L 230.078249 232.443575 
L 235.148943 233.015981 
L 241.233777 233.458495 
L 251.882236 233.959718 
L 271.150876 234.673689 
L 283.827612 234.88299 
L 306.138669 234.974907 
L 399.946521 234.984375 
L 552.574431 234.984375 
L 552.574431 234.984375 
" clip-path="url(#p875e53e0c5)" style="fill: none; stroke: #000000; stroke-width: 1.4; stroke-linecap: square"/>
   </g>
   <g id="line2d_4">
    <path d="M 46.012031 231.341353 
L 52.096865 230.240164 
L 58.181699 228.907389 
L 63.759463 227.465914 
L 69.337227 225.80331 
L 74.914991 223.913931 
L 80.492755 221.797625 
L 86.577589 219.236973 
L 92.662422 216.428569 
L 99.254326 213.133844 
L 106.353298 209.336362 
L 114.973479 204.461698 
L 128.664355 196.411785 
L 142.35523 188.437334 
L 150.975411 183.68099 
L 158.074384 180.015383 
L 164.666287 176.86847 
L 170.751121 174.219467 
L 176.328885 172.032172 
L 181.906649 170.095476 
L 186.977344 168.566664 
L 192.048038 167.26999 
L 197.118733 166.214563 
L 202.189428 165.407555 
L 206.753053 164.89791 
L 211.316678 164.595858 
L 215.880303 164.502099 
L 220.443929 164.615757 
L 225.007554 164.934325 
L 230.078249 165.523476 
L 235.148943 166.352207 
L 240.219638 167.40972 
L 245.290333 168.682633 
L 250.868097 170.312577 
L 256.952931 172.337078 
L 263.544834 174.779451 
L 271.150876 177.854383 
L 280.785196 182.01768 
L 309.688155 194.702971 
L 318.308336 198.162455 
L 326.421448 201.193363 
L 334.534559 203.996112 
L 343.15474 206.732955 
L 352.281991 209.384955 
L 361.916311 211.94553 
L 372.0577 214.413144 
L 382.706159 216.781951 
L 393.861687 219.034751 
L 405.017216 221.055881 
L 416.172744 222.843989 
L 427.328272 224.403709 
L 438.99087 225.808445 
L 452.174676 227.161154 
L 467.38676 228.490883 
L 486.6554 229.945305 
L 507.445248 231.298651 
L 525.19268 232.240604 
L 541.418903 232.884908 
L 552.574431 233.204387 
L 552.574431 233.204387 
" clip-path="url(#p875e53e0c5)" style="fill: none; stroke: #e53935; stroke-width: 1.4; stroke-linecap: square"/>
   </g>
   <g id="line2d_5">
    <path d="M 46.012031 205.429411 
L 48.547379 199.365532 
L 51.082726 192.659718 
L 54.125143 183.854637 
L 57.674629 172.737523 
L 62.745324 155.904871 
L 69.337227 134.033462 
L 72.886713 123.059298 
L 75.92913 114.441703 
L 78.464477 107.95039 
L 80.492755 103.266228 
L 82.521033 99.067376 
L 84.549311 95.374967 
L 86.577589 92.201549 
L 88.098797 90.164951 
L 89.620006 88.421767 
L 91.141214 86.968576 
L 92.662422 85.799783 
L 94.183631 84.907798 
L 95.704839 84.283232 
L 97.226048 83.915103 
L 98.747256 83.791077 
L 100.268464 83.897705 
L 101.789673 84.220692 
L 103.310881 84.745159 
L 105.339159 85.731612 
L 107.367437 87.013318 
L 109.395715 88.555357 
L 111.931062 90.799186 
L 114.46641 93.341027 
L 117.508826 96.716866 
L 121.058313 101.024274 
L 125.114868 106.351651 
L 129.171424 112.056343 
L 133.735049 118.883958 
L 138.805744 126.916833 
L 145.397647 137.85271 
L 156.553176 156.445809 
L 161.62387 164.43217 
L 166.187495 171.207273 
L 170.751121 177.553969 
L 175.314746 183.477427 
L 179.878371 189.007153 
L 184.441996 194.178599 
L 189.005622 199.016259 
L 193.569247 203.522794 
L 197.625803 207.234485 
L 201.682358 210.644193 
L 205.231845 213.360109 
L 208.781331 215.813501 
L 212.330817 218.000441 
L 215.880303 219.926469 
L 219.42979 221.605972 
L 222.979276 223.060058 
L 227.035832 224.478027 
L 231.599457 225.809165 
L 236.163082 226.912257 
L 241.740846 228.021684 
L 248.33275 229.093459 
L 256.952931 230.256686 
L 267.09432 231.402973 
L 276.72864 232.273126 
L 289.405377 233.169083 
L 306.645739 234.188734 
L 315.772989 234.516831 
L 324.39317 234.602949 
L 335.041629 234.466259 
L 350.760782 234.262016 
L 360.902172 234.382867 
L 392.340479 234.946408 
L 420.736369 234.984197 
L 552.574431 234.984375 
L 552.574431 234.984375 
" clip-path="url(#p875e53e0c5)" style="fill: none; stroke: #7e57c2; stroke-width: 1.4; stroke-linecap: square"/>
   </g>
   <g id="line2d_6">
    <path d="M 378.472741 234.984375 
L 378.472741 21.864375 
" clip-path="url(#p875e53e0c5)" style="fill: none; stroke-dasharray: 2,3.3; stroke-dashoffset: 0; stroke: #e53935; stroke-width: 2"/>
   </g>
   <g id="line2d_7">
    <path d="M 66.450482 234.984375 
L 66.450482 21.864375 
" clip-path="url(#p875e53e0c5)" style="fill: none; stroke-dasharray: 2,3.3; stroke-dashoffset: 0; stroke: #8d6e63; stroke-width: 2"/>
   </g>
   <g id="patch_3">
    <path d="M 46.012031 234.984375 
L 46.012031 21.864375 
" style="fill: none; stroke: #808080; stroke-width: 0.8; stroke-linejoin: miter; stroke-linecap: square"/>
   </g>
   <g id="patch_4">
    <path d="M 552.574431 234.984375 
L 552.574431 21.864375 
" style="fill: none; stroke: #808080; stroke-width: 0.8; stroke-linejoin: miter; stroke-linecap: square"/>
   </g>
   <g id="patch_5">
    <path d="M 46.012031 234.984375 
L 552.574431 234.984375 
" style="fill: none; stroke: #808080; stroke-width: 0.8; stroke-linejoin: miter; stroke-linecap: square"/>
   </g>
   <g id="patch_6">
    <path d="M 46.012031 21.864375 
L 552.574431 21.864375 
" style="fill: none; stroke: #808080; stroke-width: 0.8; stroke-linejoin: miter; stroke-linecap: square"/>
   </g>
   <g id="matplotlib.axis_1">
    <g id="xtick_1">
     <g id="line2d_8">
      <path d="M 46.012031 234.984375 
L 46.012031 21.864375 
" clip-path="url(#p875e53e0c5)" style="fill: none; stroke-dasharray: 1.85,0.8; stroke-dashoffset: 0; stroke: #b0b0b0; stroke-opacity: 0.4; stroke-width: 0.5"/>
     </g>
     <g id="line2d_9">
      <defs>
       <path id="m9cfb903fb2" d="M 0 0 
L 0 3.5 
" style="stroke: #000000; stroke-width: 0.8"/>
      </defs>
      <g>
       <use xlink:href="#m9cfb903fb2" x="46.012031" y="234.984375" style="stroke: #000000; stroke-width: 0.8"/>
      </g>
     </g>
     <g id="text_1">
      <!-- $\mathdefault{0}$ -->
      <g transform="translate(42.652031 250.553125) scale(0.12 -0.12)">
       <defs>
        <path id="HelveticaNeue-30" d="M 845 2234 
Q 845 2400 848 2601 
Q 851 2803 880 3004 
Q 909 3206 963 3398 
Q 1018 3590 1123 3734 
Q 1229 3878 1389 3968 
Q 1549 4058 1779 4058 
Q 2010 4058 2170 3968 
Q 2330 3878 2435 3734 
Q 2541 3590 2595 3398 
Q 2650 3206 2678 3004 
Q 2707 2803 2710 2601 
Q 2714 2400 2714 2234 
Q 2714 1978 2698 1661 
Q 2682 1344 2595 1065 
Q 2509 787 2317 595 
Q 2125 403 1779 403 
Q 1434 403 1242 595 
Q 1050 787 963 1065 
Q 877 1344 861 1661 
Q 845 1978 845 2234 
z
M 269 2227 
Q 269 1978 281 1709 
Q 294 1440 345 1184 
Q 397 928 493 701 
Q 589 474 755 301 
Q 922 128 1174 29 
Q 1427 -70 1779 -70 
Q 2138 -70 2387 29 
Q 2637 128 2803 301 
Q 2970 474 3066 701 
Q 3162 928 3213 1184 
Q 3264 1440 3277 1709 
Q 3290 1978 3290 2227 
Q 3290 2477 3277 2745 
Q 3264 3014 3213 3270 
Q 3162 3526 3066 3756 
Q 2970 3987 2803 4160 
Q 2637 4333 2384 4435 
Q 2131 4538 1779 4538 
Q 1427 4538 1174 4435 
Q 922 4333 755 4160 
Q 589 3987 493 3756 
Q 397 3526 345 3270 
Q 294 3014 281 2745 
Q 269 2477 269 2227 
z
" transform="scale(0.015625)"/>
       </defs>
       <use xlink:href="#HelveticaNeue-30" transform="translate(0 0.09375)"/>
      </g>
     </g>
    </g>
    <g id="xtick_2">
     <g id="line2d_10">
      <path d="M 147.324511 234.984375 
L 147.324511 21.864375 
" clip-path="url(#p875e53e0c5)" style="fill: none; stroke-dasharray: 1.85,0.8; stroke-dashoffset: 0; stroke: #b0b0b0; stroke-opacity: 0.4; stroke-width: 0.5"/>
     </g>
     <g id="line2d_11">
      <g>
       <use xlink:href="#m9cfb903fb2" x="147.324511" y="234.984375" style="stroke: #000000; stroke-width: 0.8"/>
      </g>
     </g>
     <g id="text_2">
      <!-- $\mathdefault{1}$ -->
      <g transform="translate(143.964511 250.553125) scale(0.12 -0.12)">
       <defs>
        <path id="HelveticaNeue-31" d="M 2278 0 
L 2278 4538 
L 1862 4538 
Q 1818 4282 1696 4115 
Q 1574 3949 1398 3853 
Q 1222 3757 1004 3721 
Q 787 3686 557 3686 
L 557 3251 
L 1734 3251 
L 1734 0 
L 2278 0 
z
" transform="scale(0.015625)"/>
       </defs>
       <use xlink:href="#HelveticaNeue-31" transform="translate(0 0.09375)"/>
      </g>
     </g>
    </g>
    <g id="xtick_3">
     <g id="line2d_12">
      <path d="M 248.636991 234.984375 
L 248.636991 21.864375 
" clip-path="url(#p875e53e0c5)" style="fill: none; stroke-dasharray: 1.85,0.8; stroke-dashoffset: 0; stroke: #b0b0b0; stroke-opacity: 0.4; stroke-width: 0.5"/>
     </g>
     <g id="line2d_13">
      <g>
       <use xlink:href="#m9cfb903fb2" x="248.636991" y="234.984375" style="stroke: #000000; stroke-width: 0.8"/>
      </g>
     </g>
     <g id="text_3">
      <!-- $\mathdefault{2}$ -->
      <g transform="translate(245.276991 250.553125) scale(0.12 -0.12)">
       <defs>
        <path id="HelveticaNeue-32" d="M 282 2931 
L 826 2931 
Q 819 3136 867 3337 
Q 915 3539 1024 3699 
Q 1133 3859 1302 3958 
Q 1472 4058 1709 4058 
Q 1888 4058 2048 4000 
Q 2208 3942 2326 3833 
Q 2445 3725 2515 3574 
Q 2586 3424 2586 3238 
Q 2586 3002 2512 2822 
Q 2438 2643 2294 2489 
Q 2150 2336 1932 2185 
Q 1715 2035 1427 1856 
Q 1190 1715 972 1555 
Q 755 1395 582 1184 
Q 410 973 298 688 
Q 186 403 154 0 
L 3117 0 
L 3117 480 
L 787 480 
Q 826 691 950 854 
Q 1075 1018 1251 1158 
Q 1427 1299 1638 1424 
Q 1850 1549 2061 1677 
Q 2272 1811 2470 1958 
Q 2669 2106 2822 2288 
Q 2976 2470 3069 2700 
Q 3162 2931 3162 3232 
Q 3162 3552 3050 3795 
Q 2938 4038 2746 4201 
Q 2554 4365 2294 4451 
Q 2035 4538 1741 4538 
Q 1382 4538 1100 4416 
Q 819 4294 630 4080 
Q 442 3866 352 3571 
Q 262 3277 282 2931 
z
" transform="scale(0.015625)"/>
       </defs>
       <use xlink:href="#HelveticaNeue-32" transform="translate(0 0.09375)"/>
      </g>
     </g>
    </g>
    <g id="xtick_4">
     <g id="line2d_14">
      <path d="M 349.949471 234.984375 
L 349.949471 21.864375 
" clip-path="url(#p875e53e0c5)" style="fill: none; stroke-dasharray: 1.85,0.8; stroke-dashoffset: 0; stroke: #b0b0b0; stroke-opacity: 0.4; stroke-width: 0.5"/>
     </g>
     <g id="line2d_15">
      <g>
       <use xlink:href="#m9cfb903fb2" x="349.949471" y="234.984375" style="stroke: #000000; stroke-width: 0.8"/>
      </g>
     </g>
     <g id="text_4">
      <!-- $\mathdefault{3}$ -->
      <g transform="translate(346.589471 250.553125) scale(0.12 -0.12)">
       <defs>
        <path id="HelveticaNeue-33" d="M 1395 2592 
L 1395 2131 
Q 1549 2150 1722 2150 
Q 1926 2150 2102 2096 
Q 2278 2042 2406 1930 
Q 2534 1818 2611 1654 
Q 2688 1491 2688 1280 
Q 2688 1075 2608 912 
Q 2528 749 2393 637 
Q 2259 525 2080 464 
Q 1901 403 1702 403 
Q 1235 403 992 681 
Q 749 960 736 1402 
L 192 1402 
Q 186 1050 291 774 
Q 397 499 595 310 
Q 794 122 1075 26 
Q 1357 -70 1702 -70 
Q 2022 -70 2307 16 
Q 2592 102 2803 275 
Q 3014 448 3139 707 
Q 3264 966 3264 1306 
Q 3264 1715 3062 2016 
Q 2861 2317 2445 2406 
L 2445 2419 
Q 2714 2541 2893 2777 
Q 3072 3014 3072 3322 
Q 3072 3635 2966 3865 
Q 2861 4096 2675 4243 
Q 2490 4390 2237 4464 
Q 1984 4538 1690 4538 
Q 1350 4538 1091 4429 
Q 832 4320 659 4128 
Q 486 3936 393 3667 
Q 301 3398 288 3072 
L 832 3072 
Q 832 3270 883 3449 
Q 934 3629 1040 3763 
Q 1146 3898 1309 3978 
Q 1472 4058 1690 4058 
Q 2035 4058 2265 3875 
Q 2496 3693 2496 3328 
Q 2496 3149 2425 3008 
Q 2355 2867 2236 2774 
Q 2118 2682 1961 2634 
Q 1805 2586 1632 2586 
L 1517 2586 
Q 1485 2586 1453 2586 
Q 1427 2586 1395 2592 
z
" transform="scale(0.015625)"/>
       </defs>
       <use xlink:href="#HelveticaNeue-33" transform="translate(0 0.09375)"/>
      </g>
     </g>
    </g>
    <g id="xtick_5">
     <g id="line2d_16">
      <path d="M 451.261951 234.984375 
L 451.261951 21.864375 
" clip-path="url(#p875e53e0c5)" style="fill: none; stroke-dasharray: 1.85,0.8; stroke-dashoffset: 0; stroke: #b0b0b0; stroke-opacity: 0.4; stroke-width: 0.5"/>
     </g>
     <g id="line2d_17">
      <g>
       <use xlink:href="#m9cfb903fb2" x="451.261951" y="234.984375" style="stroke: #000000; stroke-width: 0.8"/>
      </g>
     </g>
     <g id="text_5">
      <!-- $\mathdefault{4}$ -->
      <g transform="translate(447.901951 250.553125) scale(0.12 -0.12)">
       <defs>
        <path id="HelveticaNeue-34" d="M 2170 1542 
L 646 1542 
L 2157 3763 
L 2170 3763 
L 2170 1542 
z
M 2682 1542 
L 2682 4538 
L 2246 4538 
L 179 1587 
L 179 1062 
L 2170 1062 
L 2170 0 
L 2682 0 
L 2682 1062 
L 3296 1062 
L 3296 1542 
L 2682 1542 
z
" transform="scale(0.015625)"/>
       </defs>
       <use xlink:href="#HelveticaNeue-34" transform="translate(0 0.09375)"/>
      </g>
     </g>
    </g>
    <g id="xtick_6">
     <g id="line2d_18">
      <path d="M 552.574431 234.984375 
L 552.574431 21.864375 
" clip-path="url(#p875e53e0c5)" style="fill: none; stroke-dasharray: 1.85,0.8; stroke-dashoffset: 0; stroke: #b0b0b0; stroke-opacity: 0.4; stroke-width: 0.5"/>
     </g>
     <g id="line2d_19">
      <g>
       <use xlink:href="#m9cfb903fb2" x="552.574431" y="234.984375" style="stroke: #000000; stroke-width: 0.8"/>
      </g>
     </g>
     <g id="text_6">
      <!-- $\mathdefault{5}$ -->
      <g transform="translate(549.214431 250.553125) scale(0.12 -0.12)">
       <defs>
        <path id="HelveticaNeue-35" d="M 3008 3981 
L 3008 4461 
L 768 4461 
L 346 2106 
L 813 2080 
Q 973 2272 1181 2390 
Q 1389 2509 1658 2509 
Q 1888 2509 2077 2432 
Q 2266 2355 2400 2217 
Q 2534 2080 2608 1891 
Q 2682 1702 2682 1478 
Q 2682 1210 2605 1008 
Q 2528 806 2397 672 
Q 2266 538 2090 470 
Q 1914 403 1722 403 
Q 1517 403 1347 464 
Q 1178 525 1053 637 
Q 928 749 854 899 
Q 781 1050 768 1222 
L 224 1222 
Q 230 915 345 672 
Q 461 429 659 265 
Q 858 102 1117 16 
Q 1376 -70 1670 -70 
Q 2067 -70 2364 54 
Q 2662 179 2860 390 
Q 3059 602 3158 874 
Q 3258 1146 3258 1434 
Q 3258 1824 3142 2115 
Q 3027 2406 2828 2601 
Q 2630 2797 2361 2893 
Q 2093 2989 1792 2989 
Q 1562 2989 1328 2909 
Q 1094 2829 947 2662 
L 934 2675 
L 1178 3981 
L 3008 3981 
z
" transform="scale(0.015625)"/>
       </defs>
       <use xlink:href="#HelveticaNeue-35" transform="translate(0 0.296875)"/>
      </g>
     </g>
    </g>
    <g id="xtick_7">
     <g id="line2d_20">
      <defs>
       <path id="mc817a41106" d="M 0 0 
L 0 2 
" style="stroke: #000000; stroke-width: 0.6"/>
      </defs>
      <g>
       <use xlink:href="#mc817a41106" x="66.274527" y="234.984375" style="stroke: #000000; stroke-width: 0.6"/>
      </g>
     </g>
    </g>
    <g id="xtick_8">
     <g id="line2d_21">
      <g>
       <use xlink:href="#mc817a41106" x="86.537023" y="234.984375" style="stroke: #000000; stroke-width: 0.6"/>
      </g>
     </g>
    </g>
    <g id="xtick_9">
     <g id="line2d_22">
      <g>
       <use xlink:href="#mc817a41106" x="106.799519" y="234.984375" style="stroke: #000000; stroke-width: 0.6"/>
      </g>
     </g>
    </g>
    <g id="xtick_10">
     <g id="line2d_23">
      <g>
       <use xlink:href="#mc817a41106" x="127.062015" y="234.984375" style="stroke: #000000; stroke-width: 0.6"/>
      </g>
     </g>
    </g>
    <g id="xtick_11">
     <g id="line2d_24">
      <g>
       <use xlink:href="#mc817a41106" x="167.587007" y="234.984375" style="stroke: #000000; stroke-width: 0.6"/>
      </g>
     </g>
    </g>
    <g id="xtick_12">
     <g id="line2d_25">
      <g>
       <use xlink:href="#mc817a41106" x="187.849503" y="234.984375" style="stroke: #000000; stroke-width: 0.6"/>
      </g>
     </g>
    </g>
    <g id="xtick_13">
     <g id="line2d_26">
      <g>
       <use xlink:href="#mc817a41106" x="208.111999" y="234.984375" style="stroke: #000000; stroke-width: 0.6"/>
      </g>
     </g>
    </g>
    <g id="xtick_14">
     <g id="line2d_27">
      <g>
       <use xlink:href="#mc817a41106" x="228.374495" y="234.984375" style="stroke: #000000; stroke-width: 0.6"/>
      </g>
     </g>
    </g>
    <g id="xtick_15">
     <g id="line2d_28">
      <g>
       <use xlink:href="#mc817a41106" x="268.899487" y="234.984375" style="stroke: #000000; stroke-width: 0.6"/>
      </g>
     </g>
    </g>
    <g id="xtick_16">
     <g id="line2d_29">
      <g>
       <use xlink:href="#mc817a41106" x="289.161983" y="234.984375" style="stroke: #000000; stroke-width: 0.6"/>
      </g>
     </g>
    </g>
    <g id="xtick_17">
     <g id="line2d_30">
      <g>
       <use xlink:href="#mc817a41106" x="309.424479" y="234.984375" style="stroke: #000000; stroke-width: 0.6"/>
      </g>
     </g>
    </g>
    <g id="xtick_18">
     <g id="line2d_31">
      <g>
       <use xlink:href="#mc817a41106" x="329.686975" y="234.984375" style="stroke: #000000; stroke-width: 0.6"/>
      </g>
     </g>
    </g>
    <g id="xtick_19">
     <g id="line2d_32">
      <g>
       <use xlink:href="#mc817a41106" x="370.211967" y="234.984375" style="stroke: #000000; stroke-width: 0.6"/>
      </g>
     </g>
    </g>
    <g id="xtick_20">
     <g id="line2d_33">
      <g>
       <use xlink:href="#mc817a41106" x="390.474463" y="234.984375" style="stroke: #000000; stroke-width: 0.6"/>
      </g>
     </g>
    </g>
    <g id="xtick_21">
     <g id="line2d_34">
      <g>
       <use xlink:href="#mc817a41106" x="410.736959" y="234.984375" style="stroke: #000000; stroke-width: 0.6"/>
      </g>
     </g>
    </g>
    <g id="xtick_22">
     <g id="line2d_35">
      <g>
       <use xlink:href="#mc817a41106" x="430.999455" y="234.984375" style="stroke: #000000; stroke-width: 0.6"/>
      </g>
     </g>
    </g>
    <g id="xtick_23">
     <g id="line2d_36">
      <g>
       <use xlink:href="#mc817a41106" x="471.524447" y="234.984375" style="stroke: #000000; stroke-width: 0.6"/>
      </g>
     </g>
    </g>
    <g id="xtick_24">
     <g id="line2d_37">
      <g>
       <use xlink:href="#mc817a41106" x="491.786943" y="234.984375" style="stroke: #000000; stroke-width: 0.6"/>
      </g>
     </g>
    </g>
    <g id="xtick_25">
     <g id="line2d_38">
      <g>
       <use xlink:href="#mc817a41106" x="512.049439" y="234.984375" style="stroke: #000000; stroke-width: 0.6"/>
      </g>
     </g>
    </g>
    <g id="xtick_26">
     <g id="line2d_39">
      <g>
       <use xlink:href="#mc817a41106" x="532.311935" y="234.984375" style="stroke: #000000; stroke-width: 0.6"/>
      </g>
     </g>
    </g>
    <g id="text_7">
     <!-- Redshift $z$ -->
     <g transform="translate(274.488231 265.772187) scale(0.11 -0.11)">
      <defs>
       <path id="HelveticaNeue-52" d="M 499 4570 
L 499 0 
L 1107 0 
L 1107 1952 
L 2592 1952 
Q 2816 1952 2950 1885 
Q 3085 1818 3168 1706 
Q 3251 1594 3289 1443 
Q 3328 1293 3354 1126 
Q 3386 960 3392 787 
Q 3398 614 3404 464 
Q 3411 314 3433 192 
Q 3456 70 3520 0 
L 4198 0 
Q 4102 115 4054 265 
Q 4006 416 3980 582 
Q 3955 749 3948 921 
Q 3942 1094 3930 1261 
Q 3910 1427 3875 1580 
Q 3840 1734 3766 1859 
Q 3693 1984 3568 2073 
Q 3443 2163 3245 2202 
L 3245 2214 
Q 3661 2330 3849 2643 
Q 4038 2957 4038 3373 
Q 4038 3930 3670 4250 
Q 3302 4570 2650 4570 
L 499 4570 
z
M 2374 2464 
L 1107 2464 
L 1107 4058 
L 2618 4058 
Q 3046 4058 3238 3840 
Q 3430 3622 3430 3277 
Q 3430 3027 3344 2870 
Q 3258 2714 3114 2621 
Q 2970 2528 2778 2496 
Q 2586 2464 2374 2464 
z
" transform="scale(0.015625)"/>
       <path id="HelveticaNeue-65" d="M 2707 1971 
L 806 1971 
Q 819 2163 889 2332 
Q 960 2502 1081 2630 
Q 1203 2758 1372 2832 
Q 1542 2906 1754 2906 
Q 1958 2906 2128 2832 
Q 2298 2758 2422 2633 
Q 2547 2509 2620 2336 
Q 2694 2163 2707 1971 
z
M 3232 1050 
L 2694 1050 
Q 2624 723 2403 563 
Q 2182 403 1837 403 
Q 1568 403 1369 492 
Q 1171 582 1043 732 
Q 915 883 857 1078 
Q 800 1274 806 1491 
L 3283 1491 
Q 3296 1792 3229 2125 
Q 3162 2458 2986 2739 
Q 2810 3021 2518 3203 
Q 2227 3386 1786 3386 
Q 1446 3386 1161 3258 
Q 877 3130 669 2899 
Q 461 2669 345 2355 
Q 230 2042 230 1664 
Q 243 1286 342 966 
Q 442 646 640 416 
Q 838 186 1129 58 
Q 1421 -70 1818 -70 
Q 2381 -70 2752 211 
Q 3123 493 3232 1050 
z
" transform="scale(0.015625)"/>
       <path id="HelveticaNeue-64" d="M 806 1626 
Q 806 1869 857 2099 
Q 909 2330 1024 2509 
Q 1139 2688 1331 2797 
Q 1523 2906 1798 2906 
Q 2080 2906 2278 2800 
Q 2477 2694 2601 2521 
Q 2726 2349 2784 2121 
Q 2842 1894 2842 1651 
Q 2842 1421 2787 1197 
Q 2733 973 2611 797 
Q 2490 621 2298 512 
Q 2106 403 1830 403 
Q 1568 403 1373 505 
Q 1178 608 1053 781 
Q 928 954 867 1174 
Q 806 1395 806 1626 
z
M 3366 0 
L 3366 4570 
L 2822 4570 
L 2822 2867 
L 2810 2867 
Q 2720 3014 2589 3113 
Q 2458 3213 2310 3273 
Q 2163 3334 2016 3360 
Q 1869 3386 1741 3386 
Q 1363 3386 1078 3248 
Q 794 3110 605 2876 
Q 416 2643 323 2329 
Q 230 2016 230 1664 
Q 230 1312 326 998 
Q 422 685 611 448 
Q 800 211 1085 70 
Q 1370 -70 1754 -70 
Q 2099 -70 2387 51 
Q 2675 173 2810 448 
L 2822 448 
L 2822 0 
L 3366 0 
z
" transform="scale(0.015625)"/>
       <path id="HelveticaNeue-73" d="M 742 1043 
L 198 1043 
Q 211 736 326 521 
Q 442 307 634 176 
Q 826 45 1075 -12 
Q 1325 -70 1600 -70 
Q 1850 -70 2102 -22 
Q 2355 26 2556 147 
Q 2758 269 2883 467 
Q 3008 666 3008 966 
Q 3008 1203 2915 1363 
Q 2822 1523 2672 1628 
Q 2522 1734 2326 1798 
Q 2131 1862 1926 1907 
Q 1734 1952 1542 1993 
Q 1350 2035 1196 2096 
Q 1043 2157 944 2249 
Q 845 2342 845 2483 
Q 845 2611 909 2691 
Q 973 2771 1075 2819 
Q 1178 2867 1302 2886 
Q 1427 2906 1549 2906 
Q 1683 2906 1814 2877 
Q 1946 2848 2054 2784 
Q 2163 2720 2233 2614 
Q 2304 2509 2317 2349 
L 2861 2349 
Q 2842 2650 2733 2851 
Q 2624 3053 2441 3171 
Q 2259 3290 2022 3338 
Q 1786 3386 1504 3386 
Q 1286 3386 1065 3331 
Q 845 3277 669 3165 
Q 493 3053 381 2873 
Q 269 2694 269 2445 
Q 269 2125 429 1945 
Q 589 1766 829 1667 
Q 1069 1568 1350 1513 
Q 1632 1459 1872 1392 
Q 2112 1325 2272 1216 
Q 2432 1107 2432 896 
Q 2432 742 2355 643 
Q 2278 544 2160 493 
Q 2042 442 1901 422 
Q 1760 403 1632 403 
Q 1466 403 1309 435 
Q 1152 467 1027 540 
Q 902 614 825 739 
Q 749 864 742 1043 
z
" transform="scale(0.015625)"/>
       <path id="HelveticaNeue-68" d="M 410 4570 
L 410 0 
L 954 0 
L 954 1869 
Q 954 2093 1014 2281 
Q 1075 2470 1196 2611 
Q 1318 2752 1500 2829 
Q 1683 2906 1933 2906 
Q 2246 2906 2425 2726 
Q 2605 2547 2605 2240 
L 2605 0 
L 3149 0 
L 3149 2176 
Q 3149 2445 3094 2665 
Q 3040 2886 2905 3046 
Q 2771 3206 2553 3296 
Q 2336 3386 2010 3386 
Q 1862 3386 1705 3354 
Q 1549 3322 1405 3254 
Q 1261 3187 1145 3081 
Q 1030 2976 966 2822 
L 954 2822 
L 954 4570 
L 410 4570 
z
" transform="scale(0.015625)"/>
       <path id="HelveticaNeue-69" d="M 986 3904 
L 986 4570 
L 442 4570 
L 442 3904 
L 986 3904 
z
M 442 3309 
L 442 0 
L 986 0 
L 986 3309 
L 442 3309 
z
" transform="scale(0.015625)"/>
       <path id="HelveticaNeue-66" d="M 634 2829 
L 634 0 
L 1178 0 
L 1178 2829 
L 1818 2829 
L 1818 3309 
L 1178 3309 
L 1178 3770 
Q 1178 3987 1286 4064 
Q 1395 4141 1594 4141 
Q 1664 4141 1747 4131 
Q 1830 4122 1901 4096 
L 1901 4570 
Q 1824 4595 1725 4608 
Q 1626 4621 1549 4621 
Q 1101 4621 867 4413 
Q 634 4205 634 3802 
L 634 3309 
L 77 3309 
L 77 2829 
L 634 2829 
z
" transform="scale(0.015625)"/>
       <path id="HelveticaNeue-74" d="M 1165 3309 
L 1165 4301 
L 621 4301 
L 621 3309 
L 58 3309 
L 58 2829 
L 621 2829 
L 621 723 
Q 621 493 665 352 
Q 710 211 803 134 
Q 896 58 1046 29 
Q 1197 0 1408 0 
L 1824 0 
L 1824 480 
L 1574 480 
Q 1446 480 1366 489 
Q 1286 499 1241 531 
Q 1197 563 1181 620 
Q 1165 678 1165 774 
L 1165 2829 
L 1824 2829 
L 1824 3309 
L 1165 3309 
z
" transform="scale(0.015625)"/>
       <path id="HelveticaNeue-20" transform="scale(0.015625)"/>
       <path id="DejaVuSans-Oblique-7a" d="M 744 3500 
L 3475 3500 
L 3372 2975 
L 738 459 
L 2913 459 
L 2822 0 
L -19 0 
L 84 525 
L 2719 3041 
L 653 3041 
L 744 3500 
z
" transform="scale(0.015625)"/>
      </defs>
      <use xlink:href="#HelveticaNeue-52" transform="translate(0 0.796875)"/>
      <use xlink:href="#HelveticaNeue-65" transform="translate(68.499985 0.796875)"/>
      <use xlink:href="#HelveticaNeue-64" transform="translate(122.199982 0.796875)"/>
      <use xlink:href="#HelveticaNeue-73" transform="translate(181.499969 0.796875)"/>
      <use xlink:href="#HelveticaNeue-68" transform="translate(231.499954 0.796875)"/>
      <use xlink:href="#HelveticaNeue-69" transform="translate(287.099945 0.796875)"/>
      <use xlink:href="#HelveticaNeue-66" transform="translate(309.299942 0.796875)"/>
      <use xlink:href="#HelveticaNeue-74" transform="translate(338.899933 0.796875)"/>
      <use xlink:href="#HelveticaNeue-20" transform="translate(370.399918 0.796875)"/>
      <use xlink:href="#DejaVuSans-Oblique-7a" transform="translate(398.199905 0.796875)"/>
     </g>
    </g>
   </g>
   <g id="matplotlib.axis_2">
    <g id="ytick_1">
     <g id="line2d_40">
      <path d="M 46.012031 234.984375 
L 552.574431 234.984375 
" clip-path="url(#p875e53e0c5)" style="fill: none; stroke-dasharray: 1.85,0.8; stroke-dashoffset: 0; stroke: #b0b0b0; stroke-opacity: 0.4; stroke-width: 0.5"/>
     </g>
     <g id="line2d_41">
      <defs>
       <path id="m795be9366d" d="M 0 0 
L -3.5 0 
" style="stroke: #000000; stroke-width: 0.8"/>
      </defs>
      <g>
       <use xlink:href="#m795be9366d" x="46.012031" y="234.984375" style="stroke: #000000; stroke-width: 0.8"/>
      </g>
     </g>
     <g id="text_8">
      <!-- $\mathdefault{0.0}$ -->
      <g transform="translate(22.332031 239.26875) scale(0.12 -0.12)">
       <defs>
        <path id="HelveticaNeue-2e" d="M 531 710 
L 531 0 
L 1242 0 
L 1242 710 
L 531 710 
z
" transform="scale(0.015625)"/>
       </defs>
       <use xlink:href="#HelveticaNeue-30" transform="translate(0 0.09375)"/>
       <use xlink:href="#HelveticaNeue-2e" transform="translate(55.599991 0.09375)"/>
       <use xlink:href="#HelveticaNeue-30" transform="translate(83.399979 0.09375)"/>
      </g>
     </g>
    </g>
    <g id="ytick_2">
     <g id="line2d_42">
      <path d="M 46.012031 203.89059 
L 552.574431 203.89059 
" clip-path="url(#p875e53e0c5)" style="fill: none; stroke-dasharray: 1.85,0.8; stroke-dashoffset: 0; stroke: #b0b0b0; stroke-opacity: 0.4; stroke-width: 0.5"/>
     </g>
     <g id="line2d_43">
      <g>
       <use xlink:href="#m795be9366d" x="46.012031" y="203.89059" style="stroke: #000000; stroke-width: 0.8"/>
      </g>
     </g>
     <g id="text_9">
      <!-- $\mathdefault{0.2}$ -->
      <g transform="translate(22.332031 208.174965) scale(0.12 -0.12)">
       <use xlink:href="#HelveticaNeue-30" transform="translate(0 0.09375)"/>
       <use xlink:href="#HelveticaNeue-2e" transform="translate(55.599991 0.09375)"/>
       <use xlink:href="#HelveticaNeue-32" transform="translate(83.399979 0.09375)"/>
      </g>
     </g>
    </g>
    <g id="ytick_3">
     <g id="line2d_44">
      <path d="M 46.012031 172.796806 
L 552.574431 172.796806 
" clip-path="url(#p875e53e0c5)" style="fill: none; stroke-dasharray: 1.85,0.8; stroke-dashoffset: 0; stroke: #b0b0b0; stroke-opacity: 0.4; stroke-width: 0.5"/>
     </g>
     <g id="line2d_45">
      <g>
       <use xlink:href="#m795be9366d" x="46.012031" y="172.796806" style="stroke: #000000; stroke-width: 0.8"/>
      </g>
     </g>
     <g id="text_10">
      <!-- $\mathdefault{0.4}$ -->
      <g transform="translate(22.332031 177.081181) scale(0.12 -0.12)">
       <use xlink:href="#HelveticaNeue-30" transform="translate(0 0.09375)"/>
       <use xlink:href="#HelveticaNeue-2e" transform="translate(55.599991 0.09375)"/>
       <use xlink:href="#HelveticaNeue-34" transform="translate(83.399979 0.09375)"/>
      </g>
     </g>
    </g>
    <g id="ytick_4">
     <g id="line2d_46">
      <path d="M 46.012031 141.703021 
L 552.574431 141.703021 
" clip-path="url(#p875e53e0c5)" style="fill: none; stroke-dasharray: 1.85,0.8; stroke-dashoffset: 0; stroke: #b0b0b0; stroke-opacity: 0.4; stroke-width: 0.5"/>
     </g>
     <g id="line2d_47">
      <g>
       <use xlink:href="#m795be9366d" x="46.012031" y="141.703021" style="stroke: #000000; stroke-width: 0.8"/>
      </g>
     </g>
     <g id="text_11">
      <!-- $\mathdefault{0.6}$ -->
      <g transform="translate(22.332031 145.987396) scale(0.12 -0.12)">
       <defs>
        <path id="HelveticaNeue-36" d="M 2650 3379 
L 3194 3379 
Q 3142 3942 2809 4240 
Q 2477 4538 1914 4538 
Q 1427 4538 1107 4333 
Q 787 4128 595 3789 
Q 403 3450 323 3011 
Q 243 2573 243 2106 
Q 243 1747 297 1363 
Q 352 979 518 659 
Q 685 339 992 134 
Q 1299 -70 1805 -70 
Q 2234 -70 2525 74 
Q 2816 218 2992 438 
Q 3168 659 3245 928 
Q 3322 1197 3322 1446 
Q 3322 1760 3226 2029 
Q 3130 2298 2954 2496 
Q 2778 2694 2518 2806 
Q 2259 2918 1933 2918 
Q 1562 2918 1277 2777 
Q 992 2637 800 2323 
L 787 2336 
Q 794 2598 838 2899 
Q 883 3200 1001 3459 
Q 1120 3718 1331 3888 
Q 1542 4058 1888 4058 
Q 2214 4058 2412 3872 
Q 2611 3686 2650 3379 
z
M 1830 2438 
Q 2061 2438 2233 2355 
Q 2406 2272 2521 2134 
Q 2637 1997 2691 1808 
Q 2746 1619 2746 1408 
Q 2746 1210 2685 1027 
Q 2624 845 2509 704 
Q 2394 563 2224 483 
Q 2054 403 1830 403 
Q 1606 403 1430 483 
Q 1254 563 1136 697 
Q 1018 832 954 1017 
Q 890 1203 890 1414 
Q 890 1626 950 1814 
Q 1011 2003 1132 2140 
Q 1254 2278 1427 2358 
Q 1600 2438 1830 2438 
z
" transform="scale(0.015625)"/>
       </defs>
       <use xlink:href="#HelveticaNeue-30" transform="translate(0 0.09375)"/>
       <use xlink:href="#HelveticaNeue-2e" transform="translate(55.599991 0.09375)"/>
       <use xlink:href="#HelveticaNeue-36" transform="translate(83.399979 0.09375)"/>
      </g>
     </g>
    </g>
    <g id="ytick_5">
     <g id="line2d_48">
      <path d="M 46.012031 110.609236 
L 552.574431 110.609236 
" clip-path="url(#p875e53e0c5)" style="fill: none; stroke-dasharray: 1.85,0.8; stroke-dashoffset: 0; stroke: #b0b0b0; stroke-opacity: 0.4; stroke-width: 0.5"/>
     </g>
     <g id="line2d_49">
      <g>
       <use xlink:href="#m795be9366d" x="46.012031" y="110.609236" style="stroke: #000000; stroke-width: 0.8"/>
      </g>
     </g>
     <g id="text_12">
      <!-- $\mathdefault{0.8}$ -->
      <g transform="translate(22.332031 114.893611) scale(0.12 -0.12)">
       <defs>
        <path id="HelveticaNeue-38" d="M 992 3360 
Q 992 3533 1056 3661 
Q 1120 3789 1225 3878 
Q 1331 3968 1478 4013 
Q 1626 4058 1786 4058 
Q 2118 4058 2332 3882 
Q 2547 3706 2547 3360 
Q 2547 3014 2336 2822 
Q 2125 2630 1798 2630 
Q 1632 2630 1485 2675 
Q 1338 2720 1229 2809 
Q 1120 2899 1056 3036 
Q 992 3174 992 3360 
z
M 416 3379 
Q 416 3072 589 2813 
Q 762 2554 1050 2438 
Q 666 2304 461 2006 
Q 256 1709 256 1306 
Q 256 960 374 701 
Q 493 442 701 269 
Q 909 96 1190 13 
Q 1472 -70 1798 -70 
Q 2112 -70 2387 19 
Q 2662 109 2864 285 
Q 3066 461 3184 717 
Q 3302 973 3302 1306 
Q 3302 1728 3104 2019 
Q 2906 2310 2496 2438 
Q 2784 2566 2953 2819 
Q 3123 3072 3123 3379 
Q 3123 3597 3046 3805 
Q 2970 4013 2806 4176 
Q 2643 4339 2380 4438 
Q 2118 4538 1747 4538 
Q 1485 4538 1245 4461 
Q 1005 4384 819 4237 
Q 634 4090 525 3875 
Q 416 3661 416 3379 
z
M 832 1280 
Q 832 1478 905 1638 
Q 979 1798 1110 1913 
Q 1242 2029 1418 2089 
Q 1594 2150 1792 2150 
Q 1984 2150 2153 2083 
Q 2323 2016 2451 1901 
Q 2579 1786 2652 1629 
Q 2726 1472 2726 1286 
Q 2726 1094 2659 934 
Q 2592 774 2467 656 
Q 2342 538 2172 470 
Q 2003 403 1798 403 
Q 1376 403 1104 636 
Q 832 870 832 1280 
z
" transform="scale(0.015625)"/>
       </defs>
       <use xlink:href="#HelveticaNeue-30" transform="translate(0 0.09375)"/>
       <use xlink:href="#HelveticaNeue-2e" transform="translate(55.599991 0.09375)"/>
       <use xlink:href="#HelveticaNeue-38" transform="translate(83.399979 0.09375)"/>
      </g>
     </g>
    </g>
    <g id="ytick_6">
     <g id="line2d_50">
      <path d="M 46.012031 79.515452 
L 552.574431 79.515452 
" clip-path="url(#p875e53e0c5)" style="fill: none; stroke-dasharray: 1.85,0.8; stroke-dashoffset: 0; stroke: #b0b0b0; stroke-opacity: 0.4; stroke-width: 0.5"/>
     </g>
     <g id="line2d_51">
      <g>
       <use xlink:href="#m795be9366d" x="46.012031" y="79.515452" style="stroke: #000000; stroke-width: 0.8"/>
      </g>
     </g>
     <g id="text_13">
      <!-- $\mathdefault{1.0}$ -->
      <g transform="translate(22.332031 83.799827) scale(0.12 -0.12)">
       <use xlink:href="#HelveticaNeue-31" transform="translate(0 0.09375)"/>
       <use xlink:href="#HelveticaNeue-2e" transform="translate(55.599991 0.09375)"/>
       <use xlink:href="#HelveticaNeue-30" transform="translate(83.399979 0.09375)"/>
      </g>
     </g>
    </g>
    <g id="ytick_7">
     <g id="line2d_52">
      <path d="M 46.012031 48.421667 
L 552.574431 48.421667 
" clip-path="url(#p875e53e0c5)" style="fill: none; stroke-dasharray: 1.85,0.8; stroke-dashoffset: 0; stroke: #b0b0b0; stroke-opacity: 0.4; stroke-width: 0.5"/>
     </g>
     <g id="line2d_53">
      <g>
       <use xlink:href="#m795be9366d" x="46.012031" y="48.421667" style="stroke: #000000; stroke-width: 0.8"/>
      </g>
     </g>
     <g id="text_14">
      <!-- $\mathdefault{1.2}$ -->
      <g transform="translate(22.332031 52.706042) scale(0.12 -0.12)">
       <use xlink:href="#HelveticaNeue-31" transform="translate(0 0.09375)"/>
       <use xlink:href="#HelveticaNeue-2e" transform="translate(55.599991 0.09375)"/>
       <use xlink:href="#HelveticaNeue-32" transform="translate(83.399979 0.09375)"/>
      </g>
     </g>
    </g>
    <g id="ytick_8">
     <g id="line2d_54">
      <defs>
       <path id="m671bfa7793" d="M 0 0 
L -2 0 
" style="stroke: #000000; stroke-width: 0.6"/>
      </defs>
      <g>
       <use xlink:href="#m671bfa7793" x="46.012031" y="227.210929" style="stroke: #000000; stroke-width: 0.6"/>
      </g>
     </g>
    </g>
    <g id="ytick_9">
     <g id="line2d_55">
      <g>
       <use xlink:href="#m671bfa7793" x="46.012031" y="219.437483" style="stroke: #000000; stroke-width: 0.6"/>
      </g>
     </g>
    </g>
    <g id="ytick_10">
     <g id="line2d_56">
      <g>
       <use xlink:href="#m671bfa7793" x="46.012031" y="211.664036" style="stroke: #000000; stroke-width: 0.6"/>
      </g>
     </g>
    </g>
    <g id="ytick_11">
     <g id="line2d_57">
      <g>
       <use xlink:href="#m671bfa7793" x="46.012031" y="196.117144" style="stroke: #000000; stroke-width: 0.6"/>
      </g>
     </g>
    </g>
    <g id="ytick_12">
     <g id="line2d_58">
      <g>
       <use xlink:href="#m671bfa7793" x="46.012031" y="188.343698" style="stroke: #000000; stroke-width: 0.6"/>
      </g>
     </g>
    </g>
    <g id="ytick_13">
     <g id="line2d_59">
      <g>
       <use xlink:href="#m671bfa7793" x="46.012031" y="180.570252" style="stroke: #000000; stroke-width: 0.6"/>
      </g>
     </g>
    </g>
    <g id="ytick_14">
     <g id="line2d_60">
      <g>
       <use xlink:href="#m671bfa7793" x="46.012031" y="165.023359" style="stroke: #000000; stroke-width: 0.6"/>
      </g>
     </g>
    </g>
    <g id="ytick_15">
     <g id="line2d_61">
      <g>
       <use xlink:href="#m671bfa7793" x="46.012031" y="157.249913" style="stroke: #000000; stroke-width: 0.6"/>
      </g>
     </g>
    </g>
    <g id="ytick_16">
     <g id="line2d_62">
      <g>
       <use xlink:href="#m671bfa7793" x="46.012031" y="149.476467" style="stroke: #000000; stroke-width: 0.6"/>
      </g>
     </g>
    </g>
    <g id="ytick_17">
     <g id="line2d_63">
      <g>
       <use xlink:href="#m671bfa7793" x="46.012031" y="133.929575" style="stroke: #000000; stroke-width: 0.6"/>
      </g>
     </g>
    </g>
    <g id="ytick_18">
     <g id="line2d_64">
      <g>
       <use xlink:href="#m671bfa7793" x="46.012031" y="126.156129" style="stroke: #000000; stroke-width: 0.6"/>
      </g>
     </g>
    </g>
    <g id="ytick_19">
     <g id="line2d_65">
      <g>
       <use xlink:href="#m671bfa7793" x="46.012031" y="118.382682" style="stroke: #000000; stroke-width: 0.6"/>
      </g>
     </g>
    </g>
    <g id="ytick_20">
     <g id="line2d_66">
      <g>
       <use xlink:href="#m671bfa7793" x="46.012031" y="102.83579" style="stroke: #000000; stroke-width: 0.6"/>
      </g>
     </g>
    </g>
    <g id="ytick_21">
     <g id="line2d_67">
      <g>
       <use xlink:href="#m671bfa7793" x="46.012031" y="95.062344" style="stroke: #000000; stroke-width: 0.6"/>
      </g>
     </g>
    </g>
    <g id="ytick_22">
     <g id="line2d_68">
      <g>
       <use xlink:href="#m671bfa7793" x="46.012031" y="87.288898" style="stroke: #000000; stroke-width: 0.6"/>
      </g>
     </g>
    </g>
    <g id="ytick_23">
     <g id="line2d_69">
      <g>
       <use xlink:href="#m671bfa7793" x="46.012031" y="71.742005" style="stroke: #000000; stroke-width: 0.6"/>
      </g>
     </g>
    </g>
    <g id="ytick_24">
     <g id="line2d_70">
      <g>
       <use xlink:href="#m671bfa7793" x="46.012031" y="63.968559" style="stroke: #000000; stroke-width: 0.6"/>
      </g>
     </g>
    </g>
    <g id="ytick_25">
     <g id="line2d_71">
      <g>
       <use xlink:href="#m671bfa7793" x="46.012031" y="56.195113" style="stroke: #000000; stroke-width: 0.6"/>
      </g>
     </g>
    </g>
    <g id="ytick_26">
     <g id="line2d_72">
      <g>
       <use xlink:href="#m671bfa7793" x="46.012031" y="40.648221" style="stroke: #000000; stroke-width: 0.6"/>
      </g>
     </g>
    </g>
    <g id="ytick_27">
     <g id="line2d_73">
      <g>
       <use xlink:href="#m671bfa7793" x="46.012031" y="32.874774" style="stroke: #000000; stroke-width: 0.6"/>
      </g>
     </g>
    </g>
    <g id="ytick_28">
     <g id="line2d_74">
      <g>
       <use xlink:href="#m671bfa7793" x="46.012031" y="25.101328" style="stroke: #000000; stroke-width: 0.6"/>
      </g>
     </g>
    </g>
    <g id="text_15">
     <!-- Probability Density -->
     <g transform="translate(15.054688 174.369141) rotate(-90) scale(0.11 -0.11)">
      <defs>
       <path id="HelveticaNeue-50" d="M 1107 2381 
L 1107 4058 
L 2298 4058 
Q 2816 4058 3056 3843 
Q 3296 3629 3296 3219 
Q 3296 2810 3056 2592 
Q 2816 2374 2298 2381 
L 1107 2381 
z
M 499 4570 
L 499 0 
L 1107 0 
L 1107 1869 
L 2502 1869 
Q 3194 1862 3549 2220 
Q 3904 2579 3904 3219 
Q 3904 3859 3549 4214 
Q 3194 4570 2502 4570 
L 499 4570 
z
" transform="scale(0.015625)"/>
       <path id="HelveticaNeue-72" d="M 390 3309 
L 390 0 
L 934 0 
L 934 1472 
Q 934 1792 998 2038 
Q 1062 2285 1203 2457 
Q 1344 2630 1574 2720 
Q 1805 2810 2131 2810 
L 2131 3386 
Q 1690 3398 1402 3206 
Q 1114 3014 915 2611 
L 902 2611 
L 902 3309 
L 390 3309 
z
" transform="scale(0.015625)"/>
       <path id="HelveticaNeue-6f" d="M 806 1651 
Q 806 1952 886 2185 
Q 966 2419 1107 2579 
Q 1248 2739 1437 2822 
Q 1626 2906 1837 2906 
Q 2048 2906 2237 2822 
Q 2426 2739 2566 2579 
Q 2707 2419 2787 2185 
Q 2867 1952 2867 1651 
Q 2867 1350 2787 1116 
Q 2707 883 2566 726 
Q 2426 570 2237 486 
Q 2048 403 1837 403 
Q 1626 403 1437 486 
Q 1248 570 1107 726 
Q 966 883 886 1116 
Q 806 1350 806 1651 
z
M 230 1651 
Q 230 1286 332 972 
Q 435 659 640 425 
Q 845 192 1145 61 
Q 1446 -70 1837 -70 
Q 2234 -70 2531 61 
Q 2829 192 3033 425 
Q 3238 659 3340 972 
Q 3443 1286 3443 1651 
Q 3443 2016 3340 2333 
Q 3238 2650 3033 2883 
Q 2829 3117 2531 3251 
Q 2234 3386 1837 3386 
Q 1446 3386 1145 3251 
Q 845 3117 640 2883 
Q 435 2650 332 2333 
Q 230 2016 230 1651 
z
" transform="scale(0.015625)"/>
       <path id="HelveticaNeue-62" d="M 429 4570 
L 429 0 
L 973 0 
L 973 442 
L 986 442 
Q 1075 294 1206 195 
Q 1338 96 1485 38 
Q 1632 -19 1782 -44 
Q 1933 -70 2054 -70 
Q 2432 -70 2717 64 
Q 3002 198 3190 432 
Q 3379 666 3472 979 
Q 3565 1293 3565 1645 
Q 3565 1997 3469 2310 
Q 3373 2624 3184 2864 
Q 2995 3104 2710 3245 
Q 2426 3386 2042 3386 
Q 1696 3386 1408 3261 
Q 1120 3136 986 2861 
L 973 2861 
L 973 4570 
L 429 4570 
z
M 2989 1683 
Q 2989 1440 2937 1209 
Q 2886 979 2771 800 
Q 2656 621 2467 512 
Q 2278 403 1997 403 
Q 1715 403 1516 508 
Q 1318 614 1193 787 
Q 1069 960 1011 1187 
Q 954 1414 954 1658 
Q 954 1888 1008 2112 
Q 1062 2336 1184 2512 
Q 1306 2688 1498 2797 
Q 1690 2906 1965 2906 
Q 2227 2906 2422 2803 
Q 2618 2701 2742 2528 
Q 2867 2355 2928 2134 
Q 2989 1914 2989 1683 
z
" transform="scale(0.015625)"/>
       <path id="HelveticaNeue-61" d="M 3341 13 
Q 3200 -70 2950 -70 
Q 2739 -70 2614 48 
Q 2490 166 2490 435 
Q 2266 166 1968 48 
Q 1670 -70 1325 -70 
Q 1101 -70 899 -19 
Q 698 32 550 141 
Q 403 250 316 426 
Q 230 602 230 851 
Q 230 1133 326 1312 
Q 422 1491 579 1603 
Q 736 1715 937 1772 
Q 1139 1830 1350 1869 
Q 1574 1914 1776 1936 
Q 1978 1958 2131 2000 
Q 2285 2042 2374 2122 
Q 2464 2202 2464 2355 
Q 2464 2534 2397 2643 
Q 2330 2752 2224 2809 
Q 2118 2867 1987 2886 
Q 1856 2906 1728 2906 
Q 1382 2906 1152 2774 
Q 922 2643 902 2278 
L 358 2278 
Q 371 2586 486 2797 
Q 602 3008 794 3139 
Q 986 3270 1232 3328 
Q 1478 3386 1760 3386 
Q 1984 3386 2205 3354 
Q 2426 3322 2605 3222 
Q 2784 3123 2893 2944 
Q 3002 2765 3002 2477 
L 3002 774 
Q 3002 582 3024 492 
Q 3046 403 3174 403 
Q 3245 403 3341 435 
L 3341 13 
z
M 2458 1709 
Q 2355 1632 2188 1597 
Q 2022 1562 1840 1539 
Q 1658 1517 1472 1488 
Q 1286 1459 1139 1395 
Q 992 1331 899 1212 
Q 806 1094 806 890 
Q 806 755 860 662 
Q 915 570 1001 512 
Q 1088 454 1203 428 
Q 1318 403 1446 403 
Q 1715 403 1907 476 
Q 2099 550 2220 662 
Q 2342 774 2400 905 
Q 2458 1037 2458 1152 
L 2458 1709 
z
" transform="scale(0.015625)"/>
       <path id="HelveticaNeue-6c" d="M 442 4570 
L 442 0 
L 986 0 
L 986 4570 
L 442 4570 
z
" transform="scale(0.015625)"/>
       <path id="HelveticaNeue-79" d="M 1709 -442 
Q 1613 -685 1520 -851 
Q 1427 -1018 1315 -1123 
Q 1203 -1229 1065 -1277 
Q 928 -1325 749 -1325 
Q 653 -1325 557 -1312 
Q 461 -1299 371 -1267 
L 371 -768 
Q 442 -800 534 -822 
Q 627 -845 691 -845 
Q 858 -845 970 -765 
Q 1082 -685 1139 -538 
L 1363 19 
L 51 3309 
L 666 3309 
L 1632 602 
L 1645 602 
L 2573 3309 
L 3149 3309 
L 1709 -442 
z
" transform="scale(0.015625)"/>
       <path id="HelveticaNeue-44" d="M 1107 512 
L 1107 4058 
L 2131 4058 
Q 2554 4058 2842 3939 
Q 3130 3821 3312 3593 
Q 3494 3366 3574 3043 
Q 3654 2720 3654 2310 
Q 3654 1888 3568 1590 
Q 3482 1293 3347 1094 
Q 3213 896 3043 781 
Q 2874 666 2701 605 
Q 2528 544 2374 528 
Q 2221 512 2118 512 
L 1107 512 
z
M 499 4570 
L 499 0 
L 2067 0 
Q 2637 0 3053 160 
Q 3469 320 3737 624 
Q 4006 928 4134 1373 
Q 4262 1818 4262 2394 
Q 4262 3494 3692 4032 
Q 3123 4570 2067 4570 
L 499 4570 
z
" transform="scale(0.015625)"/>
       <path id="HelveticaNeue-6e" d="M 410 3309 
L 410 0 
L 954 0 
L 954 1869 
Q 954 2093 1014 2281 
Q 1075 2470 1196 2611 
Q 1318 2752 1500 2829 
Q 1683 2906 1933 2906 
Q 2246 2906 2425 2726 
Q 2605 2547 2605 2240 
L 2605 0 
L 3149 0 
L 3149 2176 
Q 3149 2445 3094 2665 
Q 3040 2886 2905 3046 
Q 2771 3206 2553 3296 
Q 2336 3386 2010 3386 
Q 1274 3386 934 2784 
L 922 2784 
L 922 3309 
L 410 3309 
z
" transform="scale(0.015625)"/>
      </defs>
      <use xlink:href="#HelveticaNeue-50"/>
      <use xlink:href="#HelveticaNeue-72" transform="translate(64.799988 0)"/>
      <use xlink:href="#HelveticaNeue-6f" transform="translate(96.349976 0)"/>
      <use xlink:href="#HelveticaNeue-62" transform="translate(153.749969 0)"/>
      <use xlink:href="#HelveticaNeue-61" transform="translate(213.049957 0)"/>
      <use xlink:href="#HelveticaNeue-62" transform="translate(266.749954 0)"/>
      <use xlink:href="#HelveticaNeue-69" transform="translate(326.049942 0)"/>
      <use xlink:href="#HelveticaNeue-6c" transform="translate(348.249939 0)"/>
      <use xlink:href="#HelveticaNeue-69" transform="translate(370.449936 0)"/>
      <use xlink:href="#HelveticaNeue-74" transform="translate(392.649933 0)"/>
      <use xlink:href="#HelveticaNeue-79" transform="translate(424.149918 0)"/>
      <use xlink:href="#HelveticaNeue-20" transform="translate(474.149902 0)"/>
      <use xlink:href="#HelveticaNeue-44" transform="translate(501.94989 0)"/>
      <use xlink:href="#HelveticaNeue-65" transform="translate(572.349884 0)"/>
      <use xlink:href="#HelveticaNeue-6e" transform="translate(626.049881 0)"/>
      <use xlink:href="#HelveticaNeue-73" transform="translate(681.649872 0)"/>
      <use xlink:href="#HelveticaNeue-69" transform="translate(731.649857 0)"/>
      <use xlink:href="#HelveticaNeue-74" transform="translate(753.849854 0)"/>
      <use xlink:href="#HelveticaNeue-79" transform="translate(785.349838 0)"/>
     </g>
    </g>
   </g>
   <g id="text_16">
    <!-- Redshift Distributions of BBH and Lens Populations -->
    <g transform="translate(160.827294 15.864375) scale(0.12 -0.12)">
     <defs>
      <path id="HelveticaNeue-75" d="M 3149 0 
L 3149 3309 
L 2605 3309 
L 2605 1440 
Q 2605 1216 2544 1027 
Q 2483 838 2361 697 
Q 2240 557 2057 480 
Q 1875 403 1626 403 
Q 1312 403 1133 582 
Q 954 762 954 1069 
L 954 3309 
L 410 3309 
L 410 1133 
Q 410 864 464 643 
Q 518 422 652 262 
Q 787 102 1004 16 
Q 1222 -70 1549 -70 
Q 1914 -70 2182 74 
Q 2451 218 2624 525 
L 2637 525 
L 2637 0 
L 3149 0 
z
" transform="scale(0.015625)"/>
      <path id="HelveticaNeue-42" d="M 1107 2605 
L 1107 4058 
L 2323 4058 
Q 2522 4058 2698 4035 
Q 2874 4013 3008 3936 
Q 3142 3859 3219 3718 
Q 3296 3578 3296 3334 
Q 3296 2970 3069 2787 
Q 2842 2605 2323 2605 
L 1107 2605 
z
M 499 4570 
L 499 0 
L 2707 0 
Q 3046 0 3305 112 
Q 3565 224 3741 406 
Q 3917 589 4006 825 
Q 4096 1062 4096 1312 
Q 4096 1734 3872 2028 
Q 3648 2323 3226 2413 
L 3226 2426 
Q 3552 2554 3728 2819 
Q 3904 3085 3904 3450 
Q 3904 3795 3747 4032 
Q 3590 4269 3366 4403 
Q 3264 4467 3120 4499 
Q 2976 4531 2809 4547 
Q 2643 4563 2473 4566 
Q 2304 4570 2157 4570 
L 499 4570 
z
M 1107 512 
L 1107 2093 
L 2496 2093 
Q 2688 2093 2867 2057 
Q 3046 2022 3184 1936 
Q 3322 1850 3405 1702 
Q 3488 1555 3488 1331 
Q 3488 947 3261 729 
Q 3034 512 2630 512 
L 1107 512 
z
" transform="scale(0.015625)"/>
      <path id="HelveticaNeue-48" d="M 499 4570 
L 499 0 
L 1107 0 
L 1107 2093 
L 3514 2093 
L 3514 0 
L 4122 0 
L 4122 4570 
L 3514 4570 
L 3514 2605 
L 1107 2605 
L 1107 4570 
L 499 4570 
z
" transform="scale(0.015625)"/>
      <path id="HelveticaNeue-4c" d="M 499 4570 
L 499 0 
L 3526 0 
L 3526 512 
L 1107 512 
L 1107 4570 
L 499 4570 
z
" transform="scale(0.015625)"/>
      <path id="HelveticaNeue-70" d="M 429 3309 
L 429 -1261 
L 973 -1261 
L 973 442 
L 986 442 
Q 1075 294 1206 195 
Q 1338 96 1485 38 
Q 1632 -19 1782 -44 
Q 1933 -70 2054 -70 
Q 2432 -70 2717 64 
Q 3002 198 3190 432 
Q 3379 666 3472 979 
Q 3565 1293 3565 1645 
Q 3565 1997 3469 2310 
Q 3373 2624 3184 2864 
Q 2995 3104 2710 3245 
Q 2426 3386 2042 3386 
Q 1696 3386 1408 3261 
Q 1120 3136 986 2861 
L 973 2861 
L 973 3309 
L 429 3309 
z
M 2989 1683 
Q 2989 1440 2937 1209 
Q 2886 979 2771 800 
Q 2656 621 2467 512 
Q 2278 403 1997 403 
Q 1715 403 1516 508 
Q 1318 614 1193 787 
Q 1069 960 1011 1187 
Q 954 1414 954 1658 
Q 954 1888 1008 2112 
Q 1062 2336 1184 2512 
Q 1306 2688 1498 2797 
Q 1690 2906 1965 2906 
Q 2227 2906 2422 2803 
Q 2618 2701 2742 2528 
Q 2867 2355 2928 2134 
Q 2989 1914 2989 1683 
z
" transform="scale(0.015625)"/>
     </defs>
     <use xlink:href="#HelveticaNeue-52"/>
     <use xlink:href="#HelveticaNeue-65" transform="translate(68.499985 0)"/>
     <use xlink:href="#HelveticaNeue-64" transform="translate(122.199982 0)"/>
     <use xlink:href="#HelveticaNeue-73" transform="translate(181.499969 0)"/>
     <use xlink:href="#HelveticaNeue-68" transform="translate(231.499954 0)"/>
     <use xlink:href="#HelveticaNeue-69" transform="translate(287.099945 0)"/>
     <use xlink:href="#HelveticaNeue-66" transform="translate(309.299942 0)"/>
     <use xlink:href="#HelveticaNeue-74" transform="translate(338.899933 0)"/>
     <use xlink:href="#HelveticaNeue-20" transform="translate(370.399918 0)"/>
     <use xlink:href="#HelveticaNeue-44" transform="translate(398.199905 0)"/>
     <use xlink:href="#HelveticaNeue-69" transform="translate(468.599899 0)"/>
     <use xlink:href="#HelveticaNeue-73" transform="translate(490.799896 0)"/>
     <use xlink:href="#HelveticaNeue-74" transform="translate(540.799881 0)"/>
     <use xlink:href="#HelveticaNeue-72" transform="translate(572.299866 0)"/>
     <use xlink:href="#HelveticaNeue-69" transform="translate(605.599854 0)"/>
     <use xlink:href="#HelveticaNeue-62" transform="translate(627.79985 0)"/>
     <use xlink:href="#HelveticaNeue-75" transform="translate(687.099838 0)"/>
     <use xlink:href="#HelveticaNeue-74" transform="translate(742.699829 0)"/>
     <use xlink:href="#HelveticaNeue-69" transform="translate(774.199814 0)"/>
     <use xlink:href="#HelveticaNeue-6f" transform="translate(796.399811 0)"/>
     <use xlink:href="#HelveticaNeue-6e" transform="translate(853.799805 0)"/>
     <use xlink:href="#HelveticaNeue-73" transform="translate(909.399796 0)"/>
     <use xlink:href="#HelveticaNeue-20" transform="translate(959.39978 0)"/>
     <use xlink:href="#HelveticaNeue-6f" transform="translate(987.199768 0)"/>
     <use xlink:href="#HelveticaNeue-66" transform="translate(1044.599762 0)"/>
     <use xlink:href="#HelveticaNeue-20" transform="translate(1074.199753 0)"/>
     <use xlink:href="#HelveticaNeue-42" transform="translate(1101.999741 0)"/>
     <use xlink:href="#HelveticaNeue-42" transform="translate(1170.499725 0)"/>
     <use xlink:href="#HelveticaNeue-48" transform="translate(1238.99971 0)"/>
     <use xlink:href="#HelveticaNeue-20" transform="translate(1311.199692 0)"/>
     <use xlink:href="#HelveticaNeue-61" transform="translate(1338.99968 0)"/>
     <use xlink:href="#HelveticaNeue-6e" transform="translate(1392.699677 0)"/>
     <use xlink:href="#HelveticaNeue-64" transform="translate(1448.299667 0)"/>
     <use xlink:href="#HelveticaNeue-20" transform="translate(1507.599655 0)"/>
     <use xlink:href="#HelveticaNeue-4c" transform="translate(1535.399643 0)"/>
     <use xlink:href="#HelveticaNeue-65" transform="translate(1590.999634 0)"/>
     <use xlink:href="#HelveticaNeue-6e" transform="translate(1644.699631 0)"/>
     <use xlink:href="#HelveticaNeue-73" transform="translate(1700.299622 0)"/>
     <use xlink:href="#HelveticaNeue-20" transform="translate(1750.299606 0)"/>
     <use xlink:href="#HelveticaNeue-50" transform="translate(1778.099594 0)"/>
     <use xlink:href="#HelveticaNeue-6f" transform="translate(1842.899582 0)"/>
     <use xlink:href="#HelveticaNeue-70" transform="translate(1900.299576 0)"/>
     <use xlink:href="#HelveticaNeue-75" transform="translate(1959.599564 0)"/>
     <use xlink:href="#HelveticaNeue-6c" transform="translate(2015.199554 0)"/>
     <use xlink:href="#HelveticaNeue-61" transform="translate(2037.399551 0)"/>
     <use xlink:href="#HelveticaNeue-74" transform="translate(2091.099548 0)"/>
     <use xlink:href="#HelveticaNeue-69" transform="translate(2122.599533 0)"/>
     <use xlink:href="#HelveticaNeue-6f" transform="translate(2144.79953 0)"/>
     <use xlink:href="#HelveticaNeue-6e" transform="translate(2202.199524 0)"/>
     <use xlink:href="#HelveticaNeue-73" transform="translate(2257.799515 0)"/>
    </g>
   </g>
   <g id="legend_1">
    <g id="patch_7">
     <path d="M 303.886931 128.800312 
L 545.574431 128.800312 
Q 547.574431 128.800312 547.574431 126.800312 
L 547.574431 28.864375 
Q 547.574431 26.864375 545.574431 26.864375 
L 303.886931 26.864375 
Q 301.886931 26.864375 301.886931 28.864375 
L 301.886931 126.800312 
Q 301.886931 128.800312 303.886931 128.800312 
z
" style="fill: #ffffff; opacity: 0.8; stroke: #d3d3d3; stroke-linejoin: miter"/>
    </g>
    <g id="line2d_75">
     <path d="M 308.886931 34.505 
L 322.886931 34.505 
" style="fill: none; stroke-dasharray: 5.55,2.4; stroke-dashoffset: 0; stroke: #616161; stroke-opacity: 0.8; stroke-width: 1.5"/>
    </g>
    <g id="text_17">
     <!-- Intrinsic BBH population -->
     <g transform="translate(333.886931 38.005) scale(0.1 -0.1)">
      <defs>
       <path id="HelveticaNeue-49" d="M 525 4570 
L 525 0 
L 1133 0 
L 1133 4570 
L 525 4570 
z
" transform="scale(0.015625)"/>
       <path id="HelveticaNeue-63" d="M 2656 2246 
L 3219 2246 
Q 3187 2541 3065 2755 
Q 2944 2970 2755 3110 
Q 2566 3251 2320 3318 
Q 2074 3386 1792 3386 
Q 1402 3386 1107 3248 
Q 813 3110 617 2870 
Q 422 2630 326 2307 
Q 230 1984 230 1613 
Q 230 1242 329 931 
Q 429 621 624 397 
Q 819 173 1110 51 
Q 1402 -70 1779 -70 
Q 2413 -70 2781 262 
Q 3149 595 3238 1210 
L 2682 1210 
Q 2630 826 2403 614 
Q 2176 403 1773 403 
Q 1517 403 1331 505 
Q 1146 608 1030 777 
Q 915 947 860 1164 
Q 806 1382 806 1613 
Q 806 1862 857 2096 
Q 909 2330 1027 2509 
Q 1146 2688 1344 2797 
Q 1542 2906 1837 2906 
Q 2182 2906 2387 2733 
Q 2592 2560 2656 2246 
z
" transform="scale(0.015625)"/>
      </defs>
      <use xlink:href="#HelveticaNeue-49"/>
      <use xlink:href="#HelveticaNeue-6e" transform="translate(25.899994 0)"/>
      <use xlink:href="#HelveticaNeue-74" transform="translate(81.499985 0)"/>
      <use xlink:href="#HelveticaNeue-72" transform="translate(112.999969 0)"/>
      <use xlink:href="#HelveticaNeue-69" transform="translate(146.299957 0)"/>
      <use xlink:href="#HelveticaNeue-6e" transform="translate(168.499954 0)"/>
      <use xlink:href="#HelveticaNeue-73" transform="translate(224.099945 0)"/>
      <use xlink:href="#HelveticaNeue-69" transform="translate(274.09993 0)"/>
      <use xlink:href="#HelveticaNeue-63" transform="translate(296.299927 0)"/>
      <use xlink:href="#HelveticaNeue-20" transform="translate(349.999924 0)"/>
      <use xlink:href="#HelveticaNeue-42" transform="translate(377.799911 0)"/>
      <use xlink:href="#HelveticaNeue-42" transform="translate(446.299896 0)"/>
      <use xlink:href="#HelveticaNeue-48" transform="translate(514.799881 0)"/>
      <use xlink:href="#HelveticaNeue-20" transform="translate(586.999863 0)"/>
      <use xlink:href="#HelveticaNeue-70" transform="translate(614.79985 0)"/>
      <use xlink:href="#HelveticaNeue-6f" transform="translate(674.099838 0)"/>
      <use xlink:href="#HelveticaNeue-70" transform="translate(731.499832 0)"/>
      <use xlink:href="#HelveticaNeue-75" transform="translate(790.79982 0)"/>
      <use xlink:href="#HelveticaNeue-6c" transform="translate(846.399811 0)"/>
      <use xlink:href="#HelveticaNeue-61" transform="translate(868.599808 0)"/>
      <use xlink:href="#HelveticaNeue-74" transform="translate(922.299805 0)"/>
      <use xlink:href="#HelveticaNeue-69" transform="translate(953.799789 0)"/>
      <use xlink:href="#HelveticaNeue-6f" transform="translate(975.999786 0)"/>
      <use xlink:href="#HelveticaNeue-6e" transform="translate(1033.39978 0)"/>
     </g>
    </g>
    <g id="line2d_76">
     <path d="M 308.886931 48.615937 
L 322.886931 48.615937 
" style="fill: none; stroke-dasharray: 5.55,2.4; stroke-dashoffset: 0; stroke: #8d6e63; stroke-opacity: 0.8; stroke-width: 1.5"/>
    </g>
    <g id="text_18">
     <!-- Intrinsic Lens population -->
     <g transform="translate(333.886931 52.115937) scale(0.1 -0.1)">
      <use xlink:href="#HelveticaNeue-49"/>
      <use xlink:href="#HelveticaNeue-6e" transform="translate(25.899994 0)"/>
      <use xlink:href="#HelveticaNeue-74" transform="translate(81.499985 0)"/>
      <use xlink:href="#HelveticaNeue-72" transform="translate(112.999969 0)"/>
      <use xlink:href="#HelveticaNeue-69" transform="translate(146.299957 0)"/>
      <use xlink:href="#HelveticaNeue-6e" transform="translate(168.499954 0)"/>
      <use xlink:href="#HelveticaNeue-73" transform="translate(224.099945 0)"/>
      <use xlink:href="#HelveticaNeue-69" transform="translate(274.09993 0)"/>
      <use xlink:href="#HelveticaNeue-63" transform="translate(296.299927 0)"/>
      <use xlink:href="#HelveticaNeue-20" transform="translate(349.999924 0)"/>
      <use xlink:href="#HelveticaNeue-4c" transform="translate(377.799911 0)"/>
      <use xlink:href="#HelveticaNeue-65" transform="translate(433.399902 0)"/>
      <use xlink:href="#HelveticaNeue-6e" transform="translate(487.099899 0)"/>
      <use xlink:href="#HelveticaNeue-73" transform="translate(542.69989 0)"/>
      <use xlink:href="#HelveticaNeue-20" transform="translate(592.699875 0)"/>
      <use xlink:href="#HelveticaNeue-70" transform="translate(620.499863 0)"/>
      <use xlink:href="#HelveticaNeue-6f" transform="translate(679.79985 0)"/>
      <use xlink:href="#HelveticaNeue-70" transform="translate(737.199844 0)"/>
      <use xlink:href="#HelveticaNeue-75" transform="translate(796.499832 0)"/>
      <use xlink:href="#HelveticaNeue-6c" transform="translate(852.099823 0)"/>
      <use xlink:href="#HelveticaNeue-61" transform="translate(874.29982 0)"/>
      <use xlink:href="#HelveticaNeue-74" transform="translate(927.999817 0)"/>
      <use xlink:href="#HelveticaNeue-69" transform="translate(959.499802 0)"/>
      <use xlink:href="#HelveticaNeue-6f" transform="translate(981.699799 0)"/>
      <use xlink:href="#HelveticaNeue-6e" transform="translate(1039.099792 0)"/>
     </g>
    </g>
    <g id="line2d_77">
     <path d="M 308.886931 62.726875 
L 322.886931 62.726875 
" style="fill: none; stroke: #000000; stroke-opacity: 0.8; stroke-width: 1.5; stroke-linecap: square"/>
    </g>
    <g id="text_19">
     <!-- Detected Unlensed BBH population -->
     <g transform="translate(333.886931 66.226875) scale(0.1 -0.1)">
      <defs>
       <path id="HelveticaNeue-55" d="M 4147 1651 
L 4147 4570 
L 3539 4570 
L 3539 1651 
Q 3539 1037 3235 720 
Q 2931 403 2349 403 
Q 1734 403 1408 720 
Q 1082 1037 1082 1651 
L 1082 4570 
L 474 4570 
L 474 1651 
Q 474 736 970 317 
Q 1466 -102 2349 -102 
Q 3213 -102 3680 336 
Q 4147 774 4147 1651 
z
" transform="scale(0.015625)"/>
      </defs>
      <use xlink:href="#HelveticaNeue-44"/>
      <use xlink:href="#HelveticaNeue-65" transform="translate(70.399994 0)"/>
      <use xlink:href="#HelveticaNeue-74" transform="translate(124.099991 0)"/>
      <use xlink:href="#HelveticaNeue-65" transform="translate(155.599976 0)"/>
      <use xlink:href="#HelveticaNeue-63" transform="translate(209.299973 0)"/>
      <use xlink:href="#HelveticaNeue-74" transform="translate(262.999969 0)"/>
      <use xlink:href="#HelveticaNeue-65" transform="translate(294.499954 0)"/>
      <use xlink:href="#HelveticaNeue-64" transform="translate(348.199951 0)"/>
      <use xlink:href="#HelveticaNeue-20" transform="translate(407.499939 0)"/>
      <use xlink:href="#HelveticaNeue-55" transform="translate(435.299927 0)"/>
      <use xlink:href="#HelveticaNeue-6e" transform="translate(507.499908 0)"/>
      <use xlink:href="#HelveticaNeue-6c" transform="translate(563.099899 0)"/>
      <use xlink:href="#HelveticaNeue-65" transform="translate(585.299896 0)"/>
      <use xlink:href="#HelveticaNeue-6e" transform="translate(638.999893 0)"/>
      <use xlink:href="#HelveticaNeue-73" transform="translate(694.599884 0)"/>
      <use xlink:href="#HelveticaNeue-65" transform="translate(744.599869 0)"/>
      <use xlink:href="#HelveticaNeue-64" transform="translate(798.299866 0)"/>
      <use xlink:href="#HelveticaNeue-20" transform="translate(857.599854 0)"/>
      <use xlink:href="#HelveticaNeue-42" transform="translate(885.399841 0)"/>
      <use xlink:href="#HelveticaNeue-42" transform="translate(953.899826 0)"/>
      <use xlink:href="#HelveticaNeue-48" transform="translate(1022.399811 0)"/>
      <use xlink:href="#HelveticaNeue-20" transform="translate(1094.599792 0)"/>
      <use xlink:href="#HelveticaNeue-70" transform="translate(1122.39978 0)"/>
      <use xlink:href="#HelveticaNeue-6f" transform="translate(1181.699768 0)"/>
      <use xlink:href="#HelveticaNeue-70" transform="translate(1239.099762 0)"/>
      <use xlink:href="#HelveticaNeue-75" transform="translate(1298.39975 0)"/>
      <use xlink:href="#HelveticaNeue-6c" transform="translate(1353.999741 0)"/>
      <use xlink:href="#HelveticaNeue-61" transform="translate(1376.199738 0)"/>
      <use xlink:href="#HelveticaNeue-74" transform="translate(1429.899734 0)"/>
      <use xlink:href="#HelveticaNeue-69" transform="translate(1461.399719 0)"/>
      <use xlink:href="#HelveticaNeue-6f" transform="translate(1483.599716 0)"/>
      <use xlink:href="#HelveticaNeue-6e" transform="translate(1540.99971 0)"/>
     </g>
    </g>
    <g id="line2d_78">
     <path d="M 308.886931 76.837812 
L 322.886931 76.837812 
" style="fill: none; stroke: #e53935; stroke-opacity: 0.8; stroke-width: 1.5; stroke-linecap: square"/>
    </g>
    <g id="text_20">
     <!-- Detected Lensed BBH population -->
     <g transform="translate(333.886931 80.337812) scale(0.1 -0.1)">
      <use xlink:href="#HelveticaNeue-44"/>
      <use xlink:href="#HelveticaNeue-65" transform="translate(70.399994 0)"/>
      <use xlink:href="#HelveticaNeue-74" transform="translate(124.099991 0)"/>
      <use xlink:href="#HelveticaNeue-65" transform="translate(155.599976 0)"/>
      <use xlink:href="#HelveticaNeue-63" transform="translate(209.299973 0)"/>
      <use xlink:href="#HelveticaNeue-74" transform="translate(262.999969 0)"/>
      <use xlink:href="#HelveticaNeue-65" transform="translate(294.499954 0)"/>
      <use xlink:href="#HelveticaNeue-64" transform="translate(348.199951 0)"/>
      <use xlink:href="#HelveticaNeue-20" transform="translate(407.499939 0)"/>
      <use xlink:href="#HelveticaNeue-4c" transform="translate(435.299927 0)"/>
      <use xlink:href="#HelveticaNeue-65" transform="translate(490.899918 0)"/>
      <use xlink:href="#HelveticaNeue-6e" transform="translate(544.599915 0)"/>
      <use xlink:href="#HelveticaNeue-73" transform="translate(600.199905 0)"/>
      <use xlink:href="#HelveticaNeue-65" transform="translate(650.19989 0)"/>
      <use xlink:href="#HelveticaNeue-64" transform="translate(703.899887 0)"/>
      <use xlink:href="#HelveticaNeue-20" transform="translate(763.199875 0)"/>
      <use xlink:href="#HelveticaNeue-42" transform="translate(790.999863 0)"/>
      <use xlink:href="#HelveticaNeue-42" transform="translate(859.499847 0)"/>
      <use xlink:href="#HelveticaNeue-48" transform="translate(927.999832 0)"/>
      <use xlink:href="#HelveticaNeue-20" transform="translate(1000.199814 0)"/>
      <use xlink:href="#HelveticaNeue-70" transform="translate(1027.999802 0)"/>
      <use xlink:href="#HelveticaNeue-6f" transform="translate(1087.299789 0)"/>
      <use xlink:href="#HelveticaNeue-70" transform="translate(1144.699783 0)"/>
      <use xlink:href="#HelveticaNeue-75" transform="translate(1203.999771 0)"/>
      <use xlink:href="#HelveticaNeue-6c" transform="translate(1259.599762 0)"/>
      <use xlink:href="#HelveticaNeue-61" transform="translate(1281.799759 0)"/>
      <use xlink:href="#HelveticaNeue-74" transform="translate(1335.499756 0)"/>
      <use xlink:href="#HelveticaNeue-69" transform="translate(1366.999741 0)"/>
      <use xlink:href="#HelveticaNeue-6f" transform="translate(1389.199738 0)"/>
      <use xlink:href="#HelveticaNeue-6e" transform="translate(1446.599731 0)"/>
     </g>
    </g>
    <g id="line2d_79">
     <path d="M 308.886931 90.94875 
L 322.886931 90.94875 
" style="fill: none; stroke: #7e57c2; stroke-opacity: 0.8; stroke-width: 1.5; stroke-linecap: square"/>
    </g>
    <g id="text_21">
     <!-- Lenses associated with detectable events -->
     <g transform="translate(333.886931 94.44875) scale(0.1 -0.1)">
      <defs>
       <path id="HelveticaNeue-77" d="M 3686 0 
L 4742 3309 
L 4179 3309 
L 3437 602 
L 3424 602 
L 2733 3309 
L 2138 3309 
L 1472 602 
L 1459 602 
L 710 3309 
L 109 3309 
L 1171 0 
L 1760 0 
L 2426 2630 
L 2438 2630 
L 3110 0 
L 3686 0 
z
" transform="scale(0.015625)"/>
       <path id="HelveticaNeue-76" d="M 1901 0 
L 3110 3309 
L 2541 3309 
L 1638 550 
L 1626 550 
L 698 3309 
L 90 3309 
L 1318 0 
L 1901 0 
z
" transform="scale(0.015625)"/>
      </defs>
      <use xlink:href="#HelveticaNeue-4c"/>
      <use xlink:href="#HelveticaNeue-65" transform="translate(55.599991 0)"/>
      <use xlink:href="#HelveticaNeue-6e" transform="translate(109.299988 0)"/>
      <use xlink:href="#HelveticaNeue-73" transform="translate(164.899979 0)"/>
      <use xlink:href="#HelveticaNeue-65" transform="translate(214.899963 0)"/>
      <use xlink:href="#HelveticaNeue-73" transform="translate(268.59996 0)"/>
      <use xlink:href="#HelveticaNeue-20" transform="translate(318.599945 0)"/>
      <use xlink:href="#HelveticaNeue-61" transform="translate(346.399933 0)"/>
      <use xlink:href="#HelveticaNeue-73" transform="translate(400.09993 0)"/>
      <use xlink:href="#HelveticaNeue-73" transform="translate(450.099915 0)"/>
      <use xlink:href="#HelveticaNeue-6f" transform="translate(500.099899 0)"/>
      <use xlink:href="#HelveticaNeue-63" transform="translate(557.499893 0)"/>
      <use xlink:href="#HelveticaNeue-69" transform="translate(611.19989 0)"/>
      <use xlink:href="#HelveticaNeue-61" transform="translate(633.399887 0)"/>
      <use xlink:href="#HelveticaNeue-74" transform="translate(687.099884 0)"/>
      <use xlink:href="#HelveticaNeue-65" transform="translate(718.599869 0)"/>
      <use xlink:href="#HelveticaNeue-64" transform="translate(772.299866 0)"/>
      <use xlink:href="#HelveticaNeue-20" transform="translate(831.599854 0)"/>
      <use xlink:href="#HelveticaNeue-77" transform="translate(859.399841 0)"/>
      <use xlink:href="#HelveticaNeue-69" transform="translate(935.199829 0)"/>
      <use xlink:href="#HelveticaNeue-74" transform="translate(957.399826 0)"/>
      <use xlink:href="#HelveticaNeue-68" transform="translate(988.899811 0)"/>
      <use xlink:href="#HelveticaNeue-20" transform="translate(1044.499802 0)"/>
      <use xlink:href="#HelveticaNeue-64" transform="translate(1072.299789 0)"/>
      <use xlink:href="#HelveticaNeue-65" transform="translate(1131.599777 0)"/>
      <use xlink:href="#HelveticaNeue-74" transform="translate(1185.299774 0)"/>
      <use xlink:href="#HelveticaNeue-65" transform="translate(1216.799759 0)"/>
      <use xlink:href="#HelveticaNeue-63" transform="translate(1270.499756 0)"/>
      <use xlink:href="#HelveticaNeue-74" transform="translate(1324.199753 0)"/>
      <use xlink:href="#HelveticaNeue-61" transform="translate(1355.699738 0)"/>
      <use xlink:href="#HelveticaNeue-62" transform="translate(1409.399734 0)"/>
      <use xlink:href="#HelveticaNeue-6c" transform="translate(1468.699722 0)"/>
      <use xlink:href="#HelveticaNeue-65" transform="translate(1490.899719 0)"/>
      <use xlink:href="#HelveticaNeue-20" transform="translate(1544.599716 0)"/>
      <use xlink:href="#HelveticaNeue-65" transform="translate(1572.399704 0)"/>
      <use xlink:href="#HelveticaNeue-76" transform="translate(1626.099701 0)"/>
      <use xlink:href="#HelveticaNeue-65" transform="translate(1676.099686 0)"/>
      <use xlink:href="#HelveticaNeue-6e" transform="translate(1729.799683 0)"/>
      <use xlink:href="#HelveticaNeue-74" transform="translate(1785.399673 0)"/>
      <use xlink:href="#HelveticaNeue-73" transform="translate(1816.899658 0)"/>
     </g>
    </g>
    <g id="line2d_80">
     <path d="M 308.886931 105.139375 
L 322.886931 105.139375 
" style="fill: none; stroke-dasharray: 1.5,2.475; stroke-dashoffset: 0; stroke: #e53935; stroke-opacity: 0.8; stroke-width: 1.5"/>
    </g>
    <g id="text_22">
     <!-- Example detected lensed event source redshift -->
     <g transform="translate(333.886931 108.639375) scale(0.1 -0.1)">
      <defs>
       <path id="HelveticaNeue-45" d="M 499 4570 
L 499 0 
L 3674 0 
L 3674 512 
L 1107 512 
L 1107 2093 
L 3482 2093 
L 3482 2605 
L 1107 2605 
L 1107 4058 
L 3654 4058 
L 3654 4570 
L 499 4570 
z
" transform="scale(0.015625)"/>
       <path id="HelveticaNeue-78" d="M 1299 1741 
L 58 0 
L 717 0 
L 1638 1370 
L 2560 0 
L 3258 0 
L 1978 1786 
L 3117 3309 
L 2464 3309 
L 1638 2150 
L 845 3309 
L 147 3309 
L 1299 1741 
z
" transform="scale(0.015625)"/>
       <path id="HelveticaNeue-6d" d="M 410 3309 
L 410 0 
L 954 0 
L 954 2061 
Q 954 2157 1002 2301 
Q 1050 2445 1155 2579 
Q 1261 2714 1430 2810 
Q 1600 2906 1837 2906 
Q 2022 2906 2140 2851 
Q 2259 2797 2329 2697 
Q 2400 2598 2429 2464 
Q 2458 2330 2458 2170 
L 2458 0 
L 3002 0 
L 3002 2061 
Q 3002 2445 3232 2675 
Q 3462 2906 3866 2906 
Q 4064 2906 4189 2848 
Q 4314 2790 4384 2691 
Q 4454 2592 4480 2457 
Q 4506 2323 4506 2170 
L 4506 0 
L 5050 0 
L 5050 2426 
Q 5050 2682 4970 2864 
Q 4890 3046 4746 3161 
Q 4602 3277 4400 3331 
Q 4198 3386 3949 3386 
Q 3622 3386 3350 3238 
Q 3078 3091 2912 2822 
Q 2810 3130 2560 3258 
Q 2310 3386 2003 3386 
Q 1306 3386 934 2822 
L 922 2822 
L 922 3309 
L 410 3309 
z
" transform="scale(0.015625)"/>
      </defs>
      <use xlink:href="#HelveticaNeue-45"/>
      <use xlink:href="#HelveticaNeue-78" transform="translate(61.099991 0)"/>
      <use xlink:href="#HelveticaNeue-61" transform="translate(112.899979 0)"/>
      <use xlink:href="#HelveticaNeue-6d" transform="translate(166.599976 0)"/>
      <use xlink:href="#HelveticaNeue-70" transform="translate(251.899963 0)"/>
      <use xlink:href="#HelveticaNeue-6c" transform="translate(311.199951 0)"/>
      <use xlink:href="#HelveticaNeue-65" transform="translate(333.399948 0)"/>
      <use xlink:href="#HelveticaNeue-20" transform="translate(387.099945 0)"/>
      <use xlink:href="#HelveticaNeue-64" transform="translate(414.899933 0)"/>
      <use xlink:href="#HelveticaNeue-65" transform="translate(474.199921 0)"/>
      <use xlink:href="#HelveticaNeue-74" transform="translate(527.899918 0)"/>
      <use xlink:href="#HelveticaNeue-65" transform="translate(559.399902 0)"/>
      <use xlink:href="#HelveticaNeue-63" transform="translate(613.099899 0)"/>
      <use xlink:href="#HelveticaNeue-74" transform="translate(666.799896 0)"/>
      <use xlink:href="#HelveticaNeue-65" transform="translate(698.299881 0)"/>
      <use xlink:href="#HelveticaNeue-64" transform="translate(751.999878 0)"/>
      <use xlink:href="#HelveticaNeue-20" transform="translate(811.299866 0)"/>
      <use xlink:href="#HelveticaNeue-6c" transform="translate(839.099854 0)"/>
      <use xlink:href="#HelveticaNeue-65" transform="translate(861.29985 0)"/>
      <use xlink:href="#HelveticaNeue-6e" transform="translate(914.999847 0)"/>
      <use xlink:href="#HelveticaNeue-73" transform="translate(970.599838 0)"/>
      <use xlink:href="#HelveticaNeue-65" transform="translate(1020.599823 0)"/>
      <use xlink:href="#HelveticaNeue-64" transform="translate(1074.29982 0)"/>
      <use xlink:href="#HelveticaNeue-20" transform="translate(1133.599808 0)"/>
      <use xlink:href="#HelveticaNeue-65" transform="translate(1161.399796 0)"/>
      <use xlink:href="#HelveticaNeue-76" transform="translate(1215.099792 0)"/>
      <use xlink:href="#HelveticaNeue-65" transform="translate(1265.099777 0)"/>
      <use xlink:href="#HelveticaNeue-6e" transform="translate(1318.799774 0)"/>
      <use xlink:href="#HelveticaNeue-74" transform="translate(1374.399765 0)"/>
      <use xlink:href="#HelveticaNeue-20" transform="translate(1405.89975 0)"/>
      <use xlink:href="#HelveticaNeue-73" transform="translate(1433.699738 0)"/>
      <use xlink:href="#HelveticaNeue-6f" transform="translate(1483.699722 0)"/>
      <use xlink:href="#HelveticaNeue-75" transform="translate(1541.099716 0)"/>
      <use xlink:href="#HelveticaNeue-72" transform="translate(1596.699707 0)"/>
      <use xlink:href="#HelveticaNeue-63" transform="translate(1628.249695 0)"/>
      <use xlink:href="#HelveticaNeue-65" transform="translate(1681.949692 0)"/>
      <use xlink:href="#HelveticaNeue-20" transform="translate(1735.649689 0)"/>
      <use xlink:href="#HelveticaNeue-72" transform="translate(1763.449677 0)"/>
      <use xlink:href="#HelveticaNeue-65" transform="translate(1794.999664 0)"/>
      <use xlink:href="#HelveticaNeue-64" transform="translate(1848.699661 0)"/>
      <use xlink:href="#HelveticaNeue-73" transform="translate(1907.999649 0)"/>
      <use xlink:href="#HelveticaNeue-68" transform="translate(1957.999634 0)"/>
      <use xlink:href="#HelveticaNeue-69" transform="translate(2013.599625 0)"/>
      <use xlink:href="#HelveticaNeue-66" transform="translate(2035.799622 0)"/>
      <use xlink:href="#HelveticaNeue-74" transform="translate(2065.399612 0)"/>
     </g>
    </g>
    <g id="line2d_81">
     <path d="M 308.886931 119.33 
L 322.886931 119.33 
" style="fill: none; stroke-dasharray: 1.5,2.475; stroke-dashoffset: 0; stroke: #8d6e63; stroke-opacity: 0.8; stroke-width: 1.5"/>
    </g>
    <g id="text_23">
     <!-- Example detected lensed event lens redshift -->
     <g transform="translate(333.886931 122.83) scale(0.1 -0.1)">
      <use xlink:href="#HelveticaNeue-45"/>
      <use xlink:href="#HelveticaNeue-78" transform="translate(61.099991 0)"/>
      <use xlink:href="#HelveticaNeue-61" transform="translate(112.899979 0)"/>
      <use xlink:href="#HelveticaNeue-6d" transform="translate(166.599976 0)"/>
      <use xlink:href="#HelveticaNeue-70" transform="translate(251.899963 0)"/>
      <use xlink:href="#HelveticaNeue-6c" transform="translate(311.199951 0)"/>
      <use xlink:href="#HelveticaNeue-65" transform="translate(333.399948 0)"/>
      <use xlink:href="#HelveticaNeue-20" transform="translate(387.099945 0)"/>
      <use xlink:href="#HelveticaNeue-64" transform="translate(414.899933 0)"/>
      <use xlink:href="#HelveticaNeue-65" transform="translate(474.199921 0)"/>
      <use xlink:href="#HelveticaNeue-74" transform="translate(527.899918 0)"/>
      <use xlink:href="#HelveticaNeue-65" transform="translate(559.399902 0)"/>
      <use xlink:href="#HelveticaNeue-63" transform="translate(613.099899 0)"/>
      <use xlink:href="#HelveticaNeue-74" transform="translate(666.799896 0)"/>
      <use xlink:href="#HelveticaNeue-65" transform="translate(698.299881 0)"/>
      <use xlink:href="#HelveticaNeue-64" transform="translate(751.999878 0)"/>
      <use xlink:href="#HelveticaNeue-20" transform="translate(811.299866 0)"/>
      <use xlink:href="#HelveticaNeue-6c" transform="translate(839.099854 0)"/>
      <use xlink:href="#HelveticaNeue-65" transform="translate(861.29985 0)"/>
      <use xlink:href="#HelveticaNeue-6e" transform="translate(914.999847 0)"/>
      <use xlink:href="#HelveticaNeue-73" transform="translate(970.599838 0)"/>
      <use xlink:href="#HelveticaNeue-65" transform="translate(1020.599823 0)"/>
      <use xlink:href="#HelveticaNeue-64" transform="translate(1074.29982 0)"/>
      <use xlink:href="#HelveticaNeue-20" transform="translate(1133.599808 0)"/>
      <use xlink:href="#HelveticaNeue-65" transform="translate(1161.399796 0)"/>
      <use xlink:href="#HelveticaNeue-76" transform="translate(1215.099792 0)"/>
      <use xlink:href="#HelveticaNeue-65" transform="translate(1265.099777 0)"/>
      <use xlink:href="#HelveticaNeue-6e" transform="translate(1318.799774 0)"/>
      <use xlink:href="#HelveticaNeue-74" transform="translate(1374.399765 0)"/>
      <use xlink:href="#HelveticaNeue-20" transform="translate(1405.89975 0)"/>
      <use xlink:href="#HelveticaNeue-6c" transform="translate(1433.699738 0)"/>
      <use xlink:href="#HelveticaNeue-65" transform="translate(1455.899734 0)"/>
      <use xlink:href="#HelveticaNeue-6e" transform="translate(1509.599731 0)"/>
      <use xlink:href="#HelveticaNeue-73" transform="translate(1565.199722 0)"/>
      <use xlink:href="#HelveticaNeue-20" transform="translate(1615.199707 0)"/>
      <use xlink:href="#HelveticaNeue-72" transform="translate(1642.999695 0)"/>
      <use xlink:href="#HelveticaNeue-65" transform="translate(1674.549683 0)"/>
      <use xlink:href="#HelveticaNeue-64" transform="translate(1728.24968 0)"/>
      <use xlink:href="#HelveticaNeue-73" transform="translate(1787.549667 0)"/>
      <use xlink:href="#HelveticaNeue-68" transform="translate(1837.549652 0)"/>
      <use xlink:href="#HelveticaNeue-69" transform="translate(1893.149643 0)"/>
      <use xlink:href="#HelveticaNeue-66" transform="translate(1915.34964 0)"/>
      <use xlink:href="#HelveticaNeue-74" transform="translate(1944.949631 0)"/>
     </g>
    </g>
   </g>
  </g>
 </g>
 <defs>
  <clipPath id="p875e53e0c5">
   <rect x="46.012031" y="21.864375" width="506.5624" height="213.12"/>
  </clipPath>
 </defs>
</svg>
