<?xml version="1.0" encoding="utf-8" standalone="no"?>
<!DOCTYPE svg PUBLIC "-//W3C//DTD SVG 1.1//EN"
  "http://www.w3.org/Graphics/SVG/1.1/DTD/svg11.dtd">
<svg xmlns:xlink="http://www.w3.org/1999/xlink" width="558.781306pt" height="260.504428pt" viewBox="0 0 558.781306 260.504428" xmlns="http://www.w3.org/2000/svg" version="1.1">
 <metadata>
  <rdf:RDF xmlns:dc="http://purl.org/dc/elements/1.1/" xmlns:cc="http://creativecommons.org/ns#" xmlns:rdf="http://www.w3.org/1999/02/22-rdf-syntax-ns#">
   <cc:Work>
    <dc:type rdf:resource="http://purl.org/dc/dcmitype/StillImage"/>
    <dc:date>2026-01-20T03:33:47.139350</dc:date>
    <dc:format>image/svg+xml</dc:format>
    <dc:creator>
     <cc:Agent>
      <dc:title>Matplotlib v3.10.3, https://matplotlib.org/</dc:title>
     </cc:Agent>
    </dc:creator>
   </cc:Work>
  </rdf:RDF>
 </metadata>
 <defs>
  <style type="text/css">*{stroke-linejoin: round; stroke-linecap: butt}</style>
 </defs>
 <g id="figure_1">
  <g id="patch_1">
   <path d="M 0 260.504428 
L 558.781306 260.504428 
L 558.781306 0 
L 0 0 
L 0 260.504428 
z
" style="fill: none"/>
  </g>
  <g id="axes_1">
   <g id="patch_2">
    <path d="M 56.44275 217.008553 
L 366.163436 217.008553 
L 366.163436 23.433125 
L 56.44275 23.433125 
L 56.44275 217.008553 
z
" style="fill: none"/>
   </g>
   <g id="patch_3">
    <path d="M 211.303093 184.745982 
C 234.11945 184.745982 256.00438 177.947206 272.137981 165.847005 
C 288.271582 153.746805 297.336617 137.333107 297.336617 120.220839 
C 297.336617 103.108571 288.271582 86.694874 272.137981 74.594673 
C 256.00438 62.494473 234.11945 55.695696 211.303093 55.695696 
C 188.486736 55.695696 166.601806 62.494473 150.468205 74.594673 
C 134.334604 86.694874 125.269569 103.108571 125.269569 120.220839 
C 125.269569 137.333107 134.334604 153.746805 150.468205 165.847005 
C 166.601806 177.947206 188.486736 184.745982 211.303093 184.745982 
L 211.303093 184.745982 
z
" clip-path="url(#p8667eeee46)" style="fill: none; stroke-dasharray: 1.5,2.475; stroke-dashoffset: 0; stroke: #616161; stroke-width: 1.5; stroke-linejoin: miter"/>
   </g>
   <g id="line2d_1">
    <path d="M 239.011194 83.24319 
L 243.064637 85.102279 
L 247.210485 87.245667 
L 250.546125 89.170243 
L 254.629764 91.805483 
L 258.134238 94.356243 
L 260.627731 96.366176 
L 263.190149 98.636272 
L 265.756434 101.16447 
L 268.249685 103.933315 
L 270.586601 106.907727 
L 272.687822 110.034692 
L 274.487642 113.246934 
L 275.942764 116.469462 
L 277.037356 119.627829 
L 277.782568 122.65609 
L 278.210892 125.502459 
L 278.369629 128.131878 
L 278.31166 130.525533 
L 278.090118 132.678526 
L 277.553169 135.470695 
L 276.885231 137.780754 
L 275.946125 140.216746 
L 274.67386 142.786616 
L 273.229764 145.140034 
L 271.638306 147.305337 
L 269.787362 149.44331 
L 267.676498 151.526813 
L 265.510238 153.372015 
L 263.318628 155.003736 
L 260.500466 156.824201 
L 258.206078 158.115628 
L 255.53502 159.437366 
L 252.458699 160.750731 
L 248.964635 162.007806 
L 245.063924 163.154221 
L 240.797661 164.134787 
L 236.239311 164.901013 
L 231.491024 165.418906 
L 226.6736 165.674896 
L 221.911968 165.677377 
L 217.32056 165.454842 
L 212.991605 165.048691 
L 207.123798 164.198383 
L 202.089939 163.194251 
L 196.662126 161.822561 
L 191.690077 160.292274 
L 186.877436 158.547133 
L 182.572292 156.750231 
L 178.558018 154.853952 
L 174.631975 152.771773 
L 171.108056 150.686459 
L 167.976421 148.636195 
L 164.471948 146.085435 
L 161.978455 144.075502 
L 159.416036 141.805407 
L 156.849751 139.277209 
L 154.356501 136.508363 
L 152.019584 133.533951 
L 149.918363 130.406986 
L 148.118544 127.194745 
L 146.663422 123.972217 
L 145.56883 120.813849 
L 144.823617 117.785588 
L 144.395294 114.939219 
L 144.236556 112.3098 
L 144.294526 109.916146 
L 144.516068 107.763152 
L 145.053016 104.970983 
L 145.720955 102.660924 
L 146.66006 100.224932 
L 147.932326 97.655063 
L 149.376422 95.301644 
L 150.96788 93.136341 
L 152.818823 90.998369 
L 154.929688 88.914866 
L 157.095947 87.069663 
L 159.287558 85.437943 
L 162.10572 83.617477 
L 164.400108 82.326051 
L 167.071166 81.004313 
L 170.147487 79.690948 
L 173.641551 78.433872 
L 177.542262 77.287457 
L 181.808525 76.306892 
L 186.366875 75.540665 
L 191.115161 75.022772 
L 195.932585 74.766783 
L 200.694218 74.764302 
L 205.285626 74.986836 
L 209.614581 75.392988 
L 215.482388 76.243296 
L 220.516247 77.247427 
L 225.94406 78.619117 
L 230.916109 80.149404 
L 235.72875 81.894545 
L 239.009378 83.242406 
L 239.009378 83.242406 
" clip-path="url(#p8667eeee46)" style="fill: none; stroke-dasharray: 5.55,2.4; stroke-dashoffset: 0; stroke: #8d6e63; stroke-width: 1.5"/>
   </g>
   <g id="line2d_2">
    <path d="M 236.795896 86.1996 
L 236.811756 86.179056 
L 236.123296 87.228061 
L 234.951288 89.359242 
L 233.80589 91.859291 
L 232.682872 94.84369 
L 231.705285 98.140115 
L 230.95198 101.590141 
L 230.462357 105.061293 
L 230.245155 108.450889 
L 230.287791 111.684519 
L 230.56437 114.711844 
L 231.041716 117.501612 
L 231.683506 120.036981 
L 232.61887 122.735207 
L 233.676273 125.060983 
L 234.797693 127.026969 
L 236.115433 128.891488 
L 237.538647 130.502262 
L 238.908504 131.72662 
L 240.192774 132.58997 
L 240.437587 132.712431 
L 239.834964 132.52194 
L 238.097753 132.180506 
L 235.733447 131.96486 
L 232.869116 131.953067 
L 229.753682 132.175427 
L 226.628465 132.602818 
L 223.093643 133.30292 
L 219.174638 134.324902 
L 215.648324 135.453448 
L 211.929561 136.852767 
L 208.078433 138.529079 
L 204.176317 140.471287 
L 200.328272 142.643541 
L 196.662649 144.977296 
L 193.325722 147.364837 
L 190.469196 149.657602 
L 187.865524 152.025933 
L 185.922359 154.102499 
L 185.794429 154.262622 
L 186.329981 153.461654 
L 187.436937 151.509391 
L 188.568296 149.126692 
L 189.70705 146.225253 
L 190.721418 142.977881 
L 191.523881 139.547047 
L 192.067782 136.07095 
L 192.339017 132.658235 
L 192.346603 129.388685 
L 192.114321 126.31706 
L 191.674277 123.478034 
L 191.062416 120.89099 
L 190.315646 118.564116 
L 189.292273 116.115193 
L 188.186005 114.031134 
L 186.86399 112.037646 
L 185.409536 110.293193 
L 183.974229 108.937938 
L 182.620881 107.969591 
L 182.168599 107.729248 
L 182.672026 107.892623 
L 184.29965 108.230349 
L 186.565949 108.460843 
L 189.338701 108.500502 
L 192.372348 108.314568 
L 195.427971 107.927654 
L 198.895812 107.276519 
L 202.753373 106.311389 
L 206.235617 105.235171 
L 209.920075 103.890942 
L 213.750513 102.269794 
L 217.65006 100.378805 
L 221.51848 98.248234 
L 225.231846 95.939481 
L 228.64672 93.552084 
L 231.611097 91.226669 
L 234.37633 88.768294 
L 236.459345 86.605498 
L 236.753547 86.253171 
L 236.753547 86.253171 
" clip-path="url(#p8667eeee46)" style="fill: none; stroke: #7e57c2; stroke-width: 1.5; stroke-linecap: square"/>
   </g>
   <g id="line2d_3">
    <defs>
     <path id="mbd59bd6e77" d="M -5 5 
L 5 -5 
M -5 -5 
L 5 5 
" style="stroke: #e53935"/>
    </defs>
    <g clip-path="url(#p8667eeee46)">
     <use xlink:href="#mbd59bd6e77" x="201.587704" y="141.641483" style="fill: #e53935; stroke: #e53935"/>
    </g>
   </g>
   <g id="line2d_4">
    <defs>
     <path id="m1b33c1ebf4" d="M 0 2.5 
C 0.663008 2.5 1.29895 2.236584 1.767767 1.767767 
C 2.236584 1.29895 2.5 0.663008 2.5 0 
C 2.5 -0.663008 2.236584 -1.29895 1.767767 -1.767767 
C 1.29895 -2.236584 0.663008 -2.5 0 -2.5 
C -0.663008 -2.5 -1.29895 -2.236584 -1.767767 -1.767767 
C -2.236584 -1.29895 -2.5 -0.663008 -2.5 0 
C -2.5 0.663008 -2.236584 1.29895 -1.767767 1.767767 
C -1.29895 2.236584 -0.663008 2.5 0 2.5 
z
" style="stroke: #1e88e5"/>
    </defs>
    <g clip-path="url(#p8667eeee46)">
     <use xlink:href="#m1b33c1ebf4" x="254.883939" y="196.973864" style="fill: #1e88e5; stroke: #1e88e5"/>
    </g>
   </g>
   <g id="line2d_5">
    <defs>
     <path id="mde5359016e" d="M 0 -7.5 
L -1.683855 -2.317627 
L -7.132924 -2.317627 
L -2.724534 0.885255 
L -4.408389 6.067627 
L -0 2.864745 
L 4.408389 6.067627 
L 2.724534 0.885255 
L 7.132924 -2.317627 
L 1.683855 -2.317627 
z
" style="stroke: #7e57c2; stroke-linejoin: bevel"/>
    </defs>
    <g clip-path="url(#p8667eeee46)">
     <use xlink:href="#mde5359016e" x="122.556786" y="158.061407" style="fill: #7e57c2; stroke: #7e57c2; stroke-linejoin: bevel"/>
    </g>
   </g>
   <g id="line2d_6">
    <defs>
     <path id="m02cfe69f93" d="M 0 -7.5 
L -1.683855 -2.317627 
L -7.132924 -2.317627 
L -2.724534 0.885255 
L -4.408389 6.067627 
L -0 2.864745 
L 4.408389 6.067627 
L 2.724534 0.885255 
L 7.132924 -2.317627 
L 1.683855 -2.317627 
z
" style="stroke: #8d6e63; stroke-linejoin: bevel"/>
    </defs>
    <g clip-path="url(#p8667eeee46)">
     <use xlink:href="#m02cfe69f93" x="133.349797" y="168.613974" style="fill: #8d6e63; stroke: #8d6e63; stroke-linejoin: bevel"/>
    </g>
   </g>
   <g id="line2d_7">
    <defs>
     <path id="m07b13f863d" d="M 0 2.5 
C 0.663008 2.5 1.29895 2.236584 1.767767 1.767767 
C 2.236584 1.29895 2.5 0.663008 2.5 0 
C 2.5 -0.663008 2.236584 -1.29895 1.767767 -1.767767 
C 1.29895 -2.236584 0.663008 -2.5 0 -2.5 
C -0.663008 -2.5 -1.29895 -2.236584 -1.767767 -1.767767 
C -2.236584 -1.29895 -2.5 -0.663008 -2.5 0 
C -2.5 0.663008 -2.236584 1.29895 -1.767767 1.767767 
C -1.29895 2.236584 -0.663008 2.5 0 2.5 
z
" style="stroke: #000000"/>
    </defs>
    <g clip-path="url(#p8667eeee46)">
     <use xlink:href="#m07b13f863d" x="228.491837" y="93.218271" style="stroke: #000000"/>
    </g>
   </g>
   <g id="patch_4">
    <path d="M 56.44275 217.008553 
L 56.44275 23.433125 
" style="fill: none; stroke: #808080; stroke-width: 0.8; stroke-linejoin: miter; stroke-linecap: square"/>
   </g>
   <g id="patch_5">
    <path d="M 366.163436 217.008553 
L 366.163436 23.433125 
" style="fill: none; stroke: #808080; stroke-width: 0.8; stroke-linejoin: miter; stroke-linecap: square"/>
   </g>
   <g id="patch_6">
    <path d="M 56.44275 217.008553 
L 366.163436 217.008553 
" style="fill: none; stroke: #808080; stroke-width: 0.8; stroke-linejoin: miter; stroke-linecap: square"/>
   </g>
   <g id="patch_7">
    <path d="M 56.44275 23.433125 
L 366.163436 23.433125 
" style="fill: none; stroke: #808080; stroke-width: 0.8; stroke-linejoin: miter; stroke-linecap: square"/>
   </g>
   <g id="matplotlib.axis_1">
    <g id="xtick_1">
     <g id="line2d_8">
      <path d="M 82.252807 217.008553 
L 82.252807 23.433125 
" clip-path="url(#p8667eeee46)" style="fill: none; stroke-dasharray: 2.22,0.96; stroke-dashoffset: 0; stroke: #b0b0b0; stroke-opacity: 0.4; stroke-width: 0.6"/>
     </g>
     <g id="line2d_9">
      <defs>
       <path id="m97832ea622" d="M 0 0 
L 0 3.5 
" style="stroke: #000000; stroke-width: 0.8"/>
      </defs>
      <g>
       <use xlink:href="#m97832ea622" x="82.252807" y="217.008553" style="stroke: #000000; stroke-width: 0.8"/>
      </g>
     </g>
     <g id="text_1">
      <!-- $\mathdefault{−1.5}$ -->
      <g transform="translate(70.312807 232.577303) scale(0.12 -0.12)">
       <defs>
        <path id="HelveticaNeue-2212" d="M 307 1837 
L 307 1402 
L 3533 1402 
L 3533 1837 
L 307 1837 
z
" transform="scale(0.015625)"/>
        <path id="HelveticaNeue-31" d="M 2278 0 
L 2278 4538 
L 1862 4538 
Q 1818 4282 1696 4115 
Q 1574 3949 1398 3853 
Q 1222 3757 1004 3721 
Q 787 3686 557 3686 
L 557 3251 
L 1734 3251 
L 1734 0 
L 2278 0 
z
" transform="scale(0.015625)"/>
        <path id="HelveticaNeue-2e" d="M 531 710 
L 531 0 
L 1242 0 
L 1242 710 
L 531 710 
z
" transform="scale(0.015625)"/>
        <path id="HelveticaNeue-35" d="M 3008 3981 
L 3008 4461 
L 768 4461 
L 346 2106 
L 813 2080 
Q 973 2272 1181 2390 
Q 1389 2509 1658 2509 
Q 1888 2509 2077 2432 
Q 2266 2355 2400 2217 
Q 2534 2080 2608 1891 
Q 2682 1702 2682 1478 
Q 2682 1210 2605 1008 
Q 2528 806 2397 672 
Q 2266 538 2090 470 
Q 1914 403 1722 403 
Q 1517 403 1347 464 
Q 1178 525 1053 637 
Q 928 749 854 899 
Q 781 1050 768 1222 
L 224 1222 
Q 230 915 345 672 
Q 461 429 659 265 
Q 858 102 1117 16 
Q 1376 -70 1670 -70 
Q 2067 -70 2364 54 
Q 2662 179 2860 390 
Q 3059 602 3158 874 
Q 3258 1146 3258 1434 
Q 3258 1824 3142 2115 
Q 3027 2406 2828 2601 
Q 2630 2797 2361 2893 
Q 2093 2989 1792 2989 
Q 1562 2989 1328 2909 
Q 1094 2829 947 2662 
L 934 2675 
L 1178 3981 
L 3008 3981 
z
" transform="scale(0.015625)"/>
       </defs>
       <use xlink:href="#HelveticaNeue-2212" transform="translate(0 0.09375)"/>
       <use xlink:href="#HelveticaNeue-31" transform="translate(59.999985 0.09375)"/>
       <use xlink:href="#HelveticaNeue-2e" transform="translate(115.599976 0.09375)"/>
       <use xlink:href="#HelveticaNeue-35" transform="translate(143.399963 0.09375)"/>
      </g>
     </g>
    </g>
    <g id="xtick_2">
     <g id="line2d_10">
      <path d="M 125.269569 217.008553 
L 125.269569 23.433125 
" clip-path="url(#p8667eeee46)" style="fill: none; stroke-dasharray: 2.22,0.96; stroke-dashoffset: 0; stroke: #b0b0b0; stroke-opacity: 0.4; stroke-width: 0.6"/>
     </g>
     <g id="line2d_11">
      <g>
       <use xlink:href="#m97832ea622" x="125.269569" y="217.008553" style="stroke: #000000; stroke-width: 0.8"/>
      </g>
     </g>
     <g id="text_2">
      <!-- $\mathdefault{−1.0}$ -->
      <g transform="translate(113.329569 232.577303) scale(0.12 -0.12)">
       <defs>
        <path id="HelveticaNeue-30" d="M 845 2234 
Q 845 2400 848 2601 
Q 851 2803 880 3004 
Q 909 3206 963 3398 
Q 1018 3590 1123 3734 
Q 1229 3878 1389 3968 
Q 1549 4058 1779 4058 
Q 2010 4058 2170 3968 
Q 2330 3878 2435 3734 
Q 2541 3590 2595 3398 
Q 2650 3206 2678 3004 
Q 2707 2803 2710 2601 
Q 2714 2400 2714 2234 
Q 2714 1978 2698 1661 
Q 2682 1344 2595 1065 
Q 2509 787 2317 595 
Q 2125 403 1779 403 
Q 1434 403 1242 595 
Q 1050 787 963 1065 
Q 877 1344 861 1661 
Q 845 1978 845 2234 
z
M 269 2227 
Q 269 1978 281 1709 
Q 294 1440 345 1184 
Q 397 928 493 701 
Q 589 474 755 301 
Q 922 128 1174 29 
Q 1427 -70 1779 -70 
Q 2138 -70 2387 29 
Q 2637 128 2803 301 
Q 2970 474 3066 701 
Q 3162 928 3213 1184 
Q 3264 1440 3277 1709 
Q 3290 1978 3290 2227 
Q 3290 2477 3277 2745 
Q 3264 3014 3213 3270 
Q 3162 3526 3066 3756 
Q 2970 3987 2803 4160 
Q 2637 4333 2384 4435 
Q 2131 4538 1779 4538 
Q 1427 4538 1174 4435 
Q 922 4333 755 4160 
Q 589 3987 493 3756 
Q 397 3526 345 3270 
Q 294 3014 281 2745 
Q 269 2477 269 2227 
z
" transform="scale(0.015625)"/>
       </defs>
       <use xlink:href="#HelveticaNeue-2212" transform="translate(0 0.09375)"/>
       <use xlink:href="#HelveticaNeue-31" transform="translate(59.999985 0.09375)"/>
       <use xlink:href="#HelveticaNeue-2e" transform="translate(115.599976 0.09375)"/>
       <use xlink:href="#HelveticaNeue-30" transform="translate(143.399963 0.09375)"/>
      </g>
     </g>
    </g>
    <g id="xtick_3">
     <g id="line2d_12">
      <path d="M 168.286331 217.008553 
L 168.286331 23.433125 
" clip-path="url(#p8667eeee46)" style="fill: none; stroke-dasharray: 2.22,0.96; stroke-dashoffset: 0; stroke: #b0b0b0; stroke-opacity: 0.4; stroke-width: 0.6"/>
     </g>
     <g id="line2d_13">
      <g>
       <use xlink:href="#m97832ea622" x="168.286331" y="217.008553" style="stroke: #000000; stroke-width: 0.8"/>
      </g>
     </g>
     <g id="text_3">
      <!-- $\mathdefault{−0.5}$ -->
      <g transform="translate(156.346331 232.577303) scale(0.12 -0.12)">
       <use xlink:href="#HelveticaNeue-2212" transform="translate(0 0.09375)"/>
       <use xlink:href="#HelveticaNeue-30" transform="translate(59.999985 0.09375)"/>
       <use xlink:href="#HelveticaNeue-2e" transform="translate(115.599976 0.09375)"/>
       <use xlink:href="#HelveticaNeue-35" transform="translate(143.399963 0.09375)"/>
      </g>
     </g>
    </g>
    <g id="xtick_4">
     <g id="line2d_14">
      <path d="M 211.303093 217.008553 
L 211.303093 23.433125 
" clip-path="url(#p8667eeee46)" style="fill: none; stroke-dasharray: 2.22,0.96; stroke-dashoffset: 0; stroke: #b0b0b0; stroke-opacity: 0.4; stroke-width: 0.6"/>
     </g>
     <g id="line2d_15">
      <g>
       <use xlink:href="#m97832ea622" x="211.303093" y="217.008553" style="stroke: #000000; stroke-width: 0.8"/>
      </g>
     </g>
     <g id="text_4">
      <!-- $\mathdefault{0.0}$ -->
      <g transform="translate(202.963093 232.577303) scale(0.12 -0.12)">
       <use xlink:href="#HelveticaNeue-30" transform="translate(0 0.09375)"/>
       <use xlink:href="#HelveticaNeue-2e" transform="translate(55.599991 0.09375)"/>
       <use xlink:href="#HelveticaNeue-30" transform="translate(83.399979 0.09375)"/>
      </g>
     </g>
    </g>
    <g id="xtick_5">
     <g id="line2d_16">
      <path d="M 254.319855 217.008553 
L 254.319855 23.433125 
" clip-path="url(#p8667eeee46)" style="fill: none; stroke-dasharray: 2.22,0.96; stroke-dashoffset: 0; stroke: #b0b0b0; stroke-opacity: 0.4; stroke-width: 0.6"/>
     </g>
     <g id="line2d_17">
      <g>
       <use xlink:href="#m97832ea622" x="254.319855" y="217.008553" style="stroke: #000000; stroke-width: 0.8"/>
      </g>
     </g>
     <g id="text_5">
      <!-- $\mathdefault{0.5}$ -->
      <g transform="translate(245.979855 232.577303) scale(0.12 -0.12)">
       <use xlink:href="#HelveticaNeue-30" transform="translate(0 0.09375)"/>
       <use xlink:href="#HelveticaNeue-2e" transform="translate(55.599991 0.09375)"/>
       <use xlink:href="#HelveticaNeue-35" transform="translate(83.399979 0.09375)"/>
      </g>
     </g>
    </g>
    <g id="xtick_6">
     <g id="line2d_18">
      <path d="M 297.336617 217.008553 
L 297.336617 23.433125 
" clip-path="url(#p8667eeee46)" style="fill: none; stroke-dasharray: 2.22,0.96; stroke-dashoffset: 0; stroke: #b0b0b0; stroke-opacity: 0.4; stroke-width: 0.6"/>
     </g>
     <g id="line2d_19">
      <g>
       <use xlink:href="#m97832ea622" x="297.336617" y="217.008553" style="stroke: #000000; stroke-width: 0.8"/>
      </g>
     </g>
     <g id="text_6">
      <!-- $\mathdefault{1.0}$ -->
      <g transform="translate(288.996617 232.577303) scale(0.12 -0.12)">
       <use xlink:href="#HelveticaNeue-31" transform="translate(0 0.09375)"/>
       <use xlink:href="#HelveticaNeue-2e" transform="translate(55.599991 0.09375)"/>
       <use xlink:href="#HelveticaNeue-30" transform="translate(83.399979 0.09375)"/>
      </g>
     </g>
    </g>
    <g id="xtick_7">
     <g id="line2d_20">
      <path d="M 340.353378 217.008553 
L 340.353378 23.433125 
" clip-path="url(#p8667eeee46)" style="fill: none; stroke-dasharray: 2.22,0.96; stroke-dashoffset: 0; stroke: #b0b0b0; stroke-opacity: 0.4; stroke-width: 0.6"/>
     </g>
     <g id="line2d_21">
      <g>
       <use xlink:href="#m97832ea622" x="340.353378" y="217.008553" style="stroke: #000000; stroke-width: 0.8"/>
      </g>
     </g>
     <g id="text_7">
      <!-- $\mathdefault{1.5}$ -->
      <g transform="translate(332.013378 232.577303) scale(0.12 -0.12)">
       <use xlink:href="#HelveticaNeue-31" transform="translate(0 0.09375)"/>
       <use xlink:href="#HelveticaNeue-2e" transform="translate(55.599991 0.09375)"/>
       <use xlink:href="#HelveticaNeue-35" transform="translate(83.399979 0.09375)"/>
      </g>
     </g>
    </g>
    <g id="xtick_8">
     <g id="line2d_22">
      <defs>
       <path id="m70945dd07b" d="M 0 0 
L 0 2 
" style="stroke: #000000; stroke-width: 0.6"/>
      </defs>
      <g>
       <use xlink:href="#m70945dd07b" x="56.44275" y="217.008553" style="stroke: #000000; stroke-width: 0.6"/>
      </g>
     </g>
    </g>
    <g id="xtick_9">
     <g id="line2d_23">
      <g>
       <use xlink:href="#m70945dd07b" x="65.046102" y="217.008553" style="stroke: #000000; stroke-width: 0.6"/>
      </g>
     </g>
    </g>
    <g id="xtick_10">
     <g id="line2d_24">
      <g>
       <use xlink:href="#m70945dd07b" x="73.649455" y="217.008553" style="stroke: #000000; stroke-width: 0.6"/>
      </g>
     </g>
    </g>
    <g id="xtick_11">
     <g id="line2d_25">
      <g>
       <use xlink:href="#m70945dd07b" x="90.85616" y="217.008553" style="stroke: #000000; stroke-width: 0.6"/>
      </g>
     </g>
    </g>
    <g id="xtick_12">
     <g id="line2d_26">
      <g>
       <use xlink:href="#m70945dd07b" x="99.459512" y="217.008553" style="stroke: #000000; stroke-width: 0.6"/>
      </g>
     </g>
    </g>
    <g id="xtick_13">
     <g id="line2d_27">
      <g>
       <use xlink:href="#m70945dd07b" x="108.062864" y="217.008553" style="stroke: #000000; stroke-width: 0.6"/>
      </g>
     </g>
    </g>
    <g id="xtick_14">
     <g id="line2d_28">
      <g>
       <use xlink:href="#m70945dd07b" x="116.666217" y="217.008553" style="stroke: #000000; stroke-width: 0.6"/>
      </g>
     </g>
    </g>
    <g id="xtick_15">
     <g id="line2d_29">
      <g>
       <use xlink:href="#m70945dd07b" x="133.872921" y="217.008553" style="stroke: #000000; stroke-width: 0.6"/>
      </g>
     </g>
    </g>
    <g id="xtick_16">
     <g id="line2d_30">
      <g>
       <use xlink:href="#m70945dd07b" x="142.476274" y="217.008553" style="stroke: #000000; stroke-width: 0.6"/>
      </g>
     </g>
    </g>
    <g id="xtick_17">
     <g id="line2d_31">
      <g>
       <use xlink:href="#m70945dd07b" x="151.079626" y="217.008553" style="stroke: #000000; stroke-width: 0.6"/>
      </g>
     </g>
    </g>
    <g id="xtick_18">
     <g id="line2d_32">
      <g>
       <use xlink:href="#m70945dd07b" x="159.682979" y="217.008553" style="stroke: #000000; stroke-width: 0.6"/>
      </g>
     </g>
    </g>
    <g id="xtick_19">
     <g id="line2d_33">
      <g>
       <use xlink:href="#m70945dd07b" x="176.889683" y="217.008553" style="stroke: #000000; stroke-width: 0.6"/>
      </g>
     </g>
    </g>
    <g id="xtick_20">
     <g id="line2d_34">
      <g>
       <use xlink:href="#m70945dd07b" x="185.493036" y="217.008553" style="stroke: #000000; stroke-width: 0.6"/>
      </g>
     </g>
    </g>
    <g id="xtick_21">
     <g id="line2d_35">
      <g>
       <use xlink:href="#m70945dd07b" x="194.096388" y="217.008553" style="stroke: #000000; stroke-width: 0.6"/>
      </g>
     </g>
    </g>
    <g id="xtick_22">
     <g id="line2d_36">
      <g>
       <use xlink:href="#m70945dd07b" x="202.69974" y="217.008553" style="stroke: #000000; stroke-width: 0.6"/>
      </g>
     </g>
    </g>
    <g id="xtick_23">
     <g id="line2d_37">
      <g>
       <use xlink:href="#m70945dd07b" x="219.906445" y="217.008553" style="stroke: #000000; stroke-width: 0.6"/>
      </g>
     </g>
    </g>
    <g id="xtick_24">
     <g id="line2d_38">
      <g>
       <use xlink:href="#m70945dd07b" x="228.509798" y="217.008553" style="stroke: #000000; stroke-width: 0.6"/>
      </g>
     </g>
    </g>
    <g id="xtick_25">
     <g id="line2d_39">
      <g>
       <use xlink:href="#m70945dd07b" x="237.11315" y="217.008553" style="stroke: #000000; stroke-width: 0.6"/>
      </g>
     </g>
    </g>
    <g id="xtick_26">
     <g id="line2d_40">
      <g>
       <use xlink:href="#m70945dd07b" x="245.716502" y="217.008553" style="stroke: #000000; stroke-width: 0.6"/>
      </g>
     </g>
    </g>
    <g id="xtick_27">
     <g id="line2d_41">
      <g>
       <use xlink:href="#m70945dd07b" x="262.923207" y="217.008553" style="stroke: #000000; stroke-width: 0.6"/>
      </g>
     </g>
    </g>
    <g id="xtick_28">
     <g id="line2d_42">
      <g>
       <use xlink:href="#m70945dd07b" x="271.526559" y="217.008553" style="stroke: #000000; stroke-width: 0.6"/>
      </g>
     </g>
    </g>
    <g id="xtick_29">
     <g id="line2d_43">
      <g>
       <use xlink:href="#m70945dd07b" x="280.129912" y="217.008553" style="stroke: #000000; stroke-width: 0.6"/>
      </g>
     </g>
    </g>
    <g id="xtick_30">
     <g id="line2d_44">
      <g>
       <use xlink:href="#m70945dd07b" x="288.733264" y="217.008553" style="stroke: #000000; stroke-width: 0.6"/>
      </g>
     </g>
    </g>
    <g id="xtick_31">
     <g id="line2d_45">
      <g>
       <use xlink:href="#m70945dd07b" x="305.939969" y="217.008553" style="stroke: #000000; stroke-width: 0.6"/>
      </g>
     </g>
    </g>
    <g id="xtick_32">
     <g id="line2d_46">
      <g>
       <use xlink:href="#m70945dd07b" x="314.543321" y="217.008553" style="stroke: #000000; stroke-width: 0.6"/>
      </g>
     </g>
    </g>
    <g id="xtick_33">
     <g id="line2d_47">
      <g>
       <use xlink:href="#m70945dd07b" x="323.146674" y="217.008553" style="stroke: #000000; stroke-width: 0.6"/>
      </g>
     </g>
    </g>
    <g id="xtick_34">
     <g id="line2d_48">
      <g>
       <use xlink:href="#m70945dd07b" x="331.750026" y="217.008553" style="stroke: #000000; stroke-width: 0.6"/>
      </g>
     </g>
    </g>
    <g id="xtick_35">
     <g id="line2d_49">
      <g>
       <use xlink:href="#m70945dd07b" x="348.956731" y="217.008553" style="stroke: #000000; stroke-width: 0.6"/>
      </g>
     </g>
    </g>
    <g id="xtick_36">
     <g id="line2d_50">
      <g>
       <use xlink:href="#m70945dd07b" x="357.560083" y="217.008553" style="stroke: #000000; stroke-width: 0.6"/>
      </g>
     </g>
    </g>
    <g id="xtick_37">
     <g id="line2d_51">
      <g>
       <use xlink:href="#m70945dd07b" x="366.163436" y="217.008553" style="stroke: #000000; stroke-width: 0.6"/>
      </g>
     </g>
    </g>
    <g id="text_8">
     <!-- RA [arcsec] -->
     <g transform="translate(174.635968 250.467178) scale(0.144 -0.144)">
      <defs>
       <path id="HelveticaNeue-52" d="M 499 4570 
L 499 0 
L 1107 0 
L 1107 1952 
L 2592 1952 
Q 2816 1952 2950 1885 
Q 3085 1818 3168 1706 
Q 3251 1594 3289 1443 
Q 3328 1293 3354 1126 
Q 3386 960 3392 787 
Q 3398 614 3404 464 
Q 3411 314 3433 192 
Q 3456 70 3520 0 
L 4198 0 
Q 4102 115 4054 265 
Q 4006 416 3980 582 
Q 3955 749 3948 921 
Q 3942 1094 3930 1261 
Q 3910 1427 3875 1580 
Q 3840 1734 3766 1859 
Q 3693 1984 3568 2073 
Q 3443 2163 3245 2202 
L 3245 2214 
Q 3661 2330 3849 2643 
Q 4038 2957 4038 3373 
Q 4038 3930 3670 4250 
Q 3302 4570 2650 4570 
L 499 4570 
z
M 2374 2464 
L 1107 2464 
L 1107 4058 
L 2618 4058 
Q 3046 4058 3238 3840 
Q 3430 3622 3430 3277 
Q 3430 3027 3344 2870 
Q 3258 2714 3114 2621 
Q 2970 2528 2778 2496 
Q 2586 2464 2374 2464 
z
" transform="scale(0.015625)"/>
       <path id="HelveticaNeue-41" d="M 1286 1888 
L 2061 4019 
L 2074 4019 
L 2835 1888 
L 1286 1888 
z
M 1741 4570 
L -38 0 
L 582 0 
L 1094 1376 
L 3027 1376 
L 3526 0 
L 4198 0 
L 2413 4570 
L 1741 4570 
z
" transform="scale(0.015625)"/>
       <path id="HelveticaNeue-20" transform="scale(0.015625)"/>
       <path id="HelveticaNeue-5b" d="M 1658 4243 
L 1658 4678 
L 461 4678 
L 461 -1261 
L 1658 -1261 
L 1658 -826 
L 973 -826 
L 973 4243 
L 1658 4243 
z
" transform="scale(0.015625)"/>
       <path id="HelveticaNeue-61" d="M 3341 13 
Q 3200 -70 2950 -70 
Q 2739 -70 2614 48 
Q 2490 166 2490 435 
Q 2266 166 1968 48 
Q 1670 -70 1325 -70 
Q 1101 -70 899 -19 
Q 698 32 550 141 
Q 403 250 316 426 
Q 230 602 230 851 
Q 230 1133 326 1312 
Q 422 1491 579 1603 
Q 736 1715 937 1772 
Q 1139 1830 1350 1869 
Q 1574 1914 1776 1936 
Q 1978 1958 2131 2000 
Q 2285 2042 2374 2122 
Q 2464 2202 2464 2355 
Q 2464 2534 2397 2643 
Q 2330 2752 2224 2809 
Q 2118 2867 1987 2886 
Q 1856 2906 1728 2906 
Q 1382 2906 1152 2774 
Q 922 2643 902 2278 
L 358 2278 
Q 371 2586 486 2797 
Q 602 3008 794 3139 
Q 986 3270 1232 3328 
Q 1478 3386 1760 3386 
Q 1984 3386 2205 3354 
Q 2426 3322 2605 3222 
Q 2784 3123 2893 2944 
Q 3002 2765 3002 2477 
L 3002 774 
Q 3002 582 3024 492 
Q 3046 403 3174 403 
Q 3245 403 3341 435 
L 3341 13 
z
M 2458 1709 
Q 2355 1632 2188 1597 
Q 2022 1562 1840 1539 
Q 1658 1517 1472 1488 
Q 1286 1459 1139 1395 
Q 992 1331 899 1212 
Q 806 1094 806 890 
Q 806 755 860 662 
Q 915 570 1001 512 
Q 1088 454 1203 428 
Q 1318 403 1446 403 
Q 1715 403 1907 476 
Q 2099 550 2220 662 
Q 2342 774 2400 905 
Q 2458 1037 2458 1152 
L 2458 1709 
z
" transform="scale(0.015625)"/>
       <path id="HelveticaNeue-72" d="M 390 3309 
L 390 0 
L 934 0 
L 934 1472 
Q 934 1792 998 2038 
Q 1062 2285 1203 2457 
Q 1344 2630 1574 2720 
Q 1805 2810 2131 2810 
L 2131 3386 
Q 1690 3398 1402 3206 
Q 1114 3014 915 2611 
L 902 2611 
L 902 3309 
L 390 3309 
z
" transform="scale(0.015625)"/>
       <path id="HelveticaNeue-63" d="M 2656 2246 
L 3219 2246 
Q 3187 2541 3065 2755 
Q 2944 2970 2755 3110 
Q 2566 3251 2320 3318 
Q 2074 3386 1792 3386 
Q 1402 3386 1107 3248 
Q 813 3110 617 2870 
Q 422 2630 326 2307 
Q 230 1984 230 1613 
Q 230 1242 329 931 
Q 429 621 624 397 
Q 819 173 1110 51 
Q 1402 -70 1779 -70 
Q 2413 -70 2781 262 
Q 3149 595 3238 1210 
L 2682 1210 
Q 2630 826 2403 614 
Q 2176 403 1773 403 
Q 1517 403 1331 505 
Q 1146 608 1030 777 
Q 915 947 860 1164 
Q 806 1382 806 1613 
Q 806 1862 857 2096 
Q 909 2330 1027 2509 
Q 1146 2688 1344 2797 
Q 1542 2906 1837 2906 
Q 2182 2906 2387 2733 
Q 2592 2560 2656 2246 
z
" transform="scale(0.015625)"/>
       <path id="HelveticaNeue-73" d="M 742 1043 
L 198 1043 
Q 211 736 326 521 
Q 442 307 634 176 
Q 826 45 1075 -12 
Q 1325 -70 1600 -70 
Q 1850 -70 2102 -22 
Q 2355 26 2556 147 
Q 2758 269 2883 467 
Q 3008 666 3008 966 
Q 3008 1203 2915 1363 
Q 2822 1523 2672 1628 
Q 2522 1734 2326 1798 
Q 2131 1862 1926 1907 
Q 1734 1952 1542 1993 
Q 1350 2035 1196 2096 
Q 1043 2157 944 2249 
Q 845 2342 845 2483 
Q 845 2611 909 2691 
Q 973 2771 1075 2819 
Q 1178 2867 1302 2886 
Q 1427 2906 1549 2906 
Q 1683 2906 1814 2877 
Q 1946 2848 2054 2784 
Q 2163 2720 2233 2614 
Q 2304 2509 2317 2349 
L 2861 2349 
Q 2842 2650 2733 2851 
Q 2624 3053 2441 3171 
Q 2259 3290 2022 3338 
Q 1786 3386 1504 3386 
Q 1286 3386 1065 3331 
Q 845 3277 669 3165 
Q 493 3053 381 2873 
Q 269 2694 269 2445 
Q 269 2125 429 1945 
Q 589 1766 829 1667 
Q 1069 1568 1350 1513 
Q 1632 1459 1872 1392 
Q 2112 1325 2272 1216 
Q 2432 1107 2432 896 
Q 2432 742 2355 643 
Q 2278 544 2160 493 
Q 2042 442 1901 422 
Q 1760 403 1632 403 
Q 1466 403 1309 435 
Q 1152 467 1027 540 
Q 902 614 825 739 
Q 749 864 742 1043 
z
" transform="scale(0.015625)"/>
       <path id="HelveticaNeue-65" d="M 2707 1971 
L 806 1971 
Q 819 2163 889 2332 
Q 960 2502 1081 2630 
Q 1203 2758 1372 2832 
Q 1542 2906 1754 2906 
Q 1958 2906 2128 2832 
Q 2298 2758 2422 2633 
Q 2547 2509 2620 2336 
Q 2694 2163 2707 1971 
z
M 3232 1050 
L 2694 1050 
Q 2624 723 2403 563 
Q 2182 403 1837 403 
Q 1568 403 1369 492 
Q 1171 582 1043 732 
Q 915 883 857 1078 
Q 800 1274 806 1491 
L 3283 1491 
Q 3296 1792 3229 2125 
Q 3162 2458 2986 2739 
Q 2810 3021 2518 3203 
Q 2227 3386 1786 3386 
Q 1446 3386 1161 3258 
Q 877 3130 669 2899 
Q 461 2669 345 2355 
Q 230 2042 230 1664 
Q 243 1286 342 966 
Q 442 646 640 416 
Q 838 186 1129 58 
Q 1421 -70 1818 -70 
Q 2381 -70 2752 211 
Q 3123 493 3232 1050 
z
" transform="scale(0.015625)"/>
       <path id="HelveticaNeue-5d" d="M 0 -826 
L 0 -1261 
L 1197 -1261 
L 1197 4678 
L 0 4678 
L 0 4243 
L 685 4243 
L 685 -826 
L 0 -826 
z
" transform="scale(0.015625)"/>
      </defs>
      <use xlink:href="#HelveticaNeue-52"/>
      <use xlink:href="#HelveticaNeue-41" transform="translate(68.499985 0)"/>
      <use xlink:href="#HelveticaNeue-20" transform="translate(133.299973 0)"/>
      <use xlink:href="#HelveticaNeue-5b" transform="translate(161.09996 0)"/>
      <use xlink:href="#HelveticaNeue-61" transform="translate(186.999954 0)"/>
      <use xlink:href="#HelveticaNeue-72" transform="translate(240.699951 0)"/>
      <use xlink:href="#HelveticaNeue-63" transform="translate(272.249939 0)"/>
      <use xlink:href="#HelveticaNeue-73" transform="translate(325.949936 0)"/>
      <use xlink:href="#HelveticaNeue-65" transform="translate(375.949921 0)"/>
      <use xlink:href="#HelveticaNeue-63" transform="translate(429.649918 0)"/>
      <use xlink:href="#HelveticaNeue-5d" transform="translate(483.349915 0)"/>
     </g>
    </g>
   </g>
   <g id="matplotlib.axis_2">
    <g id="ytick_1">
     <g id="line2d_52">
      <path d="M 56.44275 217.008553 
L 366.163436 217.008553 
" clip-path="url(#p8667eeee46)" style="fill: none; stroke-dasharray: 2.22,0.96; stroke-dashoffset: 0; stroke: #b0b0b0; stroke-opacity: 0.4; stroke-width: 0.6"/>
     </g>
     <g id="line2d_53">
      <defs>
       <path id="m629ec88c3f" d="M 0 0 
L -3.5 0 
" style="stroke: #000000; stroke-width: 0.8"/>
      </defs>
      <g>
       <use xlink:href="#m629ec88c3f" x="56.44275" y="217.008553" style="stroke: #000000; stroke-width: 0.8"/>
      </g>
     </g>
     <g id="text_9">
      <!-- $\mathdefault{−1.5}$ -->
      <g transform="translate(25.56275 221.292928) scale(0.12 -0.12)">
       <use xlink:href="#HelveticaNeue-2212" transform="translate(0 0.09375)"/>
       <use xlink:href="#HelveticaNeue-31" transform="translate(59.999985 0.09375)"/>
       <use xlink:href="#HelveticaNeue-2e" transform="translate(115.599976 0.09375)"/>
       <use xlink:href="#HelveticaNeue-35" transform="translate(143.399963 0.09375)"/>
      </g>
     </g>
    </g>
    <g id="ytick_2">
     <g id="line2d_54">
      <path d="M 56.44275 184.745982 
L 366.163436 184.745982 
" clip-path="url(#p8667eeee46)" style="fill: none; stroke-dasharray: 2.22,0.96; stroke-dashoffset: 0; stroke: #b0b0b0; stroke-opacity: 0.4; stroke-width: 0.6"/>
     </g>
     <g id="line2d_55">
      <g>
       <use xlink:href="#m629ec88c3f" x="56.44275" y="184.745982" style="stroke: #000000; stroke-width: 0.8"/>
      </g>
     </g>
     <g id="text_10">
      <!-- $\mathdefault{−1.0}$ -->
      <g transform="translate(25.56275 189.030357) scale(0.12 -0.12)">
       <use xlink:href="#HelveticaNeue-2212" transform="translate(0 0.09375)"/>
       <use xlink:href="#HelveticaNeue-31" transform="translate(59.999985 0.09375)"/>
       <use xlink:href="#HelveticaNeue-2e" transform="translate(115.599976 0.09375)"/>
       <use xlink:href="#HelveticaNeue-30" transform="translate(143.399963 0.09375)"/>
      </g>
     </g>
    </g>
    <g id="ytick_3">
     <g id="line2d_56">
      <path d="M 56.44275 152.483411 
L 366.163436 152.483411 
" clip-path="url(#p8667eeee46)" style="fill: none; stroke-dasharray: 2.22,0.96; stroke-dashoffset: 0; stroke: #b0b0b0; stroke-opacity: 0.4; stroke-width: 0.6"/>
     </g>
     <g id="line2d_57">
      <g>
       <use xlink:href="#m629ec88c3f" x="56.44275" y="152.483411" style="stroke: #000000; stroke-width: 0.8"/>
      </g>
     </g>
     <g id="text_11">
      <!-- $\mathdefault{−0.5}$ -->
      <g transform="translate(25.56275 156.767786) scale(0.12 -0.12)">
       <use xlink:href="#HelveticaNeue-2212" transform="translate(0 0.09375)"/>
       <use xlink:href="#HelveticaNeue-30" transform="translate(59.999985 0.09375)"/>
       <use xlink:href="#HelveticaNeue-2e" transform="translate(115.599976 0.09375)"/>
       <use xlink:href="#HelveticaNeue-35" transform="translate(143.399963 0.09375)"/>
      </g>
     </g>
    </g>
    <g id="ytick_4">
     <g id="line2d_58">
      <path d="M 56.44275 120.220839 
L 366.163436 120.220839 
" clip-path="url(#p8667eeee46)" style="fill: none; stroke-dasharray: 2.22,0.96; stroke-dashoffset: 0; stroke: #b0b0b0; stroke-opacity: 0.4; stroke-width: 0.6"/>
     </g>
     <g id="line2d_59">
      <g>
       <use xlink:href="#m629ec88c3f" x="56.44275" y="120.220839" style="stroke: #000000; stroke-width: 0.8"/>
      </g>
     </g>
     <g id="text_12">
      <!-- $\mathdefault{0.0}$ -->
      <g transform="translate(32.76275 124.505214) scale(0.12 -0.12)">
       <use xlink:href="#HelveticaNeue-30" transform="translate(0 0.09375)"/>
       <use xlink:href="#HelveticaNeue-2e" transform="translate(55.599991 0.09375)"/>
       <use xlink:href="#HelveticaNeue-30" transform="translate(83.399979 0.09375)"/>
      </g>
     </g>
    </g>
    <g id="ytick_5">
     <g id="line2d_60">
      <path d="M 56.44275 87.958268 
L 366.163436 87.958268 
" clip-path="url(#p8667eeee46)" style="fill: none; stroke-dasharray: 2.22,0.96; stroke-dashoffset: 0; stroke: #b0b0b0; stroke-opacity: 0.4; stroke-width: 0.6"/>
     </g>
     <g id="line2d_61">
      <g>
       <use xlink:href="#m629ec88c3f" x="56.44275" y="87.958268" style="stroke: #000000; stroke-width: 0.8"/>
      </g>
     </g>
     <g id="text_13">
      <!-- $\mathdefault{0.5}$ -->
      <g transform="translate(32.76275 92.242643) scale(0.12 -0.12)">
       <use xlink:href="#HelveticaNeue-30" transform="translate(0 0.09375)"/>
       <use xlink:href="#HelveticaNeue-2e" transform="translate(55.599991 0.09375)"/>
       <use xlink:href="#HelveticaNeue-35" transform="translate(83.399979 0.09375)"/>
      </g>
     </g>
    </g>
    <g id="ytick_6">
     <g id="line2d_62">
      <path d="M 56.44275 55.695696 
L 366.163436 55.695696 
" clip-path="url(#p8667eeee46)" style="fill: none; stroke-dasharray: 2.22,0.96; stroke-dashoffset: 0; stroke: #b0b0b0; stroke-opacity: 0.4; stroke-width: 0.6"/>
     </g>
     <g id="line2d_63">
      <g>
       <use xlink:href="#m629ec88c3f" x="56.44275" y="55.695696" style="stroke: #000000; stroke-width: 0.8"/>
      </g>
     </g>
     <g id="text_14">
      <!-- $\mathdefault{1.0}$ -->
      <g transform="translate(32.76275 59.980071) scale(0.12 -0.12)">
       <use xlink:href="#HelveticaNeue-31" transform="translate(0 0.09375)"/>
       <use xlink:href="#HelveticaNeue-2e" transform="translate(55.599991 0.09375)"/>
       <use xlink:href="#HelveticaNeue-30" transform="translate(83.399979 0.09375)"/>
      </g>
     </g>
    </g>
    <g id="ytick_7">
     <g id="line2d_64">
      <path d="M 56.44275 23.433125 
L 366.163436 23.433125 
" clip-path="url(#p8667eeee46)" style="fill: none; stroke-dasharray: 2.22,0.96; stroke-dashoffset: 0; stroke: #b0b0b0; stroke-opacity: 0.4; stroke-width: 0.6"/>
     </g>
     <g id="line2d_65">
      <g>
       <use xlink:href="#m629ec88c3f" x="56.44275" y="23.433125" style="stroke: #000000; stroke-width: 0.8"/>
      </g>
     </g>
     <g id="text_15">
      <!-- $\mathdefault{1.5}$ -->
      <g transform="translate(32.76275 27.7175) scale(0.12 -0.12)">
       <use xlink:href="#HelveticaNeue-31" transform="translate(0 0.09375)"/>
       <use xlink:href="#HelveticaNeue-2e" transform="translate(55.599991 0.09375)"/>
       <use xlink:href="#HelveticaNeue-35" transform="translate(83.399979 0.09375)"/>
      </g>
     </g>
    </g>
    <g id="ytick_8">
     <g id="line2d_66">
      <defs>
       <path id="m6faa3eea16" d="M 0 0 
L -2 0 
" style="stroke: #000000; stroke-width: 0.6"/>
      </defs>
      <g>
       <use xlink:href="#m6faa3eea16" x="56.44275" y="210.556039" style="stroke: #000000; stroke-width: 0.6"/>
      </g>
     </g>
    </g>
    <g id="ytick_9">
     <g id="line2d_67">
      <g>
       <use xlink:href="#m6faa3eea16" x="56.44275" y="204.103525" style="stroke: #000000; stroke-width: 0.6"/>
      </g>
     </g>
    </g>
    <g id="ytick_10">
     <g id="line2d_68">
      <g>
       <use xlink:href="#m6faa3eea16" x="56.44275" y="197.651011" style="stroke: #000000; stroke-width: 0.6"/>
      </g>
     </g>
    </g>
    <g id="ytick_11">
     <g id="line2d_69">
      <g>
       <use xlink:href="#m6faa3eea16" x="56.44275" y="191.198496" style="stroke: #000000; stroke-width: 0.6"/>
      </g>
     </g>
    </g>
    <g id="ytick_12">
     <g id="line2d_70">
      <g>
       <use xlink:href="#m6faa3eea16" x="56.44275" y="178.293468" style="stroke: #000000; stroke-width: 0.6"/>
      </g>
     </g>
    </g>
    <g id="ytick_13">
     <g id="line2d_71">
      <g>
       <use xlink:href="#m6faa3eea16" x="56.44275" y="171.840953" style="stroke: #000000; stroke-width: 0.6"/>
      </g>
     </g>
    </g>
    <g id="ytick_14">
     <g id="line2d_72">
      <g>
       <use xlink:href="#m6faa3eea16" x="56.44275" y="165.388439" style="stroke: #000000; stroke-width: 0.6"/>
      </g>
     </g>
    </g>
    <g id="ytick_15">
     <g id="line2d_73">
      <g>
       <use xlink:href="#m6faa3eea16" x="56.44275" y="158.935925" style="stroke: #000000; stroke-width: 0.6"/>
      </g>
     </g>
    </g>
    <g id="ytick_16">
     <g id="line2d_74">
      <g>
       <use xlink:href="#m6faa3eea16" x="56.44275" y="146.030896" style="stroke: #000000; stroke-width: 0.6"/>
      </g>
     </g>
    </g>
    <g id="ytick_17">
     <g id="line2d_75">
      <g>
       <use xlink:href="#m6faa3eea16" x="56.44275" y="139.578382" style="stroke: #000000; stroke-width: 0.6"/>
      </g>
     </g>
    </g>
    <g id="ytick_18">
     <g id="line2d_76">
      <g>
       <use xlink:href="#m6faa3eea16" x="56.44275" y="133.125868" style="stroke: #000000; stroke-width: 0.6"/>
      </g>
     </g>
    </g>
    <g id="ytick_19">
     <g id="line2d_77">
      <g>
       <use xlink:href="#m6faa3eea16" x="56.44275" y="126.673354" style="stroke: #000000; stroke-width: 0.6"/>
      </g>
     </g>
    </g>
    <g id="ytick_20">
     <g id="line2d_78">
      <g>
       <use xlink:href="#m6faa3eea16" x="56.44275" y="113.768325" style="stroke: #000000; stroke-width: 0.6"/>
      </g>
     </g>
    </g>
    <g id="ytick_21">
     <g id="line2d_79">
      <g>
       <use xlink:href="#m6faa3eea16" x="56.44275" y="107.315811" style="stroke: #000000; stroke-width: 0.6"/>
      </g>
     </g>
    </g>
    <g id="ytick_22">
     <g id="line2d_80">
      <g>
       <use xlink:href="#m6faa3eea16" x="56.44275" y="100.863296" style="stroke: #000000; stroke-width: 0.6"/>
      </g>
     </g>
    </g>
    <g id="ytick_23">
     <g id="line2d_81">
      <g>
       <use xlink:href="#m6faa3eea16" x="56.44275" y="94.410782" style="stroke: #000000; stroke-width: 0.6"/>
      </g>
     </g>
    </g>
    <g id="ytick_24">
     <g id="line2d_82">
      <g>
       <use xlink:href="#m6faa3eea16" x="56.44275" y="81.505754" style="stroke: #000000; stroke-width: 0.6"/>
      </g>
     </g>
    </g>
    <g id="ytick_25">
     <g id="line2d_83">
      <g>
       <use xlink:href="#m6faa3eea16" x="56.44275" y="75.053239" style="stroke: #000000; stroke-width: 0.6"/>
      </g>
     </g>
    </g>
    <g id="ytick_26">
     <g id="line2d_84">
      <g>
       <use xlink:href="#m6faa3eea16" x="56.44275" y="68.600725" style="stroke: #000000; stroke-width: 0.6"/>
      </g>
     </g>
    </g>
    <g id="ytick_27">
     <g id="line2d_85">
      <g>
       <use xlink:href="#m6faa3eea16" x="56.44275" y="62.148211" style="stroke: #000000; stroke-width: 0.6"/>
      </g>
     </g>
    </g>
    <g id="ytick_28">
     <g id="line2d_86">
      <g>
       <use xlink:href="#m6faa3eea16" x="56.44275" y="49.243182" style="stroke: #000000; stroke-width: 0.6"/>
      </g>
     </g>
    </g>
    <g id="ytick_29">
     <g id="line2d_87">
      <g>
       <use xlink:href="#m6faa3eea16" x="56.44275" y="42.790668" style="stroke: #000000; stroke-width: 0.6"/>
      </g>
     </g>
    </g>
    <g id="ytick_30">
     <g id="line2d_88">
      <g>
       <use xlink:href="#m6faa3eea16" x="56.44275" y="36.338154" style="stroke: #000000; stroke-width: 0.6"/>
      </g>
     </g>
    </g>
    <g id="ytick_31">
     <g id="line2d_89">
      <g>
       <use xlink:href="#m6faa3eea16" x="56.44275" y="29.885639" style="stroke: #000000; stroke-width: 0.6"/>
      </g>
     </g>
    </g>
    <g id="text_16">
     <!-- Dec [arcsec] -->
     <g transform="translate(17.7255 160.093089) rotate(-90) scale(0.144 -0.144)">
      <defs>
       <path id="HelveticaNeue-44" d="M 1107 512 
L 1107 4058 
L 2131 4058 
Q 2554 4058 2842 3939 
Q 3130 3821 3312 3593 
Q 3494 3366 3574 3043 
Q 3654 2720 3654 2310 
Q 3654 1888 3568 1590 
Q 3482 1293 3347 1094 
Q 3213 896 3043 781 
Q 2874 666 2701 605 
Q 2528 544 2374 528 
Q 2221 512 2118 512 
L 1107 512 
z
M 499 4570 
L 499 0 
L 2067 0 
Q 2637 0 3053 160 
Q 3469 320 3737 624 
Q 4006 928 4134 1373 
Q 4262 1818 4262 2394 
Q 4262 3494 3692 4032 
Q 3123 4570 2067 4570 
L 499 4570 
z
" transform="scale(0.015625)"/>
      </defs>
      <use xlink:href="#HelveticaNeue-44"/>
      <use xlink:href="#HelveticaNeue-65" transform="translate(70.399994 0)"/>
      <use xlink:href="#HelveticaNeue-63" transform="translate(124.099991 0)"/>
      <use xlink:href="#HelveticaNeue-20" transform="translate(177.799988 0)"/>
      <use xlink:href="#HelveticaNeue-5b" transform="translate(205.599976 0)"/>
      <use xlink:href="#HelveticaNeue-61" transform="translate(231.499969 0)"/>
      <use xlink:href="#HelveticaNeue-72" transform="translate(285.199966 0)"/>
      <use xlink:href="#HelveticaNeue-63" transform="translate(316.749954 0)"/>
      <use xlink:href="#HelveticaNeue-73" transform="translate(370.449951 0)"/>
      <use xlink:href="#HelveticaNeue-65" transform="translate(420.449936 0)"/>
      <use xlink:href="#HelveticaNeue-63" transform="translate(474.149933 0)"/>
      <use xlink:href="#HelveticaNeue-5d" transform="translate(527.84993 0)"/>
     </g>
    </g>
   </g>
   <g id="text_17">
    <!-- Lens Configuration for Example Detected Lensed Event -->
    <g transform="translate(37.698718 17.433125) scale(0.14 -0.14)">
     <defs>
      <path id="HelveticaNeue-4c" d="M 499 4570 
L 499 0 
L 3526 0 
L 3526 512 
L 1107 512 
L 1107 4570 
L 499 4570 
z
" transform="scale(0.015625)"/>
      <path id="HelveticaNeue-6e" d="M 410 3309 
L 410 0 
L 954 0 
L 954 1869 
Q 954 2093 1014 2281 
Q 1075 2470 1196 2611 
Q 1318 2752 1500 2829 
Q 1683 2906 1933 2906 
Q 2246 2906 2425 2726 
Q 2605 2547 2605 2240 
L 2605 0 
L 3149 0 
L 3149 2176 
Q 3149 2445 3094 2665 
Q 3040 2886 2905 3046 
Q 2771 3206 2553 3296 
Q 2336 3386 2010 3386 
Q 1274 3386 934 2784 
L 922 2784 
L 922 3309 
L 410 3309 
z
" transform="scale(0.015625)"/>
      <path id="HelveticaNeue-43" d="M 3712 3194 
L 4320 3194 
Q 4269 3558 4102 3836 
Q 3936 4115 3686 4300 
Q 3437 4486 3117 4582 
Q 2797 4678 2438 4678 
Q 1914 4678 1507 4489 
Q 1101 4301 829 3974 
Q 557 3648 416 3209 
Q 275 2771 275 2272 
Q 275 1773 406 1337 
Q 538 902 800 582 
Q 1062 262 1459 80 
Q 1856 -102 2387 -102 
Q 3264 -102 3769 378 
Q 4275 858 4365 1722 
L 3757 1722 
Q 3738 1440 3642 1197 
Q 3546 954 3376 778 
Q 3206 602 2972 502 
Q 2739 403 2438 403 
Q 2029 403 1734 556 
Q 1440 710 1251 969 
Q 1062 1229 972 1577 
Q 883 1926 883 2317 
Q 883 2675 972 3008 
Q 1062 3341 1251 3600 
Q 1440 3859 1731 4012 
Q 2022 4166 2432 4166 
Q 2912 4166 3261 3923 
Q 3610 3680 3712 3194 
z
" transform="scale(0.015625)"/>
      <path id="HelveticaNeue-6f" d="M 806 1651 
Q 806 1952 886 2185 
Q 966 2419 1107 2579 
Q 1248 2739 1437 2822 
Q 1626 2906 1837 2906 
Q 2048 2906 2237 2822 
Q 2426 2739 2566 2579 
Q 2707 2419 2787 2185 
Q 2867 1952 2867 1651 
Q 2867 1350 2787 1116 
Q 2707 883 2566 726 
Q 2426 570 2237 486 
Q 2048 403 1837 403 
Q 1626 403 1437 486 
Q 1248 570 1107 726 
Q 966 883 886 1116 
Q 806 1350 806 1651 
z
M 230 1651 
Q 230 1286 332 972 
Q 435 659 640 425 
Q 845 192 1145 61 
Q 1446 -70 1837 -70 
Q 2234 -70 2531 61 
Q 2829 192 3033 425 
Q 3238 659 3340 972 
Q 3443 1286 3443 1651 
Q 3443 2016 3340 2333 
Q 3238 2650 3033 2883 
Q 2829 3117 2531 3251 
Q 2234 3386 1837 3386 
Q 1446 3386 1145 3251 
Q 845 3117 640 2883 
Q 435 2650 332 2333 
Q 230 2016 230 1651 
z
" transform="scale(0.015625)"/>
      <path id="HelveticaNeue-66" d="M 634 2829 
L 634 0 
L 1178 0 
L 1178 2829 
L 1818 2829 
L 1818 3309 
L 1178 3309 
L 1178 3770 
Q 1178 3987 1286 4064 
Q 1395 4141 1594 4141 
Q 1664 4141 1747 4131 
Q 1830 4122 1901 4096 
L 1901 4570 
Q 1824 4595 1725 4608 
Q 1626 4621 1549 4621 
Q 1101 4621 867 4413 
Q 634 4205 634 3802 
L 634 3309 
L 77 3309 
L 77 2829 
L 634 2829 
z
" transform="scale(0.015625)"/>
      <path id="HelveticaNeue-69" d="M 986 3904 
L 986 4570 
L 442 4570 
L 442 3904 
L 986 3904 
z
M 442 3309 
L 442 0 
L 986 0 
L 986 3309 
L 442 3309 
z
" transform="scale(0.015625)"/>
      <path id="HelveticaNeue-67" d="M 3264 282 
L 3264 3309 
L 2752 3309 
L 2752 2835 
L 2746 2835 
Q 2598 3110 2336 3248 
Q 2074 3386 1760 3386 
Q 1331 3386 1036 3222 
Q 742 3059 563 2806 
Q 384 2554 307 2243 
Q 230 1933 230 1638 
Q 230 1299 323 995 
Q 416 691 601 464 
Q 787 237 1062 102 
Q 1338 -32 1709 -32 
Q 2029 -32 2313 112 
Q 2598 256 2739 563 
L 2752 563 
L 2752 346 
Q 2752 70 2697 -160 
Q 2643 -390 2521 -553 
Q 2400 -717 2214 -809 
Q 2029 -902 1760 -902 
Q 1626 -902 1478 -873 
Q 1331 -845 1206 -781 
Q 1082 -717 995 -614 
Q 909 -512 902 -365 
L 358 -365 
Q 371 -634 499 -819 
Q 627 -1005 822 -1120 
Q 1018 -1235 1258 -1286 
Q 1498 -1338 1728 -1338 
Q 2522 -1338 2893 -934 
Q 3264 -531 3264 282 
z
M 1741 442 
Q 1472 442 1293 554 
Q 1114 666 1005 848 
Q 896 1030 851 1254 
Q 806 1478 806 1702 
Q 806 1939 860 2156 
Q 915 2374 1033 2540 
Q 1152 2707 1337 2806 
Q 1523 2906 1786 2906 
Q 2042 2906 2221 2803 
Q 2400 2701 2512 2531 
Q 2624 2362 2675 2150 
Q 2726 1939 2726 1722 
Q 2726 1491 2672 1260 
Q 2618 1030 2502 848 
Q 2387 666 2198 554 
Q 2010 442 1741 442 
z
" transform="scale(0.015625)"/>
      <path id="HelveticaNeue-75" d="M 3149 0 
L 3149 3309 
L 2605 3309 
L 2605 1440 
Q 2605 1216 2544 1027 
Q 2483 838 2361 697 
Q 2240 557 2057 480 
Q 1875 403 1626 403 
Q 1312 403 1133 582 
Q 954 762 954 1069 
L 954 3309 
L 410 3309 
L 410 1133 
Q 410 864 464 643 
Q 518 422 652 262 
Q 787 102 1004 16 
Q 1222 -70 1549 -70 
Q 1914 -70 2182 74 
Q 2451 218 2624 525 
L 2637 525 
L 2637 0 
L 3149 0 
z
" transform="scale(0.015625)"/>
      <path id="HelveticaNeue-74" d="M 1165 3309 
L 1165 4301 
L 621 4301 
L 621 3309 
L 58 3309 
L 58 2829 
L 621 2829 
L 621 723 
Q 621 493 665 352 
Q 710 211 803 134 
Q 896 58 1046 29 
Q 1197 0 1408 0 
L 1824 0 
L 1824 480 
L 1574 480 
Q 1446 480 1366 489 
Q 1286 499 1241 531 
Q 1197 563 1181 620 
Q 1165 678 1165 774 
L 1165 2829 
L 1824 2829 
L 1824 3309 
L 1165 3309 
z
" transform="scale(0.015625)"/>
      <path id="HelveticaNeue-45" d="M 499 4570 
L 499 0 
L 3674 0 
L 3674 512 
L 1107 512 
L 1107 2093 
L 3482 2093 
L 3482 2605 
L 1107 2605 
L 1107 4058 
L 3654 4058 
L 3654 4570 
L 499 4570 
z
" transform="scale(0.015625)"/>
      <path id="HelveticaNeue-78" d="M 1299 1741 
L 58 0 
L 717 0 
L 1638 1370 
L 2560 0 
L 3258 0 
L 1978 1786 
L 3117 3309 
L 2464 3309 
L 1638 2150 
L 845 3309 
L 147 3309 
L 1299 1741 
z
" transform="scale(0.015625)"/>
      <path id="HelveticaNeue-6d" d="M 410 3309 
L 410 0 
L 954 0 
L 954 2061 
Q 954 2157 1002 2301 
Q 1050 2445 1155 2579 
Q 1261 2714 1430 2810 
Q 1600 2906 1837 2906 
Q 2022 2906 2140 2851 
Q 2259 2797 2329 2697 
Q 2400 2598 2429 2464 
Q 2458 2330 2458 2170 
L 2458 0 
L 3002 0 
L 3002 2061 
Q 3002 2445 3232 2675 
Q 3462 2906 3866 2906 
Q 4064 2906 4189 2848 
Q 4314 2790 4384 2691 
Q 4454 2592 4480 2457 
Q 4506 2323 4506 2170 
L 4506 0 
L 5050 0 
L 5050 2426 
Q 5050 2682 4970 2864 
Q 4890 3046 4746 3161 
Q 4602 3277 4400 3331 
Q 4198 3386 3949 3386 
Q 3622 3386 3350 3238 
Q 3078 3091 2912 2822 
Q 2810 3130 2560 3258 
Q 2310 3386 2003 3386 
Q 1306 3386 934 2822 
L 922 2822 
L 922 3309 
L 410 3309 
z
" transform="scale(0.015625)"/>
      <path id="HelveticaNeue-70" d="M 429 3309 
L 429 -1261 
L 973 -1261 
L 973 442 
L 986 442 
Q 1075 294 1206 195 
Q 1338 96 1485 38 
Q 1632 -19 1782 -44 
Q 1933 -70 2054 -70 
Q 2432 -70 2717 64 
Q 3002 198 3190 432 
Q 3379 666 3472 979 
Q 3565 1293 3565 1645 
Q 3565 1997 3469 2310 
Q 3373 2624 3184 2864 
Q 2995 3104 2710 3245 
Q 2426 3386 2042 3386 
Q 1696 3386 1408 3261 
Q 1120 3136 986 2861 
L 973 2861 
L 973 3309 
L 429 3309 
z
M 2989 1683 
Q 2989 1440 2937 1209 
Q 2886 979 2771 800 
Q 2656 621 2467 512 
Q 2278 403 1997 403 
Q 1715 403 1516 508 
Q 1318 614 1193 787 
Q 1069 960 1011 1187 
Q 954 1414 954 1658 
Q 954 1888 1008 2112 
Q 1062 2336 1184 2512 
Q 1306 2688 1498 2797 
Q 1690 2906 1965 2906 
Q 2227 2906 2422 2803 
Q 2618 2701 2742 2528 
Q 2867 2355 2928 2134 
Q 2989 1914 2989 1683 
z
" transform="scale(0.015625)"/>
      <path id="HelveticaNeue-6c" d="M 442 4570 
L 442 0 
L 986 0 
L 986 4570 
L 442 4570 
z
" transform="scale(0.015625)"/>
      <path id="HelveticaNeue-64" d="M 806 1626 
Q 806 1869 857 2099 
Q 909 2330 1024 2509 
Q 1139 2688 1331 2797 
Q 1523 2906 1798 2906 
Q 2080 2906 2278 2800 
Q 2477 2694 2601 2521 
Q 2726 2349 2784 2121 
Q 2842 1894 2842 1651 
Q 2842 1421 2787 1197 
Q 2733 973 2611 797 
Q 2490 621 2298 512 
Q 2106 403 1830 403 
Q 1568 403 1373 505 
Q 1178 608 1053 781 
Q 928 954 867 1174 
Q 806 1395 806 1626 
z
M 3366 0 
L 3366 4570 
L 2822 4570 
L 2822 2867 
L 2810 2867 
Q 2720 3014 2589 3113 
Q 2458 3213 2310 3273 
Q 2163 3334 2016 3360 
Q 1869 3386 1741 3386 
Q 1363 3386 1078 3248 
Q 794 3110 605 2876 
Q 416 2643 323 2329 
Q 230 2016 230 1664 
Q 230 1312 326 998 
Q 422 685 611 448 
Q 800 211 1085 70 
Q 1370 -70 1754 -70 
Q 2099 -70 2387 51 
Q 2675 173 2810 448 
L 2822 448 
L 2822 0 
L 3366 0 
z
" transform="scale(0.015625)"/>
      <path id="HelveticaNeue-76" d="M 1901 0 
L 3110 3309 
L 2541 3309 
L 1638 550 
L 1626 550 
L 698 3309 
L 90 3309 
L 1318 0 
L 1901 0 
z
" transform="scale(0.015625)"/>
     </defs>
     <use xlink:href="#HelveticaNeue-4c"/>
     <use xlink:href="#HelveticaNeue-65" transform="translate(55.599991 0)"/>
     <use xlink:href="#HelveticaNeue-6e" transform="translate(109.299988 0)"/>
     <use xlink:href="#HelveticaNeue-73" transform="translate(164.899979 0)"/>
     <use xlink:href="#HelveticaNeue-20" transform="translate(214.899963 0)"/>
     <use xlink:href="#HelveticaNeue-43" transform="translate(242.699951 0)"/>
     <use xlink:href="#HelveticaNeue-6f" transform="translate(314.899933 0)"/>
     <use xlink:href="#HelveticaNeue-6e" transform="translate(372.299927 0)"/>
     <use xlink:href="#HelveticaNeue-66" transform="translate(427.899918 0)"/>
     <use xlink:href="#HelveticaNeue-69" transform="translate(457.499908 0)"/>
     <use xlink:href="#HelveticaNeue-67" transform="translate(479.699905 0)"/>
     <use xlink:href="#HelveticaNeue-75" transform="translate(537.099899 0)"/>
     <use xlink:href="#HelveticaNeue-72" transform="translate(592.69989 0)"/>
     <use xlink:href="#HelveticaNeue-61" transform="translate(625.999878 0)"/>
     <use xlink:href="#HelveticaNeue-74" transform="translate(679.699875 0)"/>
     <use xlink:href="#HelveticaNeue-69" transform="translate(711.19986 0)"/>
     <use xlink:href="#HelveticaNeue-6f" transform="translate(733.399857 0)"/>
     <use xlink:href="#HelveticaNeue-6e" transform="translate(790.79985 0)"/>
     <use xlink:href="#HelveticaNeue-20" transform="translate(846.399841 0)"/>
     <use xlink:href="#HelveticaNeue-66" transform="translate(874.199829 0)"/>
     <use xlink:href="#HelveticaNeue-6f" transform="translate(903.79982 0)"/>
     <use xlink:href="#HelveticaNeue-72" transform="translate(961.199814 0)"/>
     <use xlink:href="#HelveticaNeue-20" transform="translate(994.499802 0)"/>
     <use xlink:href="#HelveticaNeue-45" transform="translate(1022.299789 0)"/>
     <use xlink:href="#HelveticaNeue-78" transform="translate(1083.39978 0)"/>
     <use xlink:href="#HelveticaNeue-61" transform="translate(1135.199768 0)"/>
     <use xlink:href="#HelveticaNeue-6d" transform="translate(1188.899765 0)"/>
     <use xlink:href="#HelveticaNeue-70" transform="translate(1274.199753 0)"/>
     <use xlink:href="#HelveticaNeue-6c" transform="translate(1333.499741 0)"/>
     <use xlink:href="#HelveticaNeue-65" transform="translate(1355.699738 0)"/>
     <use xlink:href="#HelveticaNeue-20" transform="translate(1409.399734 0)"/>
     <use xlink:href="#HelveticaNeue-44" transform="translate(1437.199722 0)"/>
     <use xlink:href="#HelveticaNeue-65" transform="translate(1507.599716 0)"/>
     <use xlink:href="#HelveticaNeue-74" transform="translate(1561.299713 0)"/>
     <use xlink:href="#HelveticaNeue-65" transform="translate(1592.799698 0)"/>
     <use xlink:href="#HelveticaNeue-63" transform="translate(1646.499695 0)"/>
     <use xlink:href="#HelveticaNeue-74" transform="translate(1700.199692 0)"/>
     <use xlink:href="#HelveticaNeue-65" transform="translate(1731.699677 0)"/>
     <use xlink:href="#HelveticaNeue-64" transform="translate(1785.399673 0)"/>
     <use xlink:href="#HelveticaNeue-20" transform="translate(1844.699661 0)"/>
     <use xlink:href="#HelveticaNeue-4c" transform="translate(1872.499649 0)"/>
     <use xlink:href="#HelveticaNeue-65" transform="translate(1928.09964 0)"/>
     <use xlink:href="#HelveticaNeue-6e" transform="translate(1981.799637 0)"/>
     <use xlink:href="#HelveticaNeue-73" transform="translate(2037.399628 0)"/>
     <use xlink:href="#HelveticaNeue-65" transform="translate(2087.399612 0)"/>
     <use xlink:href="#HelveticaNeue-64" transform="translate(2141.099609 0)"/>
     <use xlink:href="#HelveticaNeue-20" transform="translate(2200.399597 0)"/>
     <use xlink:href="#HelveticaNeue-45" transform="translate(2228.199585 0)"/>
     <use xlink:href="#HelveticaNeue-76" transform="translate(2289.299576 0)"/>
     <use xlink:href="#HelveticaNeue-65" transform="translate(2339.299561 0)"/>
     <use xlink:href="#HelveticaNeue-6e" transform="translate(2392.999557 0)"/>
     <use xlink:href="#HelveticaNeue-74" transform="translate(2448.599548 0)"/>
    </g>
   </g>
   <g id="legend_1">
    <g id="patch_8">
     <path d="M 383.855056 216.331277 
L 549.181306 216.331277 
Q 551.581306 216.331277 551.581306 213.931277 
L 551.581306 26.510402 
Q 551.581306 24.110402 549.181306 24.110402 
L 383.855056 24.110402 
Q 381.455056 24.110402 381.455056 26.510402 
L 381.455056 213.931277 
Q 381.455056 216.331277 383.855056 216.331277 
z
" style="fill: #ffffff; opacity: 0.8; stroke: #d3d3d3; stroke-linejoin: miter"/>
    </g>
    <g id="line2d_90">
     <path d="M 386.255056 33.279152 
L 401.255056 33.279152 
L 416.255056 33.279152 
" style="fill: none; stroke-dasharray: 5.55,2.4; stroke-dashoffset: 0; stroke: #8d6e63; stroke-opacity: 0.85; stroke-width: 1.5"/>
    </g>
    <g id="text_18">
     <!-- Double Caustic -->
     <g transform="translate(425.855056 37.479152) scale(0.12 -0.12)">
      <defs>
       <path id="HelveticaNeue-62" d="M 429 4570 
L 429 0 
L 973 0 
L 973 442 
L 986 442 
Q 1075 294 1206 195 
Q 1338 96 1485 38 
Q 1632 -19 1782 -44 
Q 1933 -70 2054 -70 
Q 2432 -70 2717 64 
Q 3002 198 3190 432 
Q 3379 666 3472 979 
Q 3565 1293 3565 1645 
Q 3565 1997 3469 2310 
Q 3373 2624 3184 2864 
Q 2995 3104 2710 3245 
Q 2426 3386 2042 3386 
Q 1696 3386 1408 3261 
Q 1120 3136 986 2861 
L 973 2861 
L 973 4570 
L 429 4570 
z
M 2989 1683 
Q 2989 1440 2937 1209 
Q 2886 979 2771 800 
Q 2656 621 2467 512 
Q 2278 403 1997 403 
Q 1715 403 1516 508 
Q 1318 614 1193 787 
Q 1069 960 1011 1187 
Q 954 1414 954 1658 
Q 954 1888 1008 2112 
Q 1062 2336 1184 2512 
Q 1306 2688 1498 2797 
Q 1690 2906 1965 2906 
Q 2227 2906 2422 2803 
Q 2618 2701 2742 2528 
Q 2867 2355 2928 2134 
Q 2989 1914 2989 1683 
z
" transform="scale(0.015625)"/>
      </defs>
      <use xlink:href="#HelveticaNeue-44"/>
      <use xlink:href="#HelveticaNeue-6f" transform="translate(70.399994 0)"/>
      <use xlink:href="#HelveticaNeue-75" transform="translate(127.799988 0)"/>
      <use xlink:href="#HelveticaNeue-62" transform="translate(183.399979 0)"/>
      <use xlink:href="#HelveticaNeue-6c" transform="translate(242.699966 0)"/>
      <use xlink:href="#HelveticaNeue-65" transform="translate(264.899963 0)"/>
      <use xlink:href="#HelveticaNeue-20" transform="translate(318.59996 0)"/>
      <use xlink:href="#HelveticaNeue-43" transform="translate(346.399948 0)"/>
      <use xlink:href="#HelveticaNeue-61" transform="translate(418.59993 0)"/>
      <use xlink:href="#HelveticaNeue-75" transform="translate(472.299927 0)"/>
      <use xlink:href="#HelveticaNeue-73" transform="translate(527.899918 0)"/>
      <use xlink:href="#HelveticaNeue-74" transform="translate(577.899902 0)"/>
      <use xlink:href="#HelveticaNeue-69" transform="translate(609.399887 0)"/>
      <use xlink:href="#HelveticaNeue-63" transform="translate(631.599884 0)"/>
     </g>
    </g>
    <g id="line2d_91">
     <path d="M 386.255056 50.212277 
L 401.255056 50.212277 
L 416.255056 50.212277 
" style="fill: none; stroke: #7e57c2; stroke-opacity: 0.85; stroke-width: 1.5; stroke-linecap: square"/>
    </g>
    <g id="text_19">
     <!-- Quad Caustic -->
     <g transform="translate(425.855056 54.412277) scale(0.12 -0.12)">
      <defs>
       <path id="HelveticaNeue-51" d="M 2880 1306 
L 2560 934 
L 3066 531 
Q 2758 403 2432 403 
Q 2016 403 1715 566 
Q 1414 730 1222 998 
Q 1030 1267 940 1603 
Q 851 1939 851 2285 
Q 851 2630 940 2966 
Q 1030 3302 1222 3571 
Q 1414 3840 1715 4003 
Q 2016 4166 2432 4166 
Q 2848 4166 3149 4003 
Q 3450 3840 3642 3571 
Q 3834 3302 3923 2966 
Q 4013 2630 4013 2285 
Q 4013 1862 3885 1475 
Q 3757 1088 3488 819 
L 2880 1306 
z
M 4224 -390 
L 4531 -6 
L 3930 467 
Q 4275 813 4448 1286 
Q 4621 1760 4621 2285 
Q 4621 2752 4483 3184 
Q 4346 3616 4070 3949 
Q 3795 4282 3385 4480 
Q 2976 4678 2432 4678 
Q 1888 4678 1478 4480 
Q 1069 4282 793 3949 
Q 518 3616 380 3184 
Q 243 2752 243 2285 
Q 243 1818 380 1386 
Q 518 954 793 621 
Q 1069 288 1478 93 
Q 1888 -102 2432 -102 
Q 3066 -102 3526 166 
L 4224 -390 
z
" transform="scale(0.015625)"/>
      </defs>
      <use xlink:href="#HelveticaNeue-51"/>
      <use xlink:href="#HelveticaNeue-75" transform="translate(75.999985 0)"/>
      <use xlink:href="#HelveticaNeue-61" transform="translate(131.599976 0)"/>
      <use xlink:href="#HelveticaNeue-64" transform="translate(185.299973 0)"/>
      <use xlink:href="#HelveticaNeue-20" transform="translate(244.59996 0)"/>
      <use xlink:href="#HelveticaNeue-43" transform="translate(272.399948 0)"/>
      <use xlink:href="#HelveticaNeue-61" transform="translate(344.59993 0)"/>
      <use xlink:href="#HelveticaNeue-75" transform="translate(398.299927 0)"/>
      <use xlink:href="#HelveticaNeue-73" transform="translate(453.899918 0)"/>
      <use xlink:href="#HelveticaNeue-74" transform="translate(503.899902 0)"/>
      <use xlink:href="#HelveticaNeue-69" transform="translate(535.399887 0)"/>
      <use xlink:href="#HelveticaNeue-63" transform="translate(557.599884 0)"/>
     </g>
    </g>
    <g id="patch_9">
     <path d="M 386.255056 71.345402 
L 416.255056 71.345402 
L 416.255056 62.945402 
L 386.255056 62.945402 
L 386.255056 71.345402 
z
" style="fill: none; stroke-dasharray: 1.5,2.475; stroke-dashoffset: 0; stroke: #616161; stroke-width: 1.5; stroke-linejoin: miter"/>
    </g>
    <g id="text_20">
     <!-- Einstein Ring -->
     <g transform="translate(425.855056 71.345402) scale(0.12 -0.12)">
      <use xlink:href="#HelveticaNeue-45"/>
      <use xlink:href="#HelveticaNeue-69" transform="translate(61.099991 0)"/>
      <use xlink:href="#HelveticaNeue-6e" transform="translate(83.299988 0)"/>
      <use xlink:href="#HelveticaNeue-73" transform="translate(138.899979 0)"/>
      <use xlink:href="#HelveticaNeue-74" transform="translate(188.899963 0)"/>
      <use xlink:href="#HelveticaNeue-65" transform="translate(220.399948 0)"/>
      <use xlink:href="#HelveticaNeue-69" transform="translate(274.099945 0)"/>
      <use xlink:href="#HelveticaNeue-6e" transform="translate(296.299942 0)"/>
      <use xlink:href="#HelveticaNeue-20" transform="translate(351.899933 0)"/>
      <use xlink:href="#HelveticaNeue-52" transform="translate(379.699921 0)"/>
      <use xlink:href="#HelveticaNeue-69" transform="translate(448.199905 0)"/>
      <use xlink:href="#HelveticaNeue-6e" transform="translate(470.399902 0)"/>
      <use xlink:href="#HelveticaNeue-67" transform="translate(525.999893 0)"/>
     </g>
    </g>
    <g id="line2d_92">
     <defs>
      <path id="mcd47f4a0eb" d="M -5 5 
L 5 -5 
M -5 -5 
L 5 5 
" style="stroke: #e53935; stroke-opacity: 0.85"/>
     </defs>
     <g>
      <use xlink:href="#mcd47f4a0eb" x="401.255056" y="84.222902" style="fill: #e53935; fill-opacity: 0.85; stroke: #e53935; stroke-opacity: 0.85"/>
     </g>
    </g>
    <g id="text_21">
     <!-- Source -->
     <g transform="translate(425.855056 88.422902) scale(0.12 -0.12)">
      <defs>
       <path id="HelveticaNeue-53" d="M 3142 3232 
L 3718 3232 
Q 3706 3610 3574 3882 
Q 3443 4154 3216 4333 
Q 2989 4512 2688 4595 
Q 2387 4678 2035 4678 
Q 1722 4678 1424 4598 
Q 1126 4518 892 4355 
Q 659 4192 518 3939 
Q 378 3686 378 3341 
Q 378 3027 502 2819 
Q 627 2611 835 2480 
Q 1043 2349 1305 2269 
Q 1568 2189 1840 2128 
Q 2112 2067 2374 2009 
Q 2637 1952 2845 1859 
Q 3053 1766 3177 1619 
Q 3302 1472 3302 1235 
Q 3302 986 3200 826 
Q 3098 666 2931 573 
Q 2765 480 2557 441 
Q 2349 403 2144 403 
Q 1888 403 1645 467 
Q 1402 531 1219 665 
Q 1037 800 925 1008 
Q 813 1216 813 1504 
L 237 1504 
Q 237 1088 387 784 
Q 538 480 797 285 
Q 1056 90 1398 -6 
Q 1741 -102 2125 -102 
Q 2438 -102 2755 -28 
Q 3072 45 3328 208 
Q 3584 371 3747 630 
Q 3910 890 3910 1254 
Q 3910 1594 3785 1818 
Q 3661 2042 3453 2189 
Q 3245 2336 2982 2422 
Q 2720 2509 2448 2573 
Q 2176 2637 1913 2691 
Q 1651 2746 1443 2829 
Q 1235 2912 1110 3043 
Q 986 3174 986 3386 
Q 986 3610 1072 3760 
Q 1158 3910 1302 4000 
Q 1446 4090 1632 4128 
Q 1818 4166 2010 4166 
Q 2483 4166 2787 3945 
Q 3091 3725 3142 3232 
z
" transform="scale(0.015625)"/>
      </defs>
      <use xlink:href="#HelveticaNeue-53"/>
      <use xlink:href="#HelveticaNeue-6f" transform="translate(64.799988 0)"/>
      <use xlink:href="#HelveticaNeue-75" transform="translate(122.199982 0)"/>
      <use xlink:href="#HelveticaNeue-72" transform="translate(177.799973 0)"/>
      <use xlink:href="#HelveticaNeue-63" transform="translate(209.34996 0)"/>
      <use xlink:href="#HelveticaNeue-65" transform="translate(263.049957 0)"/>
     </g>
    </g>
    <g id="line2d_93">
     <defs>
      <path id="m109276882c" d="M 0 2.5 
C 0.663008 2.5 1.29895 2.236584 1.767767 1.767767 
C 2.236584 1.29895 2.5 0.663008 2.5 0 
C 2.5 -0.663008 2.236584 -1.29895 1.767767 -1.767767 
C 1.29895 -2.236584 0.663008 -2.5 0 -2.5 
C -0.663008 -2.5 -1.29895 -2.236584 -1.767767 -1.767767 
C -2.236584 -1.29895 -2.5 -0.663008 -2.5 0 
C -2.5 0.663008 -2.236584 1.29895 -1.767767 1.767767 
C -1.29895 2.236584 -0.663008 2.5 0 2.5 
z
" style="stroke: #1e88e5; stroke-opacity: 0.85"/>
     </defs>
     <g>
      <use xlink:href="#m109276882c" x="401.255056" y="108.964652" style="fill: #1e88e5; fill-opacity: 0.85; stroke: #1e88e5; stroke-opacity: 0.85"/>
     </g>
    </g>
    <g id="text_22">
     <!-- Image 1 (not detected) -->
     <g transform="translate(425.855056 105.558527) scale(0.12 -0.12)">
      <defs>
       <path id="HelveticaNeue-49" d="M 525 4570 
L 525 0 
L 1133 0 
L 1133 4570 
L 525 4570 
z
" transform="scale(0.015625)"/>
       <path id="HelveticaNeue-28" d="M 1306 -1261 
L 1722 -1261 
Q 1267 -525 1072 198 
Q 877 922 877 1728 
Q 877 2515 1069 3232 
Q 1261 3949 1722 4678 
L 1306 4678 
Q 806 4019 553 3251 
Q 301 2483 301 1728 
Q 301 1306 371 922 
Q 442 538 573 173 
Q 704 -192 889 -547 
Q 1075 -902 1306 -1261 
z
" transform="scale(0.015625)"/>
       <path id="HelveticaNeue-29" d="M -58 -1261 
L 352 -1261 
Q 851 -602 1104 163 
Q 1357 928 1357 1683 
Q 1357 2106 1286 2490 
Q 1216 2874 1085 3242 
Q 954 3610 768 3965 
Q 582 4320 352 4678 
L -58 4678 
Q 390 3942 585 3216 
Q 781 2490 781 1683 
Q 781 902 589 182 
Q 397 -538 -58 -1261 
z
" transform="scale(0.015625)"/>
      </defs>
      <use xlink:href="#HelveticaNeue-49"/>
      <use xlink:href="#HelveticaNeue-6d" transform="translate(25.899994 0)"/>
      <use xlink:href="#HelveticaNeue-61" transform="translate(111.199982 0)"/>
      <use xlink:href="#HelveticaNeue-67" transform="translate(164.899979 0)"/>
      <use xlink:href="#HelveticaNeue-65" transform="translate(222.299973 0)"/>
      <use xlink:href="#HelveticaNeue-20" transform="translate(275.999969 0)"/>
      <use xlink:href="#HelveticaNeue-31" transform="translate(303.799957 0)"/>
      <use xlink:href="#HelveticaNeue-20" transform="translate(359.399948 0)"/>
      <use xlink:href="#HelveticaNeue-28" transform="translate(387.199936 0)"/>
      <use xlink:href="#HelveticaNeue-6e" transform="translate(413.09993 0)"/>
      <use xlink:href="#HelveticaNeue-6f" transform="translate(468.699921 0)"/>
      <use xlink:href="#HelveticaNeue-74" transform="translate(526.099915 0)"/>
      <use xlink:href="#HelveticaNeue-20" transform="translate(557.599899 0)"/>
      <use xlink:href="#HelveticaNeue-64" transform="translate(585.399887 0)"/>
      <use xlink:href="#HelveticaNeue-65" transform="translate(644.699875 0)"/>
      <use xlink:href="#HelveticaNeue-74" transform="translate(698.399872 0)"/>
      <use xlink:href="#HelveticaNeue-65" transform="translate(729.899857 0)"/>
      <use xlink:href="#HelveticaNeue-63" transform="translate(783.599854 0)"/>
      <use xlink:href="#HelveticaNeue-74" transform="translate(837.29985 0)"/>
      <use xlink:href="#HelveticaNeue-65" transform="translate(868.799835 0)"/>
      <use xlink:href="#HelveticaNeue-64" transform="translate(922.499832 0)"/>
      <use xlink:href="#HelveticaNeue-29" transform="translate(981.79982 0)"/>
     </g>
     <!-- Magnification: 3.2 -->
     <g transform="translate(425.855056 118.464527) scale(0.12 -0.12)">
      <defs>
       <path id="HelveticaNeue-4d" d="M 512 4570 
L 512 0 
L 1088 0 
L 1088 3802 
L 1101 3802 
L 2528 0 
L 3046 0 
L 4474 3802 
L 4486 3802 
L 4486 0 
L 5062 0 
L 5062 4570 
L 4230 4570 
L 2784 730 
L 1344 4570 
L 512 4570 
z
" transform="scale(0.015625)"/>
       <path id="HelveticaNeue-3a" d="M 1242 2598 
L 1242 3309 
L 531 3309 
L 531 2598 
L 1242 2598 
z
M 531 710 
L 531 0 
L 1242 0 
L 1242 710 
L 531 710 
z
" transform="scale(0.015625)"/>
       <path id="HelveticaNeue-33" d="M 1395 2592 
L 1395 2131 
Q 1549 2150 1722 2150 
Q 1926 2150 2102 2096 
Q 2278 2042 2406 1930 
Q 2534 1818 2611 1654 
Q 2688 1491 2688 1280 
Q 2688 1075 2608 912 
Q 2528 749 2393 637 
Q 2259 525 2080 464 
Q 1901 403 1702 403 
Q 1235 403 992 681 
Q 749 960 736 1402 
L 192 1402 
Q 186 1050 291 774 
Q 397 499 595 310 
Q 794 122 1075 26 
Q 1357 -70 1702 -70 
Q 2022 -70 2307 16 
Q 2592 102 2803 275 
Q 3014 448 3139 707 
Q 3264 966 3264 1306 
Q 3264 1715 3062 2016 
Q 2861 2317 2445 2406 
L 2445 2419 
Q 2714 2541 2893 2777 
Q 3072 3014 3072 3322 
Q 3072 3635 2966 3865 
Q 2861 4096 2675 4243 
Q 2490 4390 2237 4464 
Q 1984 4538 1690 4538 
Q 1350 4538 1091 4429 
Q 832 4320 659 4128 
Q 486 3936 393 3667 
Q 301 3398 288 3072 
L 832 3072 
Q 832 3270 883 3449 
Q 934 3629 1040 3763 
Q 1146 3898 1309 3978 
Q 1472 4058 1690 4058 
Q 2035 4058 2265 3875 
Q 2496 3693 2496 3328 
Q 2496 3149 2425 3008 
Q 2355 2867 2236 2774 
Q 2118 2682 1961 2634 
Q 1805 2586 1632 2586 
L 1517 2586 
Q 1485 2586 1453 2586 
Q 1427 2586 1395 2592 
z
" transform="scale(0.015625)"/>
       <path id="HelveticaNeue-32" d="M 282 2931 
L 826 2931 
Q 819 3136 867 3337 
Q 915 3539 1024 3699 
Q 1133 3859 1302 3958 
Q 1472 4058 1709 4058 
Q 1888 4058 2048 4000 
Q 2208 3942 2326 3833 
Q 2445 3725 2515 3574 
Q 2586 3424 2586 3238 
Q 2586 3002 2512 2822 
Q 2438 2643 2294 2489 
Q 2150 2336 1932 2185 
Q 1715 2035 1427 1856 
Q 1190 1715 972 1555 
Q 755 1395 582 1184 
Q 410 973 298 688 
Q 186 403 154 0 
L 3117 0 
L 3117 480 
L 787 480 
Q 826 691 950 854 
Q 1075 1018 1251 1158 
Q 1427 1299 1638 1424 
Q 1850 1549 2061 1677 
Q 2272 1811 2470 1958 
Q 2669 2106 2822 2288 
Q 2976 2470 3069 2700 
Q 3162 2931 3162 3232 
Q 3162 3552 3050 3795 
Q 2938 4038 2746 4201 
Q 2554 4365 2294 4451 
Q 2035 4538 1741 4538 
Q 1382 4538 1100 4416 
Q 819 4294 630 4080 
Q 442 3866 352 3571 
Q 262 3277 282 2931 
z
" transform="scale(0.015625)"/>
      </defs>
      <use xlink:href="#HelveticaNeue-4d"/>
      <use xlink:href="#HelveticaNeue-61" transform="translate(87.099991 0)"/>
      <use xlink:href="#HelveticaNeue-67" transform="translate(140.799988 0)"/>
      <use xlink:href="#HelveticaNeue-6e" transform="translate(198.199982 0)"/>
      <use xlink:href="#HelveticaNeue-69" transform="translate(253.799973 0)"/>
      <use xlink:href="#HelveticaNeue-66" transform="translate(275.999969 0)"/>
      <use xlink:href="#HelveticaNeue-69" transform="translate(305.59996 0)"/>
      <use xlink:href="#HelveticaNeue-63" transform="translate(327.799957 0)"/>
      <use xlink:href="#HelveticaNeue-61" transform="translate(381.499954 0)"/>
      <use xlink:href="#HelveticaNeue-74" transform="translate(435.199951 0)"/>
      <use xlink:href="#HelveticaNeue-69" transform="translate(466.699936 0)"/>
      <use xlink:href="#HelveticaNeue-6f" transform="translate(488.899933 0)"/>
      <use xlink:href="#HelveticaNeue-6e" transform="translate(546.299927 0)"/>
      <use xlink:href="#HelveticaNeue-3a" transform="translate(601.899918 0)"/>
      <use xlink:href="#HelveticaNeue-20" transform="translate(629.699905 0)"/>
      <use xlink:href="#HelveticaNeue-33" transform="translate(657.499893 0)"/>
      <use xlink:href="#HelveticaNeue-2e" transform="translate(713.099884 0)"/>
      <use xlink:href="#HelveticaNeue-32" transform="translate(740.899872 0)"/>
     </g>
    </g>
    <g id="line2d_94">
     <defs>
      <path id="mccbb4df513" d="M 0 -7.5 
L -1.683855 -2.317627 
L -7.132924 -2.317627 
L -2.724534 0.885255 
L -4.408389 6.067627 
L -0 2.864745 
L 4.408389 6.067627 
L 2.724534 0.885255 
L 7.132924 -2.317627 
L 1.683855 -2.317627 
z
" style="stroke: #7e57c2; stroke-opacity: 0.85; stroke-linejoin: bevel"/>
     </defs>
     <g>
      <use xlink:href="#mccbb4df513" x="401.255056" y="139.150652" style="fill: #7e57c2; fill-opacity: 0.85; stroke: #7e57c2; stroke-opacity: 0.85; stroke-linejoin: bevel"/>
     </g>
    </g>
    <g id="text_23">
     <!-- Image 2 (detected) -->
     <g transform="translate(425.855056 135.744527) scale(0.12 -0.12)">
      <use xlink:href="#HelveticaNeue-49"/>
      <use xlink:href="#HelveticaNeue-6d" transform="translate(25.899994 0)"/>
      <use xlink:href="#HelveticaNeue-61" transform="translate(111.199982 0)"/>
      <use xlink:href="#HelveticaNeue-67" transform="translate(164.899979 0)"/>
      <use xlink:href="#HelveticaNeue-65" transform="translate(222.299973 0)"/>
      <use xlink:href="#HelveticaNeue-20" transform="translate(275.999969 0)"/>
      <use xlink:href="#HelveticaNeue-32" transform="translate(303.799957 0)"/>
      <use xlink:href="#HelveticaNeue-20" transform="translate(359.399948 0)"/>
      <use xlink:href="#HelveticaNeue-28" transform="translate(387.199936 0)"/>
      <use xlink:href="#HelveticaNeue-64" transform="translate(413.09993 0)"/>
      <use xlink:href="#HelveticaNeue-65" transform="translate(472.399918 0)"/>
      <use xlink:href="#HelveticaNeue-74" transform="translate(526.099915 0)"/>
      <use xlink:href="#HelveticaNeue-65" transform="translate(557.599899 0)"/>
      <use xlink:href="#HelveticaNeue-63" transform="translate(611.299896 0)"/>
      <use xlink:href="#HelveticaNeue-74" transform="translate(664.999893 0)"/>
      <use xlink:href="#HelveticaNeue-65" transform="translate(696.499878 0)"/>
      <use xlink:href="#HelveticaNeue-64" transform="translate(750.199875 0)"/>
      <use xlink:href="#HelveticaNeue-29" transform="translate(809.499863 0)"/>
     </g>
     <!-- Magnification: 16.7 -->
     <g transform="translate(425.855056 148.650527) scale(0.12 -0.12)">
      <defs>
       <path id="HelveticaNeue-36" d="M 2650 3379 
L 3194 3379 
Q 3142 3942 2809 4240 
Q 2477 4538 1914 4538 
Q 1427 4538 1107 4333 
Q 787 4128 595 3789 
Q 403 3450 323 3011 
Q 243 2573 243 2106 
Q 243 1747 297 1363 
Q 352 979 518 659 
Q 685 339 992 134 
Q 1299 -70 1805 -70 
Q 2234 -70 2525 74 
Q 2816 218 2992 438 
Q 3168 659 3245 928 
Q 3322 1197 3322 1446 
Q 3322 1760 3226 2029 
Q 3130 2298 2954 2496 
Q 2778 2694 2518 2806 
Q 2259 2918 1933 2918 
Q 1562 2918 1277 2777 
Q 992 2637 800 2323 
L 787 2336 
Q 794 2598 838 2899 
Q 883 3200 1001 3459 
Q 1120 3718 1331 3888 
Q 1542 4058 1888 4058 
Q 2214 4058 2412 3872 
Q 2611 3686 2650 3379 
z
M 1830 2438 
Q 2061 2438 2233 2355 
Q 2406 2272 2521 2134 
Q 2637 1997 2691 1808 
Q 2746 1619 2746 1408 
Q 2746 1210 2685 1027 
Q 2624 845 2509 704 
Q 2394 563 2224 483 
Q 2054 403 1830 403 
Q 1606 403 1430 483 
Q 1254 563 1136 697 
Q 1018 832 954 1017 
Q 890 1203 890 1414 
Q 890 1626 950 1814 
Q 1011 2003 1132 2140 
Q 1254 2278 1427 2358 
Q 1600 2438 1830 2438 
z
" transform="scale(0.015625)"/>
       <path id="HelveticaNeue-37" d="M 3258 3994 
L 3258 4461 
L 320 4461 
L 320 3949 
L 2701 3949 
Q 2342 3571 2032 3123 
Q 1722 2675 1485 2172 
Q 1248 1670 1097 1123 
Q 947 576 909 0 
L 1517 0 
Q 1549 531 1696 1094 
Q 1843 1658 2076 2189 
Q 2310 2720 2611 3187 
Q 2912 3654 3258 3994 
z
" transform="scale(0.015625)"/>
      </defs>
      <use xlink:href="#HelveticaNeue-4d"/>
      <use xlink:href="#HelveticaNeue-61" transform="translate(87.099991 0)"/>
      <use xlink:href="#HelveticaNeue-67" transform="translate(140.799988 0)"/>
      <use xlink:href="#HelveticaNeue-6e" transform="translate(198.199982 0)"/>
      <use xlink:href="#HelveticaNeue-69" transform="translate(253.799973 0)"/>
      <use xlink:href="#HelveticaNeue-66" transform="translate(275.999969 0)"/>
      <use xlink:href="#HelveticaNeue-69" transform="translate(305.59996 0)"/>
      <use xlink:href="#HelveticaNeue-63" transform="translate(327.799957 0)"/>
      <use xlink:href="#HelveticaNeue-61" transform="translate(381.499954 0)"/>
      <use xlink:href="#HelveticaNeue-74" transform="translate(435.199951 0)"/>
      <use xlink:href="#HelveticaNeue-69" transform="translate(466.699936 0)"/>
      <use xlink:href="#HelveticaNeue-6f" transform="translate(488.899933 0)"/>
      <use xlink:href="#HelveticaNeue-6e" transform="translate(546.299927 0)"/>
      <use xlink:href="#HelveticaNeue-3a" transform="translate(601.899918 0)"/>
      <use xlink:href="#HelveticaNeue-20" transform="translate(629.699905 0)"/>
      <use xlink:href="#HelveticaNeue-31" transform="translate(657.499893 0)"/>
      <use xlink:href="#HelveticaNeue-36" transform="translate(713.099884 0)"/>
      <use xlink:href="#HelveticaNeue-2e" transform="translate(768.699875 0)"/>
      <use xlink:href="#HelveticaNeue-37" transform="translate(796.499863 0)"/>
     </g>
    </g>
    <g id="line2d_95">
     <defs>
      <path id="m4dd6230c32" d="M 0 -7.5 
L -1.683855 -2.317627 
L -7.132924 -2.317627 
L -2.724534 0.885255 
L -4.408389 6.067627 
L -0 2.864745 
L 4.408389 6.067627 
L 2.724534 0.885255 
L 7.132924 -2.317627 
L 1.683855 -2.317627 
z
" style="stroke: #8d6e63; stroke-opacity: 0.85; stroke-linejoin: bevel"/>
     </defs>
     <g>
      <use xlink:href="#m4dd6230c32" x="401.255056" y="169.336652" style="fill: #8d6e63; fill-opacity: 0.85; stroke: #8d6e63; stroke-opacity: 0.85; stroke-linejoin: bevel"/>
     </g>
    </g>
    <g id="text_24">
     <!-- Image 3 (detected) -->
     <g transform="translate(425.855056 165.930527) scale(0.12 -0.12)">
      <use xlink:href="#HelveticaNeue-49"/>
      <use xlink:href="#HelveticaNeue-6d" transform="translate(25.899994 0)"/>
      <use xlink:href="#HelveticaNeue-61" transform="translate(111.199982 0)"/>
      <use xlink:href="#HelveticaNeue-67" transform="translate(164.899979 0)"/>
      <use xlink:href="#HelveticaNeue-65" transform="translate(222.299973 0)"/>
      <use xlink:href="#HelveticaNeue-20" transform="translate(275.999969 0)"/>
      <use xlink:href="#HelveticaNeue-33" transform="translate(303.799957 0)"/>
      <use xlink:href="#HelveticaNeue-20" transform="translate(359.399948 0)"/>
      <use xlink:href="#HelveticaNeue-28" transform="translate(387.199936 0)"/>
      <use xlink:href="#HelveticaNeue-64" transform="translate(413.09993 0)"/>
      <use xlink:href="#HelveticaNeue-65" transform="translate(472.399918 0)"/>
      <use xlink:href="#HelveticaNeue-74" transform="translate(526.099915 0)"/>
      <use xlink:href="#HelveticaNeue-65" transform="translate(557.599899 0)"/>
      <use xlink:href="#HelveticaNeue-63" transform="translate(611.299896 0)"/>
      <use xlink:href="#HelveticaNeue-74" transform="translate(664.999893 0)"/>
      <use xlink:href="#HelveticaNeue-65" transform="translate(696.499878 0)"/>
      <use xlink:href="#HelveticaNeue-64" transform="translate(750.199875 0)"/>
      <use xlink:href="#HelveticaNeue-29" transform="translate(809.499863 0)"/>
     </g>
     <!-- Magnification: 16.5 -->
     <g transform="translate(425.855056 178.836527) scale(0.12 -0.12)">
      <use xlink:href="#HelveticaNeue-4d"/>
      <use xlink:href="#HelveticaNeue-61" transform="translate(87.099991 0)"/>
      <use xlink:href="#HelveticaNeue-67" transform="translate(140.799988 0)"/>
      <use xlink:href="#HelveticaNeue-6e" transform="translate(198.199982 0)"/>
      <use xlink:href="#HelveticaNeue-69" transform="translate(253.799973 0)"/>
      <use xlink:href="#HelveticaNeue-66" transform="translate(275.999969 0)"/>
      <use xlink:href="#HelveticaNeue-69" transform="translate(305.59996 0)"/>
      <use xlink:href="#HelveticaNeue-63" transform="translate(327.799957 0)"/>
      <use xlink:href="#HelveticaNeue-61" transform="translate(381.499954 0)"/>
      <use xlink:href="#HelveticaNeue-74" transform="translate(435.199951 0)"/>
      <use xlink:href="#HelveticaNeue-69" transform="translate(466.699936 0)"/>
      <use xlink:href="#HelveticaNeue-6f" transform="translate(488.899933 0)"/>
      <use xlink:href="#HelveticaNeue-6e" transform="translate(546.299927 0)"/>
      <use xlink:href="#HelveticaNeue-3a" transform="translate(601.899918 0)"/>
      <use xlink:href="#HelveticaNeue-20" transform="translate(629.699905 0)"/>
      <use xlink:href="#HelveticaNeue-31" transform="translate(657.499893 0)"/>
      <use xlink:href="#HelveticaNeue-36" transform="translate(713.099884 0)"/>
      <use xlink:href="#HelveticaNeue-2e" transform="translate(768.699875 0)"/>
      <use xlink:href="#HelveticaNeue-35" transform="translate(796.499863 0)"/>
     </g>
    </g>
    <g id="line2d_96">
     <defs>
      <path id="mccc0da0c42" d="M 0 2.5 
C 0.663008 2.5 1.29895 2.236584 1.767767 1.767767 
C 2.236584 1.29895 2.5 0.663008 2.5 0 
C 2.5 -0.663008 2.236584 -1.29895 1.767767 -1.767767 
C 1.29895 -2.236584 0.663008 -2.5 0 -2.5 
C -0.663008 -2.5 -1.29895 -2.236584 -1.767767 -1.767767 
C -2.236584 -1.29895 -2.5 -0.663008 -2.5 0 
C -2.5 0.663008 -2.236584 1.29895 -1.767767 1.767767 
C -1.29895 2.236584 -0.663008 2.5 0 2.5 
z
" style="stroke: #000000; stroke-opacity: 0.85"/>
     </defs>
     <g>
      <use xlink:href="#mccc0da0c42" x="401.255056" y="199.522652" style="fill-opacity: 0.85; stroke: #000000; stroke-opacity: 0.85"/>
     </g>
    </g>
    <g id="text_25">
     <!-- Image 4 (not detected) -->
     <g transform="translate(425.855056 196.116527) scale(0.12 -0.12)">
      <defs>
       <path id="HelveticaNeue-34" d="M 2170 1542 
L 646 1542 
L 2157 3763 
L 2170 3763 
L 2170 1542 
z
M 2682 1542 
L 2682 4538 
L 2246 4538 
L 179 1587 
L 179 1062 
L 2170 1062 
L 2170 0 
L 2682 0 
L 2682 1062 
L 3296 1062 
L 3296 1542 
L 2682 1542 
z
" transform="scale(0.015625)"/>
      </defs>
      <use xlink:href="#HelveticaNeue-49"/>
      <use xlink:href="#HelveticaNeue-6d" transform="translate(25.899994 0)"/>
      <use xlink:href="#HelveticaNeue-61" transform="translate(111.199982 0)"/>
      <use xlink:href="#HelveticaNeue-67" transform="translate(164.899979 0)"/>
      <use xlink:href="#HelveticaNeue-65" transform="translate(222.299973 0)"/>
      <use xlink:href="#HelveticaNeue-20" transform="translate(275.999969 0)"/>
      <use xlink:href="#HelveticaNeue-34" transform="translate(303.799957 0)"/>
      <use xlink:href="#HelveticaNeue-20" transform="translate(359.399948 0)"/>
      <use xlink:href="#HelveticaNeue-28" transform="translate(387.199936 0)"/>
      <use xlink:href="#HelveticaNeue-6e" transform="translate(413.09993 0)"/>
      <use xlink:href="#HelveticaNeue-6f" transform="translate(468.699921 0)"/>
      <use xlink:href="#HelveticaNeue-74" transform="translate(526.099915 0)"/>
      <use xlink:href="#HelveticaNeue-20" transform="translate(557.599899 0)"/>
      <use xlink:href="#HelveticaNeue-64" transform="translate(585.399887 0)"/>
      <use xlink:href="#HelveticaNeue-65" transform="translate(644.699875 0)"/>
      <use xlink:href="#HelveticaNeue-74" transform="translate(698.399872 0)"/>
      <use xlink:href="#HelveticaNeue-65" transform="translate(729.899857 0)"/>
      <use xlink:href="#HelveticaNeue-63" transform="translate(783.599854 0)"/>
      <use xlink:href="#HelveticaNeue-74" transform="translate(837.29985 0)"/>
      <use xlink:href="#HelveticaNeue-65" transform="translate(868.799835 0)"/>
      <use xlink:href="#HelveticaNeue-64" transform="translate(922.499832 0)"/>
      <use xlink:href="#HelveticaNeue-29" transform="translate(981.79982 0)"/>
     </g>
     <!-- Magnification: 0.6 -->
     <g transform="translate(425.855056 209.022527) scale(0.12 -0.12)">
      <use xlink:href="#HelveticaNeue-4d"/>
      <use xlink:href="#HelveticaNeue-61" transform="translate(87.099991 0)"/>
      <use xlink:href="#HelveticaNeue-67" transform="translate(140.799988 0)"/>
      <use xlink:href="#HelveticaNeue-6e" transform="translate(198.199982 0)"/>
      <use xlink:href="#HelveticaNeue-69" transform="translate(253.799973 0)"/>
      <use xlink:href="#HelveticaNeue-66" transform="translate(275.999969 0)"/>
      <use xlink:href="#HelveticaNeue-69" transform="translate(305.59996 0)"/>
      <use xlink:href="#HelveticaNeue-63" transform="translate(327.799957 0)"/>
      <use xlink:href="#HelveticaNeue-61" transform="translate(381.499954 0)"/>
      <use xlink:href="#HelveticaNeue-74" transform="translate(435.199951 0)"/>
      <use xlink:href="#HelveticaNeue-69" transform="translate(466.699936 0)"/>
      <use xlink:href="#HelveticaNeue-6f" transform="translate(488.899933 0)"/>
      <use xlink:href="#HelveticaNeue-6e" transform="translate(546.299927 0)"/>
      <use xlink:href="#HelveticaNeue-3a" transform="translate(601.899918 0)"/>
      <use xlink:href="#HelveticaNeue-20" transform="translate(629.699905 0)"/>
      <use xlink:href="#HelveticaNeue-30" transform="translate(657.499893 0)"/>
      <use xlink:href="#HelveticaNeue-2e" transform="translate(713.099884 0)"/>
      <use xlink:href="#HelveticaNeue-36" transform="translate(740.899872 0)"/>
     </g>
    </g>
   </g>
  </g>
 </g>
 <defs>
  <clipPath id="p8667eeee46">
   <rect x="56.44275" y="23.433125" width="309.720686" height="193.575428"/>
  </clipPath>
 </defs>
</svg>
