<?xml version="1.0" encoding="utf-8" standalone="no"?>
<!DOCTYPE svg PUBLIC "-//W3C//DTD SVG 1.1//EN"
  "http://www.w3.org/Graphics/SVG/1.1/DTD/svg11.dtd">
<svg xmlns:xlink="http://www.w3.org/1999/xlink" width="496.209266pt" height="327.36385pt" viewBox="0 0 496.209266 327.36385" xmlns="http://www.w3.org/2000/svg" version="1.1">
 <metadata>
  <rdf:RDF xmlns:dc="http://purl.org/dc/elements/1.1/" xmlns:cc="http://creativecommons.org/ns#" xmlns:rdf="http://www.w3.org/1999/02/22-rdf-syntax-ns#">
   <cc:Work>
    <dc:type rdf:resource="http://purl.org/dc/dcmitype/StillImage"/>
    <dc:date>2026-02-16T00:29:33.144931</dc:date>
    <dc:format>image/svg+xml</dc:format>
    <dc:creator>
     <cc:Agent>
      <dc:title>Matplotlib v3.10.3, https://matplotlib.org/</dc:title>
     </cc:Agent>
    </dc:creator>
   </cc:Work>
  </rdf:RDF>
 </metadata>
 <defs>
  <style type="text/css">*{stroke-linejoin: round; stroke-linecap: butt}</style>
 </defs>
 <g id="figure_1">
  <g id="patch_1">
   <path d="M 0 327.36385 
L 496.209266 327.36385 
L 496.209266 0 
L 0 0 
L 0 327.36385 
z
" style="fill: none"/>
  </g>
  <g id="axes_1">
   <g id="patch_2">
    <path d="M 52.160938 289.8076 
L 334.768538 289.8076 
L 334.768538 7.2 
L 52.160938 7.2 
L 52.160938 289.8076 
z
" style="fill: none"/>
   </g>
   <g id="patch_3">
    <path d="M 193.464738 266.256967 
C 224.693242 266.256967 254.646913 253.84975 276.7288 231.767863 
C 298.810688 209.685975 311.217904 179.732305 311.217904 148.5038 
C 311.217904 117.275295 298.810688 87.321625 276.7288 65.239737 
C 254.646913 43.15785 224.693242 30.750633 193.464738 30.750633 
C 162.236233 30.750633 132.282562 43.15785 110.200675 65.239737 
C 88.118787 87.321625 75.711571 117.275295 75.711571 148.5038 
C 75.711571 179.732305 88.118787 209.685975 110.200675 231.767863 
C 132.282562 253.84975 162.236233 266.256967 193.464738 266.256967 
L 193.464738 266.256967 
z
" clip-path="url(#pc78e9d5387)" style="fill: none; stroke-dasharray: 1.5,2.475; stroke-dashoffset: 0; stroke: #1f77b4; stroke-width: 1.5; stroke-linejoin: miter"/>
   </g>
   <g id="matplotlib.axis_1">
    <g id="xtick_1">
     <g id="line2d_1">
      <path d="M 75.711571 289.8076 
L 75.711571 7.2 
" clip-path="url(#pc78e9d5387)" style="fill: none; stroke-dasharray: 2.22,0.96; stroke-dashoffset: 0; stroke: #b0b0b0; stroke-opacity: 0.4; stroke-width: 0.6"/>
     </g>
     <g id="line2d_2">
      <defs>
       <path id="m0724931575" d="M 0 0 
L 0 3.5 
" style="stroke: #000000; stroke-width: 0.8"/>
      </defs>
      <g>
       <use xlink:href="#m0724931575" x="75.711571" y="289.8076" style="stroke: #000000; stroke-width: 0.8"/>
      </g>
     </g>
     <g id="text_1">
      <!-- −1.0 -->
      <g transform="translate(63.570165 304.406038) scale(0.1 -0.1)">
       <defs>
        <path id="DejaVuSans-2212" d="M 678 2272 
L 4684 2272 
L 4684 1741 
L 678 1741 
L 678 2272 
z
" transform="scale(0.015625)"/>
        <path id="DejaVuSans-31" d="M 794 531 
L 1825 531 
L 1825 4091 
L 703 3866 
L 703 4441 
L 1819 4666 
L 2450 4666 
L 2450 531 
L 3481 531 
L 3481 0 
L 794 0 
L 794 531 
z
" transform="scale(0.015625)"/>
        <path id="DejaVuSans-2e" d="M 684 794 
L 1344 794 
L 1344 0 
L 684 0 
L 684 794 
z
" transform="scale(0.015625)"/>
        <path id="DejaVuSans-30" d="M 2034 4250 
Q 1547 4250 1301 3770 
Q 1056 3291 1056 2328 
Q 1056 1369 1301 889 
Q 1547 409 2034 409 
Q 2525 409 2770 889 
Q 3016 1369 3016 2328 
Q 3016 3291 2770 3770 
Q 2525 4250 2034 4250 
z
M 2034 4750 
Q 2819 4750 3233 4129 
Q 3647 3509 3647 2328 
Q 3647 1150 3233 529 
Q 2819 -91 2034 -91 
Q 1250 -91 836 529 
Q 422 1150 422 2328 
Q 422 3509 836 4129 
Q 1250 4750 2034 4750 
z
" transform="scale(0.015625)"/>
       </defs>
       <use xlink:href="#DejaVuSans-2212"/>
       <use xlink:href="#DejaVuSans-31" transform="translate(83.789062 0)"/>
       <use xlink:href="#DejaVuSans-2e" transform="translate(147.412109 0)"/>
       <use xlink:href="#DejaVuSans-30" transform="translate(179.199219 0)"/>
      </g>
     </g>
    </g>
    <g id="xtick_2">
     <g id="line2d_3">
      <path d="M 134.588154 289.8076 
L 134.588154 7.2 
" clip-path="url(#pc78e9d5387)" style="fill: none; stroke-dasharray: 2.22,0.96; stroke-dashoffset: 0; stroke: #b0b0b0; stroke-opacity: 0.4; stroke-width: 0.6"/>
     </g>
     <g id="line2d_4">
      <g>
       <use xlink:href="#m0724931575" x="134.588154" y="289.8076" style="stroke: #000000; stroke-width: 0.8"/>
      </g>
     </g>
     <g id="text_2">
      <!-- −0.5 -->
      <g transform="translate(122.446748 304.406038) scale(0.1 -0.1)">
       <defs>
        <path id="DejaVuSans-35" d="M 691 4666 
L 3169 4666 
L 3169 4134 
L 1269 4134 
L 1269 2991 
Q 1406 3038 1543 3061 
Q 1681 3084 1819 3084 
Q 2600 3084 3056 2656 
Q 3513 2228 3513 1497 
Q 3513 744 3044 326 
Q 2575 -91 1722 -91 
Q 1428 -91 1123 -41 
Q 819 9 494 109 
L 494 744 
Q 775 591 1075 516 
Q 1375 441 1709 441 
Q 2250 441 2565 725 
Q 2881 1009 2881 1497 
Q 2881 1984 2565 2268 
Q 2250 2553 1709 2553 
Q 1456 2553 1204 2497 
Q 953 2441 691 2322 
L 691 4666 
z
" transform="scale(0.015625)"/>
       </defs>
       <use xlink:href="#DejaVuSans-2212"/>
       <use xlink:href="#DejaVuSans-30" transform="translate(83.789062 0)"/>
       <use xlink:href="#DejaVuSans-2e" transform="translate(147.412109 0)"/>
       <use xlink:href="#DejaVuSans-35" transform="translate(179.199219 0)"/>
      </g>
     </g>
    </g>
    <g id="xtick_3">
     <g id="line2d_5">
      <path d="M 193.464738 289.8076 
L 193.464738 7.2 
" clip-path="url(#pc78e9d5387)" style="fill: none; stroke-dasharray: 2.22,0.96; stroke-dashoffset: 0; stroke: #b0b0b0; stroke-opacity: 0.4; stroke-width: 0.6"/>
     </g>
     <g id="line2d_6">
      <g>
       <use xlink:href="#m0724931575" x="193.464738" y="289.8076" style="stroke: #000000; stroke-width: 0.8"/>
      </g>
     </g>
     <g id="text_3">
      <!-- 0.0 -->
      <g transform="translate(185.513175 304.406038) scale(0.1 -0.1)">
       <use xlink:href="#DejaVuSans-30"/>
       <use xlink:href="#DejaVuSans-2e" transform="translate(63.623047 0)"/>
       <use xlink:href="#DejaVuSans-30" transform="translate(95.410156 0)"/>
      </g>
     </g>
    </g>
    <g id="xtick_4">
     <g id="line2d_7">
      <path d="M 252.341321 289.8076 
L 252.341321 7.2 
" clip-path="url(#pc78e9d5387)" style="fill: none; stroke-dasharray: 2.22,0.96; stroke-dashoffset: 0; stroke: #b0b0b0; stroke-opacity: 0.4; stroke-width: 0.6"/>
     </g>
     <g id="line2d_8">
      <g>
       <use xlink:href="#m0724931575" x="252.341321" y="289.8076" style="stroke: #000000; stroke-width: 0.8"/>
      </g>
     </g>
     <g id="text_4">
      <!-- 0.5 -->
      <g transform="translate(244.389758 304.406038) scale(0.1 -0.1)">
       <use xlink:href="#DejaVuSans-30"/>
       <use xlink:href="#DejaVuSans-2e" transform="translate(63.623047 0)"/>
       <use xlink:href="#DejaVuSans-35" transform="translate(95.410156 0)"/>
      </g>
     </g>
    </g>
    <g id="xtick_5">
     <g id="line2d_9">
      <path d="M 311.217904 289.8076 
L 311.217904 7.2 
" clip-path="url(#pc78e9d5387)" style="fill: none; stroke-dasharray: 2.22,0.96; stroke-dashoffset: 0; stroke: #b0b0b0; stroke-opacity: 0.4; stroke-width: 0.6"/>
     </g>
     <g id="line2d_10">
      <g>
       <use xlink:href="#m0724931575" x="311.217904" y="289.8076" style="stroke: #000000; stroke-width: 0.8"/>
      </g>
     </g>
     <g id="text_5">
      <!-- 1.0 -->
      <g transform="translate(303.266342 304.406038) scale(0.1 -0.1)">
       <use xlink:href="#DejaVuSans-31"/>
       <use xlink:href="#DejaVuSans-2e" transform="translate(63.623047 0)"/>
       <use xlink:href="#DejaVuSans-30" transform="translate(95.410156 0)"/>
      </g>
     </g>
    </g>
    <g id="xtick_6">
     <g id="line2d_11">
      <defs>
       <path id="m38d65d0588" d="M 0 0 
L 0 2 
" style="stroke: #000000; stroke-width: 0.6"/>
      </defs>
      <g>
       <use xlink:href="#m38d65d0588" x="52.160938" y="289.8076" style="stroke: #000000; stroke-width: 0.6"/>
      </g>
     </g>
    </g>
    <g id="xtick_7">
     <g id="line2d_12">
      <g>
       <use xlink:href="#m38d65d0588" x="63.936254" y="289.8076" style="stroke: #000000; stroke-width: 0.6"/>
      </g>
     </g>
    </g>
    <g id="xtick_8">
     <g id="line2d_13">
      <g>
       <use xlink:href="#m38d65d0588" x="87.486888" y="289.8076" style="stroke: #000000; stroke-width: 0.6"/>
      </g>
     </g>
    </g>
    <g id="xtick_9">
     <g id="line2d_14">
      <g>
       <use xlink:href="#m38d65d0588" x="99.262204" y="289.8076" style="stroke: #000000; stroke-width: 0.6"/>
      </g>
     </g>
    </g>
    <g id="xtick_10">
     <g id="line2d_15">
      <g>
       <use xlink:href="#m38d65d0588" x="111.037521" y="289.8076" style="stroke: #000000; stroke-width: 0.6"/>
      </g>
     </g>
    </g>
    <g id="xtick_11">
     <g id="line2d_16">
      <g>
       <use xlink:href="#m38d65d0588" x="122.812838" y="289.8076" style="stroke: #000000; stroke-width: 0.6"/>
      </g>
     </g>
    </g>
    <g id="xtick_12">
     <g id="line2d_17">
      <g>
       <use xlink:href="#m38d65d0588" x="146.363471" y="289.8076" style="stroke: #000000; stroke-width: 0.6"/>
      </g>
     </g>
    </g>
    <g id="xtick_13">
     <g id="line2d_18">
      <g>
       <use xlink:href="#m38d65d0588" x="158.138788" y="289.8076" style="stroke: #000000; stroke-width: 0.6"/>
      </g>
     </g>
    </g>
    <g id="xtick_14">
     <g id="line2d_19">
      <g>
       <use xlink:href="#m38d65d0588" x="169.914104" y="289.8076" style="stroke: #000000; stroke-width: 0.6"/>
      </g>
     </g>
    </g>
    <g id="xtick_15">
     <g id="line2d_20">
      <g>
       <use xlink:href="#m38d65d0588" x="181.689421" y="289.8076" style="stroke: #000000; stroke-width: 0.6"/>
      </g>
     </g>
    </g>
    <g id="xtick_16">
     <g id="line2d_21">
      <g>
       <use xlink:href="#m38d65d0588" x="205.240054" y="289.8076" style="stroke: #000000; stroke-width: 0.6"/>
      </g>
     </g>
    </g>
    <g id="xtick_17">
     <g id="line2d_22">
      <g>
       <use xlink:href="#m38d65d0588" x="217.015371" y="289.8076" style="stroke: #000000; stroke-width: 0.6"/>
      </g>
     </g>
    </g>
    <g id="xtick_18">
     <g id="line2d_23">
      <g>
       <use xlink:href="#m38d65d0588" x="228.790688" y="289.8076" style="stroke: #000000; stroke-width: 0.6"/>
      </g>
     </g>
    </g>
    <g id="xtick_19">
     <g id="line2d_24">
      <g>
       <use xlink:href="#m38d65d0588" x="240.566004" y="289.8076" style="stroke: #000000; stroke-width: 0.6"/>
      </g>
     </g>
    </g>
    <g id="xtick_20">
     <g id="line2d_25">
      <g>
       <use xlink:href="#m38d65d0588" x="264.116638" y="289.8076" style="stroke: #000000; stroke-width: 0.6"/>
      </g>
     </g>
    </g>
    <g id="xtick_21">
     <g id="line2d_26">
      <g>
       <use xlink:href="#m38d65d0588" x="275.891954" y="289.8076" style="stroke: #000000; stroke-width: 0.6"/>
      </g>
     </g>
    </g>
    <g id="xtick_22">
     <g id="line2d_27">
      <g>
       <use xlink:href="#m38d65d0588" x="287.667271" y="289.8076" style="stroke: #000000; stroke-width: 0.6"/>
      </g>
     </g>
    </g>
    <g id="xtick_23">
     <g id="line2d_28">
      <g>
       <use xlink:href="#m38d65d0588" x="299.442588" y="289.8076" style="stroke: #000000; stroke-width: 0.6"/>
      </g>
     </g>
    </g>
    <g id="xtick_24">
     <g id="line2d_29">
      <g>
       <use xlink:href="#m38d65d0588" x="322.993221" y="289.8076" style="stroke: #000000; stroke-width: 0.6"/>
      </g>
     </g>
    </g>
    <g id="xtick_25">
     <g id="line2d_30">
      <g>
       <use xlink:href="#m38d65d0588" x="334.768538" y="289.8076" style="stroke: #000000; stroke-width: 0.6"/>
      </g>
     </g>
    </g>
    <g id="text_6">
     <!-- x [arcsec] -->
     <g transform="translate(168.828019 318.084163) scale(0.1 -0.1)">
      <defs>
       <path id="DejaVuSans-78" d="M 3513 3500 
L 2247 1797 
L 3578 0 
L 2900 0 
L 1881 1375 
L 863 0 
L 184 0 
L 1544 1831 
L 300 3500 
L 978 3500 
L 1906 2253 
L 2834 3500 
L 3513 3500 
z
" transform="scale(0.015625)"/>
       <path id="DejaVuSans-20" transform="scale(0.015625)"/>
       <path id="DejaVuSans-5b" d="M 550 4863 
L 1875 4863 
L 1875 4416 
L 1125 4416 
L 1125 -397 
L 1875 -397 
L 1875 -844 
L 550 -844 
L 550 4863 
z
" transform="scale(0.015625)"/>
       <path id="DejaVuSans-61" d="M 2194 1759 
Q 1497 1759 1228 1600 
Q 959 1441 959 1056 
Q 959 750 1161 570 
Q 1363 391 1709 391 
Q 2188 391 2477 730 
Q 2766 1069 2766 1631 
L 2766 1759 
L 2194 1759 
z
M 3341 1997 
L 3341 0 
L 2766 0 
L 2766 531 
Q 2569 213 2275 61 
Q 1981 -91 1556 -91 
Q 1019 -91 701 211 
Q 384 513 384 1019 
Q 384 1609 779 1909 
Q 1175 2209 1959 2209 
L 2766 2209 
L 2766 2266 
Q 2766 2663 2505 2880 
Q 2244 3097 1772 3097 
Q 1472 3097 1187 3025 
Q 903 2953 641 2809 
L 641 3341 
Q 956 3463 1253 3523 
Q 1550 3584 1831 3584 
Q 2591 3584 2966 3190 
Q 3341 2797 3341 1997 
z
" transform="scale(0.015625)"/>
       <path id="DejaVuSans-72" d="M 2631 2963 
Q 2534 3019 2420 3045 
Q 2306 3072 2169 3072 
Q 1681 3072 1420 2755 
Q 1159 2438 1159 1844 
L 1159 0 
L 581 0 
L 581 3500 
L 1159 3500 
L 1159 2956 
Q 1341 3275 1631 3429 
Q 1922 3584 2338 3584 
Q 2397 3584 2469 3576 
Q 2541 3569 2628 3553 
L 2631 2963 
z
" transform="scale(0.015625)"/>
       <path id="DejaVuSans-63" d="M 3122 3366 
L 3122 2828 
Q 2878 2963 2633 3030 
Q 2388 3097 2138 3097 
Q 1578 3097 1268 2742 
Q 959 2388 959 1747 
Q 959 1106 1268 751 
Q 1578 397 2138 397 
Q 2388 397 2633 464 
Q 2878 531 3122 666 
L 3122 134 
Q 2881 22 2623 -34 
Q 2366 -91 2075 -91 
Q 1284 -91 818 406 
Q 353 903 353 1747 
Q 353 2603 823 3093 
Q 1294 3584 2113 3584 
Q 2378 3584 2631 3529 
Q 2884 3475 3122 3366 
z
" transform="scale(0.015625)"/>
       <path id="DejaVuSans-73" d="M 2834 3397 
L 2834 2853 
Q 2591 2978 2328 3040 
Q 2066 3103 1784 3103 
Q 1356 3103 1142 2972 
Q 928 2841 928 2578 
Q 928 2378 1081 2264 
Q 1234 2150 1697 2047 
L 1894 2003 
Q 2506 1872 2764 1633 
Q 3022 1394 3022 966 
Q 3022 478 2636 193 
Q 2250 -91 1575 -91 
Q 1294 -91 989 -36 
Q 684 19 347 128 
L 347 722 
Q 666 556 975 473 
Q 1284 391 1588 391 
Q 1994 391 2212 530 
Q 2431 669 2431 922 
Q 2431 1156 2273 1281 
Q 2116 1406 1581 1522 
L 1381 1569 
Q 847 1681 609 1914 
Q 372 2147 372 2553 
Q 372 3047 722 3315 
Q 1072 3584 1716 3584 
Q 2034 3584 2315 3537 
Q 2597 3491 2834 3397 
z
" transform="scale(0.015625)"/>
       <path id="DejaVuSans-65" d="M 3597 1894 
L 3597 1613 
L 953 1613 
Q 991 1019 1311 708 
Q 1631 397 2203 397 
Q 2534 397 2845 478 
Q 3156 559 3463 722 
L 3463 178 
Q 3153 47 2828 -22 
Q 2503 -91 2169 -91 
Q 1331 -91 842 396 
Q 353 884 353 1716 
Q 353 2575 817 3079 
Q 1281 3584 2069 3584 
Q 2775 3584 3186 3129 
Q 3597 2675 3597 1894 
z
M 3022 2063 
Q 3016 2534 2758 2815 
Q 2500 3097 2075 3097 
Q 1594 3097 1305 2825 
Q 1016 2553 972 2059 
L 3022 2063 
z
" transform="scale(0.015625)"/>
       <path id="DejaVuSans-5d" d="M 1947 4863 
L 1947 -844 
L 622 -844 
L 622 -397 
L 1369 -397 
L 1369 4416 
L 622 4416 
L 622 4863 
L 1947 4863 
z
" transform="scale(0.015625)"/>
      </defs>
      <use xlink:href="#DejaVuSans-78"/>
      <use xlink:href="#DejaVuSans-20" transform="translate(59.179688 0)"/>
      <use xlink:href="#DejaVuSans-5b" transform="translate(90.966797 0)"/>
      <use xlink:href="#DejaVuSans-61" transform="translate(129.980469 0)"/>
      <use xlink:href="#DejaVuSans-72" transform="translate(191.259766 0)"/>
      <use xlink:href="#DejaVuSans-63" transform="translate(230.123047 0)"/>
      <use xlink:href="#DejaVuSans-73" transform="translate(285.103516 0)"/>
      <use xlink:href="#DejaVuSans-65" transform="translate(337.203125 0)"/>
      <use xlink:href="#DejaVuSans-63" transform="translate(398.726562 0)"/>
      <use xlink:href="#DejaVuSans-5d" transform="translate(453.707031 0)"/>
     </g>
    </g>
   </g>
   <g id="matplotlib.axis_2">
    <g id="ytick_1">
     <g id="line2d_31">
      <path d="M 52.160938 266.256967 
L 334.768538 266.256967 
" clip-path="url(#pc78e9d5387)" style="fill: none; stroke-dasharray: 2.22,0.96; stroke-dashoffset: 0; stroke: #b0b0b0; stroke-opacity: 0.4; stroke-width: 0.6"/>
     </g>
     <g id="line2d_32">
      <defs>
       <path id="m260aa5a095" d="M 0 0 
L -3.5 0 
" style="stroke: #000000; stroke-width: 0.8"/>
      </defs>
      <g>
       <use xlink:href="#m260aa5a095" x="52.160938" y="266.256967" style="stroke: #000000; stroke-width: 0.8"/>
      </g>
     </g>
     <g id="text_7">
      <!-- −1.0 -->
      <g transform="translate(20.878125 270.056185) scale(0.1 -0.1)">
       <use xlink:href="#DejaVuSans-2212"/>
       <use xlink:href="#DejaVuSans-31" transform="translate(83.789062 0)"/>
       <use xlink:href="#DejaVuSans-2e" transform="translate(147.412109 0)"/>
       <use xlink:href="#DejaVuSans-30" transform="translate(179.199219 0)"/>
      </g>
     </g>
    </g>
    <g id="ytick_2">
     <g id="line2d_33">
      <path d="M 52.160938 207.380383 
L 334.768538 207.380383 
" clip-path="url(#pc78e9d5387)" style="fill: none; stroke-dasharray: 2.22,0.96; stroke-dashoffset: 0; stroke: #b0b0b0; stroke-opacity: 0.4; stroke-width: 0.6"/>
     </g>
     <g id="line2d_34">
      <g>
       <use xlink:href="#m260aa5a095" x="52.160938" y="207.380383" style="stroke: #000000; stroke-width: 0.8"/>
      </g>
     </g>
     <g id="text_8">
      <!-- −0.5 -->
      <g transform="translate(20.878125 211.179602) scale(0.1 -0.1)">
       <use xlink:href="#DejaVuSans-2212"/>
       <use xlink:href="#DejaVuSans-30" transform="translate(83.789062 0)"/>
       <use xlink:href="#DejaVuSans-2e" transform="translate(147.412109 0)"/>
       <use xlink:href="#DejaVuSans-35" transform="translate(179.199219 0)"/>
      </g>
     </g>
    </g>
    <g id="ytick_3">
     <g id="line2d_35">
      <path d="M 52.160938 148.5038 
L 334.768538 148.5038 
" clip-path="url(#pc78e9d5387)" style="fill: none; stroke-dasharray: 2.22,0.96; stroke-dashoffset: 0; stroke: #b0b0b0; stroke-opacity: 0.4; stroke-width: 0.6"/>
     </g>
     <g id="line2d_36">
      <g>
       <use xlink:href="#m260aa5a095" x="52.160938" y="148.5038" style="stroke: #000000; stroke-width: 0.8"/>
      </g>
     </g>
     <g id="text_9">
      <!-- 0.0 -->
      <g transform="translate(29.257812 152.303019) scale(0.1 -0.1)">
       <use xlink:href="#DejaVuSans-30"/>
       <use xlink:href="#DejaVuSans-2e" transform="translate(63.623047 0)"/>
       <use xlink:href="#DejaVuSans-30" transform="translate(95.410156 0)"/>
      </g>
     </g>
    </g>
    <g id="ytick_4">
     <g id="line2d_37">
      <path d="M 52.160938 89.627217 
L 334.768538 89.627217 
" clip-path="url(#pc78e9d5387)" style="fill: none; stroke-dasharray: 2.22,0.96; stroke-dashoffset: 0; stroke: #b0b0b0; stroke-opacity: 0.4; stroke-width: 0.6"/>
     </g>
     <g id="line2d_38">
      <g>
       <use xlink:href="#m260aa5a095" x="52.160938" y="89.627217" style="stroke: #000000; stroke-width: 0.8"/>
      </g>
     </g>
     <g id="text_10">
      <!-- 0.5 -->
      <g transform="translate(29.257812 93.426435) scale(0.1 -0.1)">
       <use xlink:href="#DejaVuSans-30"/>
       <use xlink:href="#DejaVuSans-2e" transform="translate(63.623047 0)"/>
       <use xlink:href="#DejaVuSans-35" transform="translate(95.410156 0)"/>
      </g>
     </g>
    </g>
    <g id="ytick_5">
     <g id="line2d_39">
      <path d="M 52.160938 30.750633 
L 334.768538 30.750633 
" clip-path="url(#pc78e9d5387)" style="fill: none; stroke-dasharray: 2.22,0.96; stroke-dashoffset: 0; stroke: #b0b0b0; stroke-opacity: 0.4; stroke-width: 0.6"/>
     </g>
     <g id="line2d_40">
      <g>
       <use xlink:href="#m260aa5a095" x="52.160938" y="30.750633" style="stroke: #000000; stroke-width: 0.8"/>
      </g>
     </g>
     <g id="text_11">
      <!-- 1.0 -->
      <g transform="translate(29.257812 34.549852) scale(0.1 -0.1)">
       <use xlink:href="#DejaVuSans-31"/>
       <use xlink:href="#DejaVuSans-2e" transform="translate(63.623047 0)"/>
       <use xlink:href="#DejaVuSans-30" transform="translate(95.410156 0)"/>
      </g>
     </g>
    </g>
    <g id="ytick_6">
     <g id="line2d_41">
      <defs>
       <path id="m6c60c3f32d" d="M 0 0 
L -2 0 
" style="stroke: #000000; stroke-width: 0.6"/>
      </defs>
      <g>
       <use xlink:href="#m6c60c3f32d" x="52.160938" y="289.8076" style="stroke: #000000; stroke-width: 0.6"/>
      </g>
     </g>
    </g>
    <g id="ytick_7">
     <g id="line2d_42">
      <g>
       <use xlink:href="#m6c60c3f32d" x="52.160938" y="278.032283" style="stroke: #000000; stroke-width: 0.6"/>
      </g>
     </g>
    </g>
    <g id="ytick_8">
     <g id="line2d_43">
      <g>
       <use xlink:href="#m6c60c3f32d" x="52.160938" y="254.48165" style="stroke: #000000; stroke-width: 0.6"/>
      </g>
     </g>
    </g>
    <g id="ytick_9">
     <g id="line2d_44">
      <g>
       <use xlink:href="#m6c60c3f32d" x="52.160938" y="242.706333" style="stroke: #000000; stroke-width: 0.6"/>
      </g>
     </g>
    </g>
    <g id="ytick_10">
     <g id="line2d_45">
      <g>
       <use xlink:href="#m6c60c3f32d" x="52.160938" y="230.931017" style="stroke: #000000; stroke-width: 0.6"/>
      </g>
     </g>
    </g>
    <g id="ytick_11">
     <g id="line2d_46">
      <g>
       <use xlink:href="#m6c60c3f32d" x="52.160938" y="219.1557" style="stroke: #000000; stroke-width: 0.6"/>
      </g>
     </g>
    </g>
    <g id="ytick_12">
     <g id="line2d_47">
      <g>
       <use xlink:href="#m6c60c3f32d" x="52.160938" y="195.605067" style="stroke: #000000; stroke-width: 0.6"/>
      </g>
     </g>
    </g>
    <g id="ytick_13">
     <g id="line2d_48">
      <g>
       <use xlink:href="#m6c60c3f32d" x="52.160938" y="183.82975" style="stroke: #000000; stroke-width: 0.6"/>
      </g>
     </g>
    </g>
    <g id="ytick_14">
     <g id="line2d_49">
      <g>
       <use xlink:href="#m6c60c3f32d" x="52.160938" y="172.054433" style="stroke: #000000; stroke-width: 0.6"/>
      </g>
     </g>
    </g>
    <g id="ytick_15">
     <g id="line2d_50">
      <g>
       <use xlink:href="#m6c60c3f32d" x="52.160938" y="160.279117" style="stroke: #000000; stroke-width: 0.6"/>
      </g>
     </g>
    </g>
    <g id="ytick_16">
     <g id="line2d_51">
      <g>
       <use xlink:href="#m6c60c3f32d" x="52.160938" y="136.728483" style="stroke: #000000; stroke-width: 0.6"/>
      </g>
     </g>
    </g>
    <g id="ytick_17">
     <g id="line2d_52">
      <g>
       <use xlink:href="#m6c60c3f32d" x="52.160938" y="124.953167" style="stroke: #000000; stroke-width: 0.6"/>
      </g>
     </g>
    </g>
    <g id="ytick_18">
     <g id="line2d_53">
      <g>
       <use xlink:href="#m6c60c3f32d" x="52.160938" y="113.17785" style="stroke: #000000; stroke-width: 0.6"/>
      </g>
     </g>
    </g>
    <g id="ytick_19">
     <g id="line2d_54">
      <g>
       <use xlink:href="#m6c60c3f32d" x="52.160938" y="101.402533" style="stroke: #000000; stroke-width: 0.6"/>
      </g>
     </g>
    </g>
    <g id="ytick_20">
     <g id="line2d_55">
      <g>
       <use xlink:href="#m6c60c3f32d" x="52.160938" y="77.8519" style="stroke: #000000; stroke-width: 0.6"/>
      </g>
     </g>
    </g>
    <g id="ytick_21">
     <g id="line2d_56">
      <g>
       <use xlink:href="#m6c60c3f32d" x="52.160938" y="66.076583" style="stroke: #000000; stroke-width: 0.6"/>
      </g>
     </g>
    </g>
    <g id="ytick_22">
     <g id="line2d_57">
      <g>
       <use xlink:href="#m6c60c3f32d" x="52.160938" y="54.301267" style="stroke: #000000; stroke-width: 0.6"/>
      </g>
     </g>
    </g>
    <g id="ytick_23">
     <g id="line2d_58">
      <g>
       <use xlink:href="#m6c60c3f32d" x="52.160938" y="42.52595" style="stroke: #000000; stroke-width: 0.6"/>
      </g>
     </g>
    </g>
    <g id="ytick_24">
     <g id="line2d_59">
      <g>
       <use xlink:href="#m6c60c3f32d" x="52.160938" y="18.975317" style="stroke: #000000; stroke-width: 0.6"/>
      </g>
     </g>
    </g>
    <g id="ytick_25">
     <g id="line2d_60">
      <g>
       <use xlink:href="#m6c60c3f32d" x="52.160938" y="7.2" style="stroke: #000000; stroke-width: 0.6"/>
      </g>
     </g>
    </g>
    <g id="text_12">
     <!-- y [arcsec] -->
     <g transform="translate(14.798437 173.140519) rotate(-90) scale(0.1 -0.1)">
      <defs>
       <path id="DejaVuSans-79" d="M 2059 -325 
Q 1816 -950 1584 -1140 
Q 1353 -1331 966 -1331 
L 506 -1331 
L 506 -850 
L 844 -850 
Q 1081 -850 1212 -737 
Q 1344 -625 1503 -206 
L 1606 56 
L 191 3500 
L 800 3500 
L 1894 763 
L 2988 3500 
L 3597 3500 
L 2059 -325 
z
" transform="scale(0.015625)"/>
      </defs>
      <use xlink:href="#DejaVuSans-79"/>
      <use xlink:href="#DejaVuSans-20" transform="translate(59.179688 0)"/>
      <use xlink:href="#DejaVuSans-5b" transform="translate(90.966797 0)"/>
      <use xlink:href="#DejaVuSans-61" transform="translate(129.980469 0)"/>
      <use xlink:href="#DejaVuSans-72" transform="translate(191.259766 0)"/>
      <use xlink:href="#DejaVuSans-63" transform="translate(230.123047 0)"/>
      <use xlink:href="#DejaVuSans-73" transform="translate(285.103516 0)"/>
      <use xlink:href="#DejaVuSans-65" transform="translate(337.203125 0)"/>
      <use xlink:href="#DejaVuSans-63" transform="translate(398.726562 0)"/>
      <use xlink:href="#DejaVuSans-5d" transform="translate(453.707031 0)"/>
     </g>
    </g>
   </g>
   <g id="line2d_61">
    <path d="M 261.821264 112.95225 
L 259.753607 114.20557 
L 256.829087 116.206974 
L 253.010473 119.115339 
L 249.524208 122.033656 
L 245.827315 125.399899 
L 243.004047 128.166966 
L 242.172251 129.084831 
L 243.81201 132.958967 
L 245.165022 136.679738 
L 246.256868 140.211797 
L 247.328498 144.460108 
L 247.972585 147.708191 
L 248.507797 151.282054 
L 248.881126 155.154119 
L 249.039001 159.273252 
L 248.933163 163.563826 
L 248.529228 167.929265 
L 247.81351 172.260323 
L 246.797513 176.447251 
L 245.517188 180.392706 
L 244.027573 184.022139 
L 242.394223 187.289086 
L 240.684275 190.175069 
L 238.959032 192.685152 
L 237.26947 194.841521 
L 234.882497 197.484208 
L 232.741248 199.528733 
L 230.324025 201.531866 
L 227.614675 203.451604 
L 224.912229 205.072405 
L 222.192315 206.444387 
L 219.26585 207.661071 
L 216.488378 208.590656 
L 213.422388 209.383039 
L 210.514797 209.923125 
L 207.008545 210.317818 
L 204.314434 210.439325 
L 201.330905 210.396726 
L 198.069299 210.142644 
L 194.55822 209.631573 
L 190.845597 208.825244 
L 186.998127 207.700602 
L 183.097238 206.254524 
L 179.231704 204.507875 
L 175.488473 202.503804 
L 171.943231 200.303975 
L 168.653968 197.979419 
L 165.657896 195.602203 
L 162.971638 193.238715 
L 159.518039 189.836968 
L 156.70638 186.718843 
L 153.809816 183.117532 
L 151.261393 179.550143 
L 149.462071 177.004403 
L 144.432418 177.956002 
L 139.70341 179.05236 
L 134.428796 180.530527 
L 130.119762 181.97532 
L 126.570063 183.382892 
L 125.018942 184.103644 
L 125.97074 183.555187 
L 128.806209 181.713029 
L 132.304278 179.159831 
L 135.626099 176.494071 
L 139.236854 173.341635 
L 142.983683 169.783246 
L 144.757224 167.922769 
L 143.117465 164.048633 
L 141.764453 160.327862 
L 140.672607 156.795803 
L 139.600977 152.547492 
L 138.95689 149.299409 
L 138.421678 145.725546 
L 138.048349 141.853481 
L 137.890474 137.734348 
L 137.996312 133.443774 
L 138.400247 129.078335 
L 139.115965 124.747277 
L 140.131962 120.560349 
L 141.412287 116.614894 
L 142.901902 112.985461 
L 144.535252 109.718514 
L 146.2452 106.832531 
L 147.970443 104.322448 
L 149.660005 102.166079 
L 152.046978 99.523392 
L 154.188227 97.478867 
L 156.60545 95.475734 
L 159.3148 93.555996 
L 162.017246 91.935195 
L 164.73716 90.563213 
L 167.663625 89.346529 
L 170.441097 88.416944 
L 173.507087 87.624561 
L 176.414678 87.084475 
L 179.92093 86.689782 
L 182.615041 86.568275 
L 185.59857 86.610874 
L 188.860176 86.864956 
L 192.371255 87.376027 
L 196.083878 88.182356 
L 199.931348 89.306998 
L 203.832237 90.753076 
L 207.697771 92.499725 
L 211.441002 94.503796 
L 214.986244 96.703625 
L 218.275507 99.028181 
L 221.271579 101.405397 
L 223.957837 103.768885 
L 227.411436 107.170632 
L 230.223095 110.288757 
L 233.119659 113.890068 
L 235.668082 117.457457 
L 237.467404 120.003197 
L 242.497057 119.051598 
L 247.226065 117.95524 
L 252.500679 116.477073 
L 256.809713 115.03228 
L 260.359412 113.624708 
L 261.910533 112.903956 
L 261.895152 112.912153 
" clip-path="url(#pc78e9d5387)" style="fill: none; stroke-dasharray: 5.55,2.4; stroke-dashoffset: 0; stroke: #ff7f0e; stroke-width: 1.5"/>
   </g>
   <g id="line2d_62">
    <path d="M 239.844241 124.382281 
L 241.546575 127.744013 
L 241.949129 128.60003 
L 242.06418 129.127917 
L 238.357657 133.126454 
L 234.80603 137.305565 
L 231.482958 141.581225 
L 228.439422 145.87816 
L 225.706786 150.131192 
L 223.30024 154.285469 
L 221.222174 158.295975 
L 219.465184 162.126609 
L 218.014611 165.74909 
L 216.601662 169.952131 
L 215.589736 173.766546 
L 214.926955 177.173232 
L 214.558363 180.161785 
L 214.424728 183.191681 
L 214.534481 185.619557 
L 214.838422 187.711155 
L 215.307563 189.391215 
L 215.452106 189.728814 
L 215.1567 189.277713 
L 214.232139 188.175813 
L 212.767658 186.787541 
L 210.942607 185.365071 
L 208.531259 183.800902 
L 206.038488 182.441263 
L 203.08114 181.076836 
L 199.64106 179.752525 
L 195.706613 178.514616 
L 192.200593 177.618319 
L 188.379184 176.832173 
L 184.251313 176.180572 
L 179.832947 175.687208 
L 175.148765 175.374254 
L 170.234075 175.261207 
L 165.136888 175.363323 
L 159.919989 175.689612 
L 154.662725 176.240378 
L 149.570791 176.933984 
L 147.388832 173.186762 
L 145.562762 169.639553 
L 144.980346 168.40757 
L 144.865295 167.879683 
L 148.571818 163.881146 
L 152.123445 159.702035 
L 155.446517 155.426375 
L 158.490053 151.12944 
L 161.222689 146.876408 
L 163.629235 142.722131 
L 165.707301 138.711625 
L 167.464291 134.880991 
L 168.914864 131.25851 
L 170.327813 127.055469 
L 171.339739 123.241054 
L 172.00252 119.834368 
L 172.371112 116.845815 
L 172.504747 113.815919 
L 172.394994 111.388043 
L 172.091053 109.296445 
L 171.621912 107.616385 
L 171.477369 107.278786 
L 171.772775 107.729887 
L 172.697336 108.831787 
L 174.161817 110.220059 
L 175.986868 111.642529 
L 178.398216 113.206698 
L 180.890987 114.566337 
L 183.848335 115.930764 
L 187.288415 117.255075 
L 191.222862 118.492984 
L 194.728882 119.389281 
L 198.550291 120.175427 
L 202.678162 120.827028 
L 207.096528 121.320392 
L 211.78071 121.633346 
L 216.6954 121.746393 
L 221.792587 121.644277 
L 227.009486 121.317988 
L 232.26675 120.767222 
L 237.358684 120.073616 
L 239.540643 123.820838 
L 239.843765 124.381398 
L 239.843765 124.381398 
" clip-path="url(#pc78e9d5387)" style="fill: none; stroke: #2ca02c; stroke-width: 1.5; stroke-linecap: square"/>
   </g>
   <g id="line2d_63">
    <defs>
     <path id="m9a815fb24a" d="M -5 5 
L 5 -5 
M -5 -5 
L 5 5 
" style="stroke: #d62728"/>
    </defs>
    <g clip-path="url(#pc78e9d5387)">
     <use xlink:href="#m9a815fb24a" x="164.026446" y="148.5038" style="fill: #d62728; stroke: #d62728"/>
    </g>
   </g>
   <g id="line2d_64">
    <defs>
     <path id="m51d38c3660" d="M 0 -5 
L -1.12257 -1.545085 
L -4.755283 -1.545085 
L -1.816356 0.59017 
L -2.938926 4.045085 
L -0 1.90983 
L 2.938926 4.045085 
L 1.816356 0.59017 
L 4.755283 -1.545085 
L 1.12257 -1.545085 
z
" style="stroke: #1e88e5; stroke-linejoin: bevel"/>
    </defs>
    <g clip-path="url(#pc78e9d5387)">
     <use xlink:href="#m51d38c3660" x="75.428101" y="38.119975" style="fill: #1e88e5; stroke: #1e88e5; stroke-linejoin: bevel"/>
    </g>
   </g>
   <g id="line2d_65">
    <defs>
     <path id="m357dbfa014" d="M 0 -5 
L -1.12257 -1.545085 
L -4.755283 -1.545085 
L -1.816356 0.59017 
L -2.938926 4.045085 
L -0 1.90983 
L 2.938926 4.045085 
L 1.816356 0.59017 
L 4.755283 -1.545085 
L 1.12257 -1.545085 
z
" style="stroke: #7e57c2; stroke-linejoin: bevel"/>
    </defs>
    <g clip-path="url(#pc78e9d5387)">
     <use xlink:href="#m357dbfa014" x="171.367213" y="275.909919" style="fill: #7e57c2; stroke: #7e57c2; stroke-linejoin: bevel"/>
    </g>
   </g>
   <g id="line2d_66">
    <defs>
     <path id="m325ed2958d" d="M 0 -5 
L -1.12257 -1.545085 
L -4.755283 -1.545085 
L -1.816356 0.59017 
L -2.938926 4.045085 
L -0 1.90983 
L 2.938926 4.045085 
L 1.816356 0.59017 
L 4.755283 -1.545085 
L 1.12257 -1.545085 
z
" style="stroke: #8d6e63; stroke-linejoin: bevel"/>
    </defs>
    <g clip-path="url(#pc78e9d5387)">
     <use xlink:href="#m325ed2958d" x="115.997916" y="241.313286" style="fill: #8d6e63; stroke: #8d6e63; stroke-linejoin: bevel"/>
    </g>
   </g>
   <g id="line2d_67">
    <defs>
     <path id="m50eed6587f" d="M 0 -5 
L -1.12257 -1.545085 
L -4.755283 -1.545085 
L -1.816356 0.59017 
L -2.938926 4.045085 
L -0 1.90983 
L 2.938926 4.045085 
L 1.816356 0.59017 
L 4.755283 -1.545085 
L 1.12257 -1.545085 
z
" style="stroke: #616161; stroke-linejoin: bevel"/>
    </defs>
    <g clip-path="url(#pc78e9d5387)">
     <use xlink:href="#m50eed6587f" x="252.005325" y="129.127176" style="fill: #616161; stroke: #616161; stroke-linejoin: bevel"/>
    </g>
   </g>
   <g id="patch_4">
    <path d="M 52.160938 289.8076 
L 52.160938 7.2 
" style="fill: none; stroke: #000000; stroke-width: 0.8; stroke-linejoin: miter; stroke-linecap: square"/>
   </g>
   <g id="patch_5">
    <path d="M 334.768538 289.8076 
L 334.768538 7.2 
" style="fill: none; stroke: #000000; stroke-width: 0.8; stroke-linejoin: miter; stroke-linecap: square"/>
   </g>
   <g id="patch_6">
    <path d="M 52.160938 289.8076 
L 334.768538 289.8076 
" style="fill: none; stroke: #000000; stroke-width: 0.8; stroke-linejoin: miter; stroke-linecap: square"/>
   </g>
   <g id="patch_7">
    <path d="M 52.160938 7.2 
L 334.768538 7.2 
" style="fill: none; stroke: #000000; stroke-width: 0.8; stroke-linejoin: miter; stroke-linecap: square"/>
   </g>
   <g id="legend_1">
    <g id="patch_8">
     <path d="M 351.646766 248.5028 
L 486.609266 248.5028 
Q 489.009266 248.5028 489.009266 246.1028 
L 489.009266 50.9048 
Q 489.009266 48.5048 486.609266 48.5048 
L 351.646766 48.5048 
Q 349.246766 48.5048 349.246766 50.9048 
L 349.246766 246.1028 
Q 349.246766 248.5028 351.646766 248.5028 
z
" style="fill: #ffffff; opacity: 0.8; stroke: #d3d3d3; stroke-linejoin: miter"/>
    </g>
    <g id="line2d_68">
     <path d="M 354.046766 58.222925 
L 369.046766 58.222925 
L 384.046766 58.222925 
" style="fill: none; stroke-dasharray: 5.55,2.4; stroke-dashoffset: 0; stroke: #ff7f0e; stroke-opacity: 0.85; stroke-width: 1.5"/>
    </g>
    <g id="text_13">
     <!-- Double Caustic -->
     <g transform="translate(393.646766 62.422925) scale(0.12 -0.12)">
      <defs>
       <path id="DejaVuSans-44" d="M 1259 4147 
L 1259 519 
L 2022 519 
Q 2988 519 3436 956 
Q 3884 1394 3884 2338 
Q 3884 3275 3436 3711 
Q 2988 4147 2022 4147 
L 1259 4147 
z
M 628 4666 
L 1925 4666 
Q 3281 4666 3915 4102 
Q 4550 3538 4550 2338 
Q 4550 1131 3912 565 
Q 3275 0 1925 0 
L 628 0 
L 628 4666 
z
" transform="scale(0.015625)"/>
       <path id="DejaVuSans-6f" d="M 1959 3097 
Q 1497 3097 1228 2736 
Q 959 2375 959 1747 
Q 959 1119 1226 758 
Q 1494 397 1959 397 
Q 2419 397 2687 759 
Q 2956 1122 2956 1747 
Q 2956 2369 2687 2733 
Q 2419 3097 1959 3097 
z
M 1959 3584 
Q 2709 3584 3137 3096 
Q 3566 2609 3566 1747 
Q 3566 888 3137 398 
Q 2709 -91 1959 -91 
Q 1206 -91 779 398 
Q 353 888 353 1747 
Q 353 2609 779 3096 
Q 1206 3584 1959 3584 
z
" transform="scale(0.015625)"/>
       <path id="DejaVuSans-75" d="M 544 1381 
L 544 3500 
L 1119 3500 
L 1119 1403 
Q 1119 906 1312 657 
Q 1506 409 1894 409 
Q 2359 409 2629 706 
Q 2900 1003 2900 1516 
L 2900 3500 
L 3475 3500 
L 3475 0 
L 2900 0 
L 2900 538 
Q 2691 219 2414 64 
Q 2138 -91 1772 -91 
Q 1169 -91 856 284 
Q 544 659 544 1381 
z
M 1991 3584 
L 1991 3584 
z
" transform="scale(0.015625)"/>
       <path id="DejaVuSans-62" d="M 3116 1747 
Q 3116 2381 2855 2742 
Q 2594 3103 2138 3103 
Q 1681 3103 1420 2742 
Q 1159 2381 1159 1747 
Q 1159 1113 1420 752 
Q 1681 391 2138 391 
Q 2594 391 2855 752 
Q 3116 1113 3116 1747 
z
M 1159 2969 
Q 1341 3281 1617 3432 
Q 1894 3584 2278 3584 
Q 2916 3584 3314 3078 
Q 3713 2572 3713 1747 
Q 3713 922 3314 415 
Q 2916 -91 2278 -91 
Q 1894 -91 1617 61 
Q 1341 213 1159 525 
L 1159 0 
L 581 0 
L 581 4863 
L 1159 4863 
L 1159 2969 
z
" transform="scale(0.015625)"/>
       <path id="DejaVuSans-6c" d="M 603 4863 
L 1178 4863 
L 1178 0 
L 603 0 
L 603 4863 
z
" transform="scale(0.015625)"/>
       <path id="DejaVuSans-43" d="M 4122 4306 
L 4122 3641 
Q 3803 3938 3442 4084 
Q 3081 4231 2675 4231 
Q 1875 4231 1450 3742 
Q 1025 3253 1025 2328 
Q 1025 1406 1450 917 
Q 1875 428 2675 428 
Q 3081 428 3442 575 
Q 3803 722 4122 1019 
L 4122 359 
Q 3791 134 3420 21 
Q 3050 -91 2638 -91 
Q 1578 -91 968 557 
Q 359 1206 359 2328 
Q 359 3453 968 4101 
Q 1578 4750 2638 4750 
Q 3056 4750 3426 4639 
Q 3797 4528 4122 4306 
z
" transform="scale(0.015625)"/>
       <path id="DejaVuSans-74" d="M 1172 4494 
L 1172 3500 
L 2356 3500 
L 2356 3053 
L 1172 3053 
L 1172 1153 
Q 1172 725 1289 603 
Q 1406 481 1766 481 
L 2356 481 
L 2356 0 
L 1766 0 
Q 1100 0 847 248 
Q 594 497 594 1153 
L 594 3053 
L 172 3053 
L 172 3500 
L 594 3500 
L 594 4494 
L 1172 4494 
z
" transform="scale(0.015625)"/>
       <path id="DejaVuSans-69" d="M 603 3500 
L 1178 3500 
L 1178 0 
L 603 0 
L 603 3500 
z
M 603 4863 
L 1178 4863 
L 1178 4134 
L 603 4134 
L 603 4863 
z
" transform="scale(0.015625)"/>
      </defs>
      <use xlink:href="#DejaVuSans-44"/>
      <use xlink:href="#DejaVuSans-6f" transform="translate(77.001953 0)"/>
      <use xlink:href="#DejaVuSans-75" transform="translate(138.183594 0)"/>
      <use xlink:href="#DejaVuSans-62" transform="translate(201.5625 0)"/>
      <use xlink:href="#DejaVuSans-6c" transform="translate(265.039062 0)"/>
      <use xlink:href="#DejaVuSans-65" transform="translate(292.822266 0)"/>
      <use xlink:href="#DejaVuSans-20" transform="translate(354.345703 0)"/>
      <use xlink:href="#DejaVuSans-43" transform="translate(386.132812 0)"/>
      <use xlink:href="#DejaVuSans-61" transform="translate(455.957031 0)"/>
      <use xlink:href="#DejaVuSans-75" transform="translate(517.236328 0)"/>
      <use xlink:href="#DejaVuSans-73" transform="translate(580.615234 0)"/>
      <use xlink:href="#DejaVuSans-74" transform="translate(632.714844 0)"/>
      <use xlink:href="#DejaVuSans-69" transform="translate(671.923828 0)"/>
      <use xlink:href="#DejaVuSans-63" transform="translate(699.707031 0)"/>
     </g>
    </g>
    <g id="line2d_69">
     <path d="M 354.046766 75.836675 
L 369.046766 75.836675 
L 384.046766 75.836675 
" style="fill: none; stroke: #2ca02c; stroke-opacity: 0.85; stroke-width: 1.5; stroke-linecap: square"/>
    </g>
    <g id="text_14">
     <!-- Quad Caustic -->
     <g transform="translate(393.646766 80.036675) scale(0.12 -0.12)">
      <defs>
       <path id="DejaVuSans-51" d="M 2522 4238 
Q 1834 4238 1429 3725 
Q 1025 3213 1025 2328 
Q 1025 1447 1429 934 
Q 1834 422 2522 422 
Q 3209 422 3611 934 
Q 4013 1447 4013 2328 
Q 4013 3213 3611 3725 
Q 3209 4238 2522 4238 
z
M 3406 84 
L 4238 -825 
L 3475 -825 
L 2784 -78 
Q 2681 -84 2626 -87 
Q 2572 -91 2522 -91 
Q 1538 -91 948 567 
Q 359 1225 359 2328 
Q 359 3434 948 4092 
Q 1538 4750 2522 4750 
Q 3503 4750 4090 4092 
Q 4678 3434 4678 2328 
Q 4678 1516 4351 937 
Q 4025 359 3406 84 
z
" transform="scale(0.015625)"/>
       <path id="DejaVuSans-64" d="M 2906 2969 
L 2906 4863 
L 3481 4863 
L 3481 0 
L 2906 0 
L 2906 525 
Q 2725 213 2448 61 
Q 2172 -91 1784 -91 
Q 1150 -91 751 415 
Q 353 922 353 1747 
Q 353 2572 751 3078 
Q 1150 3584 1784 3584 
Q 2172 3584 2448 3432 
Q 2725 3281 2906 2969 
z
M 947 1747 
Q 947 1113 1208 752 
Q 1469 391 1925 391 
Q 2381 391 2643 752 
Q 2906 1113 2906 1747 
Q 2906 2381 2643 2742 
Q 2381 3103 1925 3103 
Q 1469 3103 1208 2742 
Q 947 2381 947 1747 
z
" transform="scale(0.015625)"/>
      </defs>
      <use xlink:href="#DejaVuSans-51"/>
      <use xlink:href="#DejaVuSans-75" transform="translate(78.710938 0)"/>
      <use xlink:href="#DejaVuSans-61" transform="translate(142.089844 0)"/>
      <use xlink:href="#DejaVuSans-64" transform="translate(203.369141 0)"/>
      <use xlink:href="#DejaVuSans-20" transform="translate(266.845703 0)"/>
      <use xlink:href="#DejaVuSans-43" transform="translate(298.632812 0)"/>
      <use xlink:href="#DejaVuSans-61" transform="translate(368.457031 0)"/>
      <use xlink:href="#DejaVuSans-75" transform="translate(429.736328 0)"/>
      <use xlink:href="#DejaVuSans-73" transform="translate(493.115234 0)"/>
      <use xlink:href="#DejaVuSans-74" transform="translate(545.214844 0)"/>
      <use xlink:href="#DejaVuSans-69" transform="translate(584.423828 0)"/>
      <use xlink:href="#DejaVuSans-63" transform="translate(612.207031 0)"/>
     </g>
    </g>
    <g id="patch_9">
     <path d="M 354.046766 97.650425 
L 384.046766 97.650425 
L 384.046766 89.250425 
L 354.046766 89.250425 
L 354.046766 97.650425 
z
" style="fill: none; stroke-dasharray: 1.5,2.475; stroke-dashoffset: 0; stroke: #1f77b4; stroke-width: 1.5; stroke-linejoin: miter"/>
    </g>
    <g id="text_15">
     <!-- Einstein Ring -->
     <g transform="translate(393.646766 97.650425) scale(0.12 -0.12)">
      <defs>
       <path id="DejaVuSans-45" d="M 628 4666 
L 3578 4666 
L 3578 4134 
L 1259 4134 
L 1259 2753 
L 3481 2753 
L 3481 2222 
L 1259 2222 
L 1259 531 
L 3634 531 
L 3634 0 
L 628 0 
L 628 4666 
z
" transform="scale(0.015625)"/>
       <path id="DejaVuSans-6e" d="M 3513 2113 
L 3513 0 
L 2938 0 
L 2938 2094 
Q 2938 2591 2744 2837 
Q 2550 3084 2163 3084 
Q 1697 3084 1428 2787 
Q 1159 2491 1159 1978 
L 1159 0 
L 581 0 
L 581 3500 
L 1159 3500 
L 1159 2956 
Q 1366 3272 1645 3428 
Q 1925 3584 2291 3584 
Q 2894 3584 3203 3211 
Q 3513 2838 3513 2113 
z
" transform="scale(0.015625)"/>
       <path id="DejaVuSans-52" d="M 2841 2188 
Q 3044 2119 3236 1894 
Q 3428 1669 3622 1275 
L 4263 0 
L 3584 0 
L 2988 1197 
Q 2756 1666 2539 1819 
Q 2322 1972 1947 1972 
L 1259 1972 
L 1259 0 
L 628 0 
L 628 4666 
L 2053 4666 
Q 2853 4666 3247 4331 
Q 3641 3997 3641 3322 
Q 3641 2881 3436 2590 
Q 3231 2300 2841 2188 
z
M 1259 4147 
L 1259 2491 
L 2053 2491 
Q 2509 2491 2742 2702 
Q 2975 2913 2975 3322 
Q 2975 3731 2742 3939 
Q 2509 4147 2053 4147 
L 1259 4147 
z
" transform="scale(0.015625)"/>
       <path id="DejaVuSans-67" d="M 2906 1791 
Q 2906 2416 2648 2759 
Q 2391 3103 1925 3103 
Q 1463 3103 1205 2759 
Q 947 2416 947 1791 
Q 947 1169 1205 825 
Q 1463 481 1925 481 
Q 2391 481 2648 825 
Q 2906 1169 2906 1791 
z
M 3481 434 
Q 3481 -459 3084 -895 
Q 2688 -1331 1869 -1331 
Q 1566 -1331 1297 -1286 
Q 1028 -1241 775 -1147 
L 775 -588 
Q 1028 -725 1275 -790 
Q 1522 -856 1778 -856 
Q 2344 -856 2625 -561 
Q 2906 -266 2906 331 
L 2906 616 
Q 2728 306 2450 153 
Q 2172 0 1784 0 
Q 1141 0 747 490 
Q 353 981 353 1791 
Q 353 2603 747 3093 
Q 1141 3584 1784 3584 
Q 2172 3584 2450 3431 
Q 2728 3278 2906 2969 
L 2906 3500 
L 3481 3500 
L 3481 434 
z
" transform="scale(0.015625)"/>
      </defs>
      <use xlink:href="#DejaVuSans-45"/>
      <use xlink:href="#DejaVuSans-69" transform="translate(63.183594 0)"/>
      <use xlink:href="#DejaVuSans-6e" transform="translate(90.966797 0)"/>
      <use xlink:href="#DejaVuSans-73" transform="translate(154.345703 0)"/>
      <use xlink:href="#DejaVuSans-74" transform="translate(206.445312 0)"/>
      <use xlink:href="#DejaVuSans-65" transform="translate(245.654297 0)"/>
      <use xlink:href="#DejaVuSans-69" transform="translate(307.177734 0)"/>
      <use xlink:href="#DejaVuSans-6e" transform="translate(334.960938 0)"/>
      <use xlink:href="#DejaVuSans-20" transform="translate(398.339844 0)"/>
      <use xlink:href="#DejaVuSans-52" transform="translate(430.126953 0)"/>
      <use xlink:href="#DejaVuSans-69" transform="translate(499.609375 0)"/>
      <use xlink:href="#DejaVuSans-6e" transform="translate(527.392578 0)"/>
      <use xlink:href="#DejaVuSans-67" transform="translate(590.771484 0)"/>
     </g>
    </g>
    <g id="line2d_70">
     <defs>
      <path id="m7e80568c11" d="M -5 5 
L 5 -5 
M -5 -5 
L 5 5 
" style="stroke: #d62728; stroke-opacity: 0.85"/>
     </defs>
     <g>
      <use xlink:href="#m7e80568c11" x="369.046766" y="111.064175" style="fill: #d62728; fill-opacity: 0.85; stroke: #d62728; stroke-opacity: 0.85"/>
     </g>
    </g>
    <g id="text_16">
     <!-- Source -->
     <g transform="translate(393.646766 115.264175) scale(0.12 -0.12)">
      <defs>
       <path id="DejaVuSans-53" d="M 3425 4513 
L 3425 3897 
Q 3066 4069 2747 4153 
Q 2428 4238 2131 4238 
Q 1616 4238 1336 4038 
Q 1056 3838 1056 3469 
Q 1056 3159 1242 3001 
Q 1428 2844 1947 2747 
L 2328 2669 
Q 3034 2534 3370 2195 
Q 3706 1856 3706 1288 
Q 3706 609 3251 259 
Q 2797 -91 1919 -91 
Q 1588 -91 1214 -16 
Q 841 59 441 206 
L 441 856 
Q 825 641 1194 531 
Q 1563 422 1919 422 
Q 2459 422 2753 634 
Q 3047 847 3047 1241 
Q 3047 1584 2836 1778 
Q 2625 1972 2144 2069 
L 1759 2144 
Q 1053 2284 737 2584 
Q 422 2884 422 3419 
Q 422 4038 858 4394 
Q 1294 4750 2059 4750 
Q 2388 4750 2728 4690 
Q 3069 4631 3425 4513 
z
" transform="scale(0.015625)"/>
      </defs>
      <use xlink:href="#DejaVuSans-53"/>
      <use xlink:href="#DejaVuSans-6f" transform="translate(63.476562 0)"/>
      <use xlink:href="#DejaVuSans-75" transform="translate(124.658203 0)"/>
      <use xlink:href="#DejaVuSans-72" transform="translate(188.037109 0)"/>
      <use xlink:href="#DejaVuSans-63" transform="translate(226.900391 0)"/>
      <use xlink:href="#DejaVuSans-65" transform="translate(281.880859 0)"/>
     </g>
    </g>
    <g id="line2d_71">
     <defs>
      <path id="m5e27b67778" d="M 0 -5 
L -1.12257 -1.545085 
L -4.755283 -1.545085 
L -1.816356 0.59017 
L -2.938926 4.045085 
L -0 1.90983 
L 2.938926 4.045085 
L 1.816356 0.59017 
L 4.755283 -1.545085 
L 1.12257 -1.545085 
z
" style="stroke: #1e88e5; stroke-opacity: 0.85; stroke-linejoin: bevel"/>
     </defs>
     <g>
      <use xlink:href="#m5e27b67778" x="369.046766" y="136.861738" style="fill: #1e88e5; fill-opacity: 0.85; stroke: #1e88e5; stroke-opacity: 0.85; stroke-linejoin: bevel"/>
     </g>
    </g>
    <g id="text_17">
     <!-- Image 1 -->
     <g transform="translate(393.646766 132.877925) scale(0.12 -0.12)">
      <defs>
       <path id="DejaVuSans-49" d="M 628 4666 
L 1259 4666 
L 1259 0 
L 628 0 
L 628 4666 
z
" transform="scale(0.015625)"/>
       <path id="DejaVuSans-6d" d="M 3328 2828 
Q 3544 3216 3844 3400 
Q 4144 3584 4550 3584 
Q 5097 3584 5394 3201 
Q 5691 2819 5691 2113 
L 5691 0 
L 5113 0 
L 5113 2094 
Q 5113 2597 4934 2840 
Q 4756 3084 4391 3084 
Q 3944 3084 3684 2787 
Q 3425 2491 3425 1978 
L 3425 0 
L 2847 0 
L 2847 2094 
Q 2847 2600 2669 2842 
Q 2491 3084 2119 3084 
Q 1678 3084 1418 2786 
Q 1159 2488 1159 1978 
L 1159 0 
L 581 0 
L 581 3500 
L 1159 3500 
L 1159 2956 
Q 1356 3278 1631 3431 
Q 1906 3584 2284 3584 
Q 2666 3584 2933 3390 
Q 3200 3197 3328 2828 
z
" transform="scale(0.015625)"/>
      </defs>
      <use xlink:href="#DejaVuSans-49"/>
      <use xlink:href="#DejaVuSans-6d" transform="translate(29.492188 0)"/>
      <use xlink:href="#DejaVuSans-61" transform="translate(126.904297 0)"/>
      <use xlink:href="#DejaVuSans-67" transform="translate(188.183594 0)"/>
      <use xlink:href="#DejaVuSans-65" transform="translate(251.660156 0)"/>
      <use xlink:href="#DejaVuSans-20" transform="translate(313.183594 0)"/>
      <use xlink:href="#DejaVuSans-31" transform="translate(344.970703 0)"/>
     </g>
     <!-- $\mid \mu_1\mid = 2.8$ -->
     <g transform="translate(393.646766 146.60555) scale(0.12 -0.12)">
      <defs>
       <path id="DejaVuSans-2223" d="M 1350 4934 
L 1850 4934 
L 1850 -1369 
L 1350 -1369 
L 1350 4934 
z
" transform="scale(0.015625)"/>
       <path id="DejaVuSans-Oblique-3bc" d="M -84 -1331 
L 856 3500 
L 1434 3500 
L 1009 1322 
Q 997 1256 987 1175 
Q 978 1094 978 1013 
Q 978 722 1161 565 
Q 1344 409 1684 409 
Q 2147 409 2431 671 
Q 2716 934 2816 1459 
L 3213 3500 
L 3788 3500 
L 3266 809 
Q 3253 750 3248 706 
Q 3244 663 3244 628 
Q 3244 531 3283 486 
Q 3322 441 3406 441 
Q 3438 441 3492 456 
Q 3547 472 3647 513 
L 3559 50 
Q 3422 -19 3297 -55 
Q 3172 -91 3053 -91 
Q 2847 -91 2730 40 
Q 2613 172 2613 403 
Q 2438 153 2195 31 
Q 1953 -91 1625 -91 
Q 1334 -91 1117 43 
Q 900 178 831 397 
L 494 -1331 
L -84 -1331 
z
" transform="scale(0.015625)"/>
       <path id="DejaVuSans-3d" d="M 678 2906 
L 4684 2906 
L 4684 2381 
L 678 2381 
L 678 2906 
z
M 678 1631 
L 4684 1631 
L 4684 1100 
L 678 1100 
L 678 1631 
z
" transform="scale(0.015625)"/>
       <path id="DejaVuSans-32" d="M 1228 531 
L 3431 531 
L 3431 0 
L 469 0 
L 469 531 
Q 828 903 1448 1529 
Q 2069 2156 2228 2338 
Q 2531 2678 2651 2914 
Q 2772 3150 2772 3378 
Q 2772 3750 2511 3984 
Q 2250 4219 1831 4219 
Q 1534 4219 1204 4116 
Q 875 4013 500 3803 
L 500 4441 
Q 881 4594 1212 4672 
Q 1544 4750 1819 4750 
Q 2544 4750 2975 4387 
Q 3406 4025 3406 3419 
Q 3406 3131 3298 2873 
Q 3191 2616 2906 2266 
Q 2828 2175 2409 1742 
Q 1991 1309 1228 531 
z
" transform="scale(0.015625)"/>
       <path id="DejaVuSans-38" d="M 2034 2216 
Q 1584 2216 1326 1975 
Q 1069 1734 1069 1313 
Q 1069 891 1326 650 
Q 1584 409 2034 409 
Q 2484 409 2743 651 
Q 3003 894 3003 1313 
Q 3003 1734 2745 1975 
Q 2488 2216 2034 2216 
z
M 1403 2484 
Q 997 2584 770 2862 
Q 544 3141 544 3541 
Q 544 4100 942 4425 
Q 1341 4750 2034 4750 
Q 2731 4750 3128 4425 
Q 3525 4100 3525 3541 
Q 3525 3141 3298 2862 
Q 3072 2584 2669 2484 
Q 3125 2378 3379 2068 
Q 3634 1759 3634 1313 
Q 3634 634 3220 271 
Q 2806 -91 2034 -91 
Q 1263 -91 848 271 
Q 434 634 434 1313 
Q 434 1759 690 2068 
Q 947 2378 1403 2484 
z
M 1172 3481 
Q 1172 3119 1398 2916 
Q 1625 2713 2034 2713 
Q 2441 2713 2670 2916 
Q 2900 3119 2900 3481 
Q 2900 3844 2670 4047 
Q 2441 4250 2034 4250 
Q 1625 4250 1398 4047 
Q 1172 3844 1172 3481 
z
" transform="scale(0.015625)"/>
      </defs>
      <use xlink:href="#DejaVuSans-2223" transform="translate(19.482422 0.90625)"/>
      <use xlink:href="#DejaVuSans-Oblique-3bc" transform="translate(88.964844 0.90625)"/>
      <use xlink:href="#DejaVuSans-31" transform="translate(152.587891 -15.5) scale(0.7)"/>
      <use xlink:href="#DejaVuSans-2223" transform="translate(219.34082 0.90625)"/>
      <use xlink:href="#DejaVuSans-3d" transform="translate(308.305664 0.90625)"/>
      <use xlink:href="#DejaVuSans-32" transform="translate(411.577148 0.90625)"/>
      <use xlink:href="#DejaVuSans-2e" transform="translate(475.200195 0.90625)"/>
      <use xlink:href="#DejaVuSans-38" transform="translate(504.362305 0.90625)"/>
     </g>
    </g>
    <g id="line2d_72">
     <defs>
      <path id="m9c4ed4a3a1" d="M 0 -5 
L -1.12257 -1.545085 
L -4.755283 -1.545085 
L -1.816356 0.59017 
L -2.938926 4.045085 
L -0 1.90983 
L 2.938926 4.045085 
L 1.816356 0.59017 
L 4.755283 -1.545085 
L 1.12257 -1.545085 
z
" style="stroke: #7e57c2; stroke-opacity: 0.85; stroke-linejoin: bevel"/>
     </defs>
     <g>
      <use xlink:href="#m9c4ed4a3a1" x="369.046766" y="168.347488" style="fill: #7e57c2; fill-opacity: 0.85; stroke: #7e57c2; stroke-opacity: 0.85; stroke-linejoin: bevel"/>
     </g>
    </g>
    <g id="text_18">
     <!-- Image 2 -->
     <g transform="translate(393.646766 164.363675) scale(0.12 -0.12)">
      <use xlink:href="#DejaVuSans-49"/>
      <use xlink:href="#DejaVuSans-6d" transform="translate(29.492188 0)"/>
      <use xlink:href="#DejaVuSans-61" transform="translate(126.904297 0)"/>
      <use xlink:href="#DejaVuSans-67" transform="translate(188.183594 0)"/>
      <use xlink:href="#DejaVuSans-65" transform="translate(251.660156 0)"/>
      <use xlink:href="#DejaVuSans-20" transform="translate(313.183594 0)"/>
      <use xlink:href="#DejaVuSans-32" transform="translate(344.970703 0)"/>
     </g>
     <!-- $\mid \mu_2\mid = 6.5$ -->
     <g transform="translate(393.646766 178.0913) scale(0.12 -0.12)">
      <defs>
       <path id="DejaVuSans-36" d="M 2113 2584 
Q 1688 2584 1439 2293 
Q 1191 2003 1191 1497 
Q 1191 994 1439 701 
Q 1688 409 2113 409 
Q 2538 409 2786 701 
Q 3034 994 3034 1497 
Q 3034 2003 2786 2293 
Q 2538 2584 2113 2584 
z
M 3366 4563 
L 3366 3988 
Q 3128 4100 2886 4159 
Q 2644 4219 2406 4219 
Q 1781 4219 1451 3797 
Q 1122 3375 1075 2522 
Q 1259 2794 1537 2939 
Q 1816 3084 2150 3084 
Q 2853 3084 3261 2657 
Q 3669 2231 3669 1497 
Q 3669 778 3244 343 
Q 2819 -91 2113 -91 
Q 1303 -91 875 529 
Q 447 1150 447 2328 
Q 447 3434 972 4092 
Q 1497 4750 2381 4750 
Q 2619 4750 2861 4703 
Q 3103 4656 3366 4563 
z
" transform="scale(0.015625)"/>
      </defs>
      <use xlink:href="#DejaVuSans-2223" transform="translate(19.482422 0.90625)"/>
      <use xlink:href="#DejaVuSans-Oblique-3bc" transform="translate(88.964844 0.90625)"/>
      <use xlink:href="#DejaVuSans-32" transform="translate(152.587891 -15.5) scale(0.7)"/>
      <use xlink:href="#DejaVuSans-2223" transform="translate(219.34082 0.90625)"/>
      <use xlink:href="#DejaVuSans-3d" transform="translate(308.305664 0.90625)"/>
      <use xlink:href="#DejaVuSans-36" transform="translate(411.577148 0.90625)"/>
      <use xlink:href="#DejaVuSans-2e" transform="translate(475.200195 0.90625)"/>
      <use xlink:href="#DejaVuSans-35" transform="translate(506.987305 0.90625)"/>
     </g>
    </g>
    <g id="line2d_73">
     <defs>
      <path id="m3df6255197" d="M 0 -5 
L -1.12257 -1.545085 
L -4.755283 -1.545085 
L -1.816356 0.59017 
L -2.938926 4.045085 
L -0 1.90983 
L 2.938926 4.045085 
L 1.816356 0.59017 
L 4.755283 -1.545085 
L 1.12257 -1.545085 
z
" style="stroke: #8d6e63; stroke-opacity: 0.85; stroke-linejoin: bevel"/>
     </defs>
     <g>
      <use xlink:href="#m3df6255197" x="369.046766" y="199.833238" style="fill: #8d6e63; fill-opacity: 0.85; stroke: #8d6e63; stroke-opacity: 0.85; stroke-linejoin: bevel"/>
     </g>
    </g>
    <g id="text_19">
     <!-- Image 3 -->
     <g transform="translate(393.646766 195.849425) scale(0.12 -0.12)">
      <defs>
       <path id="DejaVuSans-33" d="M 2597 2516 
Q 3050 2419 3304 2112 
Q 3559 1806 3559 1356 
Q 3559 666 3084 287 
Q 2609 -91 1734 -91 
Q 1441 -91 1130 -33 
Q 819 25 488 141 
L 488 750 
Q 750 597 1062 519 
Q 1375 441 1716 441 
Q 2309 441 2620 675 
Q 2931 909 2931 1356 
Q 2931 1769 2642 2001 
Q 2353 2234 1838 2234 
L 1294 2234 
L 1294 2753 
L 1863 2753 
Q 2328 2753 2575 2939 
Q 2822 3125 2822 3475 
Q 2822 3834 2567 4026 
Q 2313 4219 1838 4219 
Q 1578 4219 1281 4162 
Q 984 4106 628 3988 
L 628 4550 
Q 988 4650 1302 4700 
Q 1616 4750 1894 4750 
Q 2613 4750 3031 4423 
Q 3450 4097 3450 3541 
Q 3450 3153 3228 2886 
Q 3006 2619 2597 2516 
z
" transform="scale(0.015625)"/>
      </defs>
      <use xlink:href="#DejaVuSans-49"/>
      <use xlink:href="#DejaVuSans-6d" transform="translate(29.492188 0)"/>
      <use xlink:href="#DejaVuSans-61" transform="translate(126.904297 0)"/>
      <use xlink:href="#DejaVuSans-67" transform="translate(188.183594 0)"/>
      <use xlink:href="#DejaVuSans-65" transform="translate(251.660156 0)"/>
      <use xlink:href="#DejaVuSans-20" transform="translate(313.183594 0)"/>
      <use xlink:href="#DejaVuSans-33" transform="translate(344.970703 0)"/>
     </g>
     <!-- $\mid \mu_3\mid = 5.5$ -->
     <g transform="translate(393.646766 209.57705) scale(0.12 -0.12)">
      <use xlink:href="#DejaVuSans-2223" transform="translate(19.482422 0.90625)"/>
      <use xlink:href="#DejaVuSans-Oblique-3bc" transform="translate(88.964844 0.90625)"/>
      <use xlink:href="#DejaVuSans-33" transform="translate(152.587891 -15.5) scale(0.7)"/>
      <use xlink:href="#DejaVuSans-2223" transform="translate(219.34082 0.90625)"/>
      <use xlink:href="#DejaVuSans-3d" transform="translate(308.305664 0.90625)"/>
      <use xlink:href="#DejaVuSans-35" transform="translate(411.577148 0.90625)"/>
      <use xlink:href="#DejaVuSans-2e" transform="translate(475.200195 0.90625)"/>
      <use xlink:href="#DejaVuSans-35" transform="translate(506.987305 0.90625)"/>
     </g>
    </g>
    <g id="line2d_74">
     <defs>
      <path id="ma782c1160f" d="M 0 -5 
L -1.12257 -1.545085 
L -4.755283 -1.545085 
L -1.816356 0.59017 
L -2.938926 4.045085 
L -0 1.90983 
L 2.938926 4.045085 
L 1.816356 0.59017 
L 4.755283 -1.545085 
L 1.12257 -1.545085 
z
" style="stroke: #616161; stroke-opacity: 0.85; stroke-linejoin: bevel"/>
     </defs>
     <g>
      <use xlink:href="#ma782c1160f" x="369.046766" y="231.318988" style="fill: #616161; fill-opacity: 0.85; stroke: #616161; stroke-opacity: 0.85; stroke-linejoin: bevel"/>
     </g>
    </g>
    <g id="text_20">
     <!-- Image 4 -->
     <g transform="translate(393.646766 227.335175) scale(0.12 -0.12)">
      <defs>
       <path id="DejaVuSans-34" d="M 2419 4116 
L 825 1625 
L 2419 1625 
L 2419 4116 
z
M 2253 4666 
L 3047 4666 
L 3047 1625 
L 3713 1625 
L 3713 1100 
L 3047 1100 
L 3047 0 
L 2419 0 
L 2419 1100 
L 313 1100 
L 313 1709 
L 2253 4666 
z
" transform="scale(0.015625)"/>
      </defs>
      <use xlink:href="#DejaVuSans-49"/>
      <use xlink:href="#DejaVuSans-6d" transform="translate(29.492188 0)"/>
      <use xlink:href="#DejaVuSans-61" transform="translate(126.904297 0)"/>
      <use xlink:href="#DejaVuSans-67" transform="translate(188.183594 0)"/>
      <use xlink:href="#DejaVuSans-65" transform="translate(251.660156 0)"/>
      <use xlink:href="#DejaVuSans-20" transform="translate(313.183594 0)"/>
      <use xlink:href="#DejaVuSans-34" transform="translate(344.970703 0)"/>
     </g>
     <!-- $\mid \mu_4\mid = 1.0$ -->
     <g transform="translate(393.646766 241.0628) scale(0.12 -0.12)">
      <use xlink:href="#DejaVuSans-2223" transform="translate(19.482422 0.90625)"/>
      <use xlink:href="#DejaVuSans-Oblique-3bc" transform="translate(88.964844 0.90625)"/>
      <use xlink:href="#DejaVuSans-34" transform="translate(152.587891 -15.5) scale(0.7)"/>
      <use xlink:href="#DejaVuSans-2223" transform="translate(219.34082 0.90625)"/>
      <use xlink:href="#DejaVuSans-3d" transform="translate(308.305664 0.90625)"/>
      <use xlink:href="#DejaVuSans-31" transform="translate(411.577148 0.90625)"/>
      <use xlink:href="#DejaVuSans-2e" transform="translate(475.200195 0.90625)"/>
      <use xlink:href="#DejaVuSans-30" transform="translate(506.987305 0.90625)"/>
     </g>
    </g>
   </g>
  </g>
 </g>
 <defs>
  <clipPath id="pc78e9d5387">
   <rect x="52.160938" y="7.2" width="282.6076" height="282.6076"/>
  </clipPath>
 </defs>
</svg>
